<svg xmlns="http://www.w3.org/2000/svg" xmlns:xlink="http://www.w3.org/1999/xlink" fill="none" version="1.1" width="32" height="32" viewBox="0 0 32 32"><g><g style="opacity:0.5019999742507935;"><path d="M19.999021530151367,28.00038719177246C19.999021530151367,28.00038719177246,23.999091530151368,28.00038719177246,23.999091530151368,28.00038719177246C23.999091530151368,28.00038719177246,23.999091530151368,31.999987191772462,23.999091530151368,31.999987191772462C23.999091530151368,31.999987191772462,19.999021530151367,31.999987191772462,19.999021530151367,31.999987191772462C19.999021530151367,31.999987191772462,19.999021530151367,28.00038719177246,19.999021530151367,28.00038719177246Z" fill="#0074BF" fill-opacity="1"/></g><g style="opacity:0.7020000219345093;"><path d="M16.000124602355957,28.00038719177246C16.000124602355957,28.00038719177246,19.999664602355956,28.00038719177246,19.999664602355956,28.00038719177246C19.999664602355956,28.00038719177246,19.999664602355956,31.999987191772462,19.999664602355956,31.999987191772462C19.999664602355956,31.999987191772462,16.000124602355957,31.999987191772462,16.000124602355957,31.999987191772462C16.000124602355957,31.999987191772462,16.000124602355957,28.00038719177246,16.000124602355957,28.00038719177246ZM12.000584602355957,28.00038719177246C12.000584602355957,28.00038719177246,16.000124602355957,28.00038719177246,16.000124602355957,28.00038719177246C16.000124602355957,28.00038719177246,16.000124602355957,31.999987191772462,16.000124602355957,31.999987191772462C16.000124602355957,31.999987191772462,12.000584602355957,31.999987191772462,12.000584602355957,31.999987191772462C12.000584602355957,31.999987191772462,12.000584602355957,28.00038719177246,12.000584602355957,28.00038719177246Z" fill="#0074BF" fill-opacity="1"/></g><g style="opacity:0.5019999742507935;"><path d="M8.000584602355957,28.00038719177246C8.000584602355957,28.00038719177246,12.000654602355958,28.00038719177246,12.000654602355958,28.00038719177246C12.000654602355958,28.00038719177246,12.000654602355958,31.999987191772462,12.000654602355958,31.999987191772462C12.000654602355958,31.999987191772462,8.000584602355957,31.999987191772462,8.000584602355957,31.999987191772462C8.000584602355957,31.999987191772462,8.000584602355957,28.00038719177246,8.000584602355957,28.00038719177246Z" fill="#0074BF" fill-opacity="1"/></g><g style="opacity:0.7020000219345093;"><path d="M24.00058364868164,24.000192642211914C24.00058364868164,24.000192642211914,28.00065364868164,24.000192642211914,28.00065364868164,24.000192642211914C28.00065364868164,24.000192642211914,28.00065364868164,28.000322642211913,28.00065364868164,28.000322642211913C28.00065364868164,28.000322642211913,24.00058364868164,28.000322642211913,24.00058364868164,28.000322642211913C24.00058364868164,28.000322642211913,24.00058364868164,24.000192642211914,24.00058364868164,24.000192642211914Z" fill="#0082BF" fill-opacity="1"/></g><g style="opacity:0.800000011920929;"><path d="M19.999021530151367,24.000192642211914C19.999021530151367,24.000192642211914,23.999091530151368,24.000192642211914,23.999091530151368,24.000192642211914C23.999091530151368,24.000192642211914,23.999091530151368,28.000322642211913,23.999091530151368,28.000322642211913C23.999091530151368,28.000322642211913,19.999021530151367,28.000322642211913,19.999021530151367,28.000322642211913C19.999021530151367,28.000322642211913,19.999021530151367,24.000192642211914,19.999021530151367,24.000192642211914Z" fill="#0082BF" fill-opacity="1"/></g><g><path d="M16.000124602355957,24.000192642211914C16.000124602355957,24.000192642211914,19.999664602355956,24.000192642211914,19.999664602355956,24.000192642211914C19.999664602355956,24.000192642211914,19.999664602355956,28.000322642211913,19.999664602355956,28.000322642211913C19.999664602355956,28.000322642211913,16.000124602355957,28.000322642211913,16.000124602355957,28.000322642211913C16.000124602355957,28.000322642211913,16.000124602355957,24.000192642211914,16.000124602355957,24.000192642211914ZM12.000584602355957,24.000192642211914C12.000584602355957,24.000192642211914,16.000124602355957,24.000192642211914,16.000124602355957,24.000192642211914C16.000124602355957,24.000192642211914,16.000124602355957,28.000322642211913,16.000124602355957,28.000322642211913C16.000124602355957,28.000322642211913,12.000584602355957,28.000322642211913,12.000584602355957,28.000322642211913C12.000584602355957,28.000322642211913,12.000584602355957,24.000192642211914,12.000584602355957,24.000192642211914Z" fill="#0082BF" fill-opacity="1"/></g><g style="opacity:0.800000011920929;"><path d="M8.000584602355957,24.000192642211914C8.000584602355957,24.000192642211914,12.000654602355958,24.000192642211914,12.000654602355958,24.000192642211914C12.000654602355958,24.000192642211914,12.000654602355958,28.000322642211913,12.000654602355958,28.000322642211913C12.000654602355958,28.000322642211913,8.000584602355957,28.000322642211913,8.000584602355957,28.000322642211913C8.000584602355957,28.000322642211913,8.000584602355957,24.000192642211914,8.000584602355957,24.000192642211914Z" fill="#0082BF" fill-opacity="1"/></g><g style="opacity:0.7020000219345093;"><path d="M3.9992177486419678,24.000192642211914C3.9992177486419678,24.000192642211914,7.999287748641968,24.000192642211914,7.999287748641968,24.000192642211914C7.999287748641968,24.000192642211914,7.999287748641968,28.000322642211913,7.999287748641968,28.000322642211913C7.999287748641968,28.000322642211913,3.9992177486419678,28.000322642211913,3.9992177486419678,28.000322642211913C3.9992177486419678,28.000322642211913,3.9992177486419678,24.000192642211914,3.9992177486419678,24.000192642211914Z" fill="#0082BF" fill-opacity="1"/></g><g><g style="opacity:0.5019999742507935;"><path d="M28.000386357307434,19.999702715897C28.000386357307434,19.999702715897,31.999926357307434,19.999702715897,31.999926357307434,19.999702715897C31.999926357307434,19.999702715897,31.999926357307434,23.999832715897,31.999926357307434,23.999832715897C31.999926357307434,23.999832715897,28.000386357307434,23.999832715897,28.000386357307434,23.999832715897C28.000386357307434,23.999832715897,28.000386357307434,19.999702715897,28.000386357307434,19.999702715897Z" fill="#008FBF" fill-opacity="1"/></g><g style="opacity:0.800000011920929;"><path d="M24.000582814216614,19.999702715897C24.000582814216614,19.999702715897,28.000652814216615,19.999702715897,28.000652814216615,19.999702715897C28.000652814216615,19.999702715897,28.000652814216615,23.999832715897,28.000652814216615,23.999832715897C28.000652814216615,23.999832715897,24.000582814216614,23.999832715897,24.000582814216614,23.999832715897C24.000582814216614,23.999832715897,24.000582814216614,19.999702715897,24.000582814216614,19.999702715897Z" fill="#008FBF" fill-opacity="1"/></g><g><path d="M19.99965376789093,19.999702715897C19.99965376789093,19.999702715897,23.99968376789093,19.999702715897,23.99968376789093,19.999702715897C23.99968376789093,19.999702715897,23.99968376789093,23.999832715897,23.99968376789093,23.999832715897C23.99968376789093,23.999832715897,19.99965376789093,23.999832715897,19.99965376789093,23.999832715897C19.99965376789093,23.999832715897,19.99965376789093,19.999702715897,19.99965376789093,19.999702715897ZM16.00012376789093,19.999702715897C16.00012376789093,19.999702715897,19.99965376789093,19.999702715897,19.99965376789093,19.999702715897C19.99965376789093,19.999702715897,19.99965376789093,23.999832715897,19.99965376789093,23.999832715897C19.99965376789093,23.999832715897,16.00012376789093,23.999832715897,16.00012376789093,23.999832715897C16.00012376789093,23.999832715897,16.00012376789093,19.999702715897,16.00012376789093,19.999702715897ZM12.00058376789093,19.999702715897C12.00058376789093,19.999702715897,16.00012376789093,19.999702715897,16.00012376789093,19.999702715897C16.00012376789093,19.999702715897,16.00012376789093,23.999832715897,16.00012376789093,23.999832715897C16.00012376789093,23.999832715897,12.00058376789093,23.999832715897,12.00058376789093,23.999832715897C12.00058376789093,23.999832715897,12.00058376789093,19.999702715897,12.00058376789093,19.999702715897Z" fill="#008FBF" fill-opacity="1"/></g><g><path d="M8.00058376789093,19.999702715897C8.00058376789093,19.999702715897,12.000653767890931,19.999702715897,12.000653767890931,19.999702715897C12.000653767890931,19.999702715897,12.000653767890931,23.999832715897,12.000653767890931,23.999832715897C12.000653767890931,23.999832715897,8.00058376789093,23.999832715897,8.00058376789093,23.999832715897C8.00058376789093,23.999832715897,8.00058376789093,19.999702715897,8.00058376789093,19.999702715897Z" fill="#008FBF" fill-opacity="1"/></g><g style="opacity:0.800000011920929;"><path d="M3.999216914176941,19.999702715897C3.999216914176941,19.999702715897,7.999286914176941,19.999702715897,7.999286914176941,19.999702715897C7.999286914176941,19.999702715897,7.999286914176941,23.999832715897,7.999286914176941,23.999832715897C7.999286914176941,23.999832715897,3.999216914176941,23.999832715897,3.999216914176941,23.999832715897C3.999216914176941,23.999832715897,3.999216914176941,19.999702715897,3.999216914176941,19.999702715897Z" fill="#008FBF" fill-opacity="1"/></g><g style="opacity:0.5019999742507935;"><path d="M-8.344650268554688e-7,19.99960708618164C-8.344650268554688e-7,19.99960708618164,3.9995391655349732,19.99960708618164,3.9995391655349732,19.99960708618164C3.9995391655349732,19.99960708618164,3.9995391655349732,23.99973708618164,3.9995391655349732,23.99973708618164C3.9995391655349732,23.99973708618164,-8.344650268554688e-7,23.99973708618164,-8.344650268554688e-7,23.99973708618164C-8.344650268554688e-7,23.99973708618164,-8.344650268554688e-7,19.99960708618164,-8.344650268554688e-7,19.99960708618164Z" fill="#008FBF" fill-opacity="1"/></g></g><g style="opacity:0.7020000219345093;"><path d="M28.00038719177246,15.999998092651367C28.00038719177246,15.999998092651367,31.99992719177246,15.999998092651367,31.99992719177246,15.999998092651367C31.99992719177246,15.999998092651367,31.99992719177246,19.999598092651368,31.99992719177246,19.999598092651368C31.99992719177246,19.999598092651368,28.00038719177246,19.999598092651368,28.00038719177246,19.999598092651368C28.00038719177246,19.999598092651368,28.00038719177246,15.999998092651367,28.00038719177246,15.999998092651367Z" fill="#009DBF" fill-opacity="1"/></g><g><path d="M24.000284602355958,15.999998092651367C24.000284602355958,15.999998092651367,28.000284602355958,15.999998092651367,28.000284602355958,15.999998092651367C28.000284602355958,15.999998092651367,28.000284602355958,19.999598092651368,28.000284602355958,19.999598092651368C28.000284602355958,19.999598092651368,24.000284602355958,19.999598092651368,24.000284602355958,19.999598092651368C24.000284602355958,19.999598092651368,24.000284602355958,15.999998092651367,24.000284602355958,15.999998092651367ZM19.999654602355957,15.999998092651367C19.999654602355957,15.999998092651367,23.999684602355956,15.999998092651367,23.999684602355956,15.999998092651367C23.999684602355956,15.999998092651367,23.999684602355956,19.999598092651368,23.999684602355956,19.999598092651368C23.999684602355956,19.999598092651368,19.999654602355957,19.999598092651368,19.999654602355957,19.999598092651368C19.999654602355957,19.999598092651368,19.999654602355957,15.999998092651367,19.999654602355957,15.999998092651367ZM16.000124602355957,15.999998092651367C16.000124602355957,15.999998092651367,19.999654602355957,15.999998092651367,19.999654602355957,15.999998092651367C19.999654602355957,15.999998092651367,19.999654602355957,19.999598092651368,19.999654602355957,19.999598092651368C19.999654602355957,19.999598092651368,16.000124602355957,19.999598092651368,16.000124602355957,19.999598092651368C16.000124602355957,19.999598092651368,16.000124602355957,15.999998092651367,16.000124602355957,15.999998092651367ZM12.000584602355957,15.999998092651367C12.000584602355957,15.999998092651367,16.000124602355957,15.999998092651367,16.000124602355957,15.999998092651367C16.000124602355957,15.999998092651367,16.000124602355957,19.999598092651368,16.000124602355957,19.999598092651368C16.000124602355957,19.999598092651368,12.000584602355957,19.999598092651368,12.000584602355957,19.999598092651368C12.000584602355957,19.999598092651368,12.000584602355957,15.999998092651367,12.000584602355957,15.999998092651367Z" fill="#009DBF" fill-opacity="1"/></g><g><path d="M7.999827748641968,15.999998092651367C7.999827748641968,15.999998092651367,11.999897748641967,15.999998092651367,11.999897748641967,15.999998092651367C11.999897748641967,15.999998092651367,11.999897748641967,19.999598092651368,11.999897748641967,19.999598092651368C11.999897748641967,19.999598092651368,7.999827748641968,19.999598092651368,7.999827748641968,19.999598092651368C7.999827748641968,19.999598092651368,7.999827748641968,15.999998092651367,7.999827748641968,15.999998092651367ZM3.9992177486419678,15.999998092651367C3.9992177486419678,15.999998092651367,7.999287748641968,15.999998092651367,7.999287748641968,15.999998092651367C7.999287748641968,15.999998092651367,7.999287748641968,19.999598092651368,7.999287748641968,19.999598092651368C7.999287748641968,19.999598092651368,3.9992177486419678,19.999598092651368,3.9992177486419678,19.999598092651368C3.9992177486419678,19.999598092651368,3.9992177486419678,15.999998092651367,3.9992177486419678,15.999998092651367Z" fill="#009DBF" fill-opacity="1"/></g><g style="opacity:0.7020000219345093;"><path d="M-8.344650268554688e-7,15.999998092651367C-8.344650268554688e-7,15.999998092651367,3.9995391655349732,15.999998092651367,3.9995391655349732,15.999998092651367C3.9995391655349732,15.999998092651367,3.9995391655349732,19.999598092651368,3.9995391655349732,19.999598092651368C3.9995391655349732,19.999598092651368,-8.344650268554688e-7,19.999598092651368,-8.344650268554688e-7,19.999598092651368C-8.344650268554688e-7,19.999598092651368,-8.344650268554688e-7,15.999998092651367,-8.344650268554688e-7,15.999998092651367Z" fill="#009DBF" fill-opacity="1"/></g><g style="opacity:0.7020000219345093;"><path d="M28.00038719177246,12.000389099121094C28.00038719177246,12.000389099121094,31.99992719177246,12.000389099121094,31.99992719177246,12.000389099121094C31.99992719177246,12.000389099121094,31.99992719177246,15.999989099121095,31.99992719177246,15.999989099121095C31.99992719177246,15.999989099121095,28.00038719177246,15.999989099121095,28.00038719177246,15.999989099121095C28.00038719177246,15.999989099121095,28.00038719177246,12.000389099121094,28.00038719177246,12.000389099121094Z" fill="#00ABBF" fill-opacity="1"/></g><g><path d="M24.000284602355958,12.000389099121094C24.000284602355958,12.000389099121094,28.000284602355958,12.000389099121094,28.000284602355958,12.000389099121094C28.000284602355958,12.000389099121094,28.000284602355958,15.999989099121095,28.000284602355958,15.999989099121095C28.000284602355958,15.999989099121095,24.000284602355958,15.999989099121095,24.000284602355958,15.999989099121095C24.000284602355958,15.999989099121095,24.000284602355958,12.000389099121094,24.000284602355958,12.000389099121094ZM19.999654602355957,12.000389099121094C19.999654602355957,12.000389099121094,23.999684602355956,12.000389099121094,23.999684602355956,12.000389099121094C23.999684602355956,12.000389099121094,23.999684602355956,15.999989099121095,23.999684602355956,15.999989099121095C23.999684602355956,15.999989099121095,19.999654602355957,15.999989099121095,19.999654602355957,15.999989099121095C19.999654602355957,15.999989099121095,19.999654602355957,12.000389099121094,19.999654602355957,12.000389099121094ZM16.000124602355957,12.000389099121094C16.000124602355957,12.000389099121094,19.999654602355957,12.000389099121094,19.999654602355957,12.000389099121094C19.999654602355957,12.000389099121094,19.999654602355957,15.999989099121095,19.999654602355957,15.999989099121095C19.999654602355957,15.999989099121095,16.000124602355957,15.999989099121095,16.000124602355957,15.999989099121095C16.000124602355957,15.999989099121095,16.000124602355957,12.000389099121094,16.000124602355957,12.000389099121094ZM12.000584602355957,12.000389099121094C12.000584602355957,12.000389099121094,16.000124602355957,12.000389099121094,16.000124602355957,12.000389099121094C16.000124602355957,12.000389099121094,16.000124602355957,15.999989099121095,16.000124602355957,15.999989099121095C16.000124602355957,15.999989099121095,12.000584602355957,15.999989099121095,12.000584602355957,15.999989099121095C12.000584602355957,15.999989099121095,12.000584602355957,12.000389099121094,12.000584602355957,12.000389099121094Z" fill="#00ABBF" fill-opacity="1"/></g><g><path d="M7.999827748641968,12.000389099121094C7.999827748641968,12.000389099121094,11.999897748641967,12.000389099121094,11.999897748641967,12.000389099121094C11.999897748641967,12.000389099121094,11.999897748641967,15.999989099121095,11.999897748641967,15.999989099121095C11.999897748641967,15.999989099121095,7.999827748641968,15.999989099121095,7.999827748641968,15.999989099121095C7.999827748641968,15.999989099121095,7.999827748641968,12.000389099121094,7.999827748641968,12.000389099121094ZM3.9992177486419678,12.000389099121094C3.9992177486419678,12.000389099121094,7.999287748641968,12.000389099121094,7.999287748641968,12.000389099121094C7.999287748641968,12.000389099121094,7.999287748641968,15.999989099121095,7.999287748641968,15.999989099121095C7.999287748641968,15.999989099121095,3.9992177486419678,15.999989099121095,3.9992177486419678,15.999989099121095C3.9992177486419678,15.999989099121095,3.9992177486419678,12.000389099121094,3.9992177486419678,12.000389099121094Z" fill="#00ABBF" fill-opacity="1"/></g><g style="opacity:0.7020000219345093;"><path d="M-8.344650268554688e-7,12.000389099121094C-8.344650268554688e-7,12.000389099121094,3.9995391655349732,12.000389099121094,3.9995391655349732,12.000389099121094C3.9995391655349732,12.000389099121094,3.9995391655349732,15.999989099121095,3.9995391655349732,15.999989099121095C3.9995391655349732,15.999989099121095,-8.344650268554688e-7,15.999989099121095,-8.344650268554688e-7,15.999989099121095C-8.344650268554688e-7,15.999989099121095,-8.344650268554688e-7,12.000389099121094,-8.344650268554688e-7,12.000389099121094Z" fill="#00ABBF" fill-opacity="1"/></g><g><g style="opacity:0.5019999742507935;"><path d="M28.000386357307434,8.000387597072404C28.000386357307434,8.000387597072404,31.999926357307434,8.000387597072404,31.999926357307434,8.000387597072404C31.999926357307434,8.000387597072404,31.999926357307434,12.000517597072404,31.999926357307434,12.000517597072404C31.999926357307434,12.000517597072404,28.000386357307434,12.000517597072404,28.000386357307434,12.000517597072404C28.000386357307434,12.000517597072404,28.000386357307434,8.000387597072404,28.000386357307434,8.000387597072404Z" fill="#00B9BF" fill-opacity="1"/></g><g style="opacity:0.800000011920929;"><path d="M24.000582814216614,8.000387597072404C24.000582814216614,8.000387597072404,28.000652814216615,8.000387597072404,28.000652814216615,8.000387597072404C28.000652814216615,8.000387597072404,28.000652814216615,12.000517597072404,28.000652814216615,12.000517597072404C28.000652814216615,12.000517597072404,24.000582814216614,12.000517597072404,24.000582814216614,12.000517597072404C24.000582814216614,12.000517597072404,24.000582814216614,8.000387597072404,24.000582814216614,8.000387597072404Z" fill="#00B9BF" fill-opacity="1"/></g><g><path d="M19.99965376789093,8.000387597072404C19.99965376789093,8.000387597072404,23.99968376789093,8.000387597072404,23.99968376789093,8.000387597072404C23.99968376789093,8.000387597072404,23.99968376789093,12.000517597072404,23.99968376789093,12.000517597072404C23.99968376789093,12.000517597072404,19.99965376789093,12.000517597072404,19.99965376789093,12.000517597072404C19.99965376789093,12.000517597072404,19.99965376789093,8.000387597072404,19.99965376789093,8.000387597072404ZM16.00012376789093,8.000387597072404C16.00012376789093,8.000387597072404,19.99965376789093,8.000387597072404,19.99965376789093,8.000387597072404C19.99965376789093,8.000387597072404,19.99965376789093,12.000517597072404,19.99965376789093,12.000517597072404C19.99965376789093,12.000517597072404,16.00012376789093,12.000517597072404,16.00012376789093,12.000517597072404C16.00012376789093,12.000517597072404,16.00012376789093,8.000387597072404,16.00012376789093,8.000387597072404ZM12.00058376789093,8.000387597072404C12.00058376789093,8.000387597072404,16.00012376789093,8.000387597072404,16.00012376789093,8.000387597072404C16.00012376789093,8.000387597072404,16.00012376789093,12.000517597072404,16.00012376789093,12.000517597072404C16.00012376789093,12.000517597072404,12.00058376789093,12.000517597072404,12.00058376789093,12.000517597072404C12.00058376789093,12.000517597072404,12.00058376789093,8.000387597072404,12.00058376789093,8.000387597072404Z" fill="#00B9BF" fill-opacity="1"/></g><g><path d="M8.00058376789093,8.000387597072404C8.00058376789093,8.000387597072404,12.000653767890931,8.000387597072404,12.000653767890931,8.000387597072404C12.000653767890931,8.000387597072404,12.000653767890931,12.000517597072404,12.000653767890931,12.000517597072404C12.000653767890931,12.000517597072404,8.00058376789093,12.000517597072404,8.00058376789093,12.000517597072404C8.00058376789093,12.000517597072404,8.00058376789093,8.000387597072404,8.00058376789093,8.000387597072404Z" fill="#00B9BF" fill-opacity="1"/></g><g style="opacity:0.800000011920929;"><path d="M3.999216914176941,8.000387597072404C3.999216914176941,8.000387597072404,7.999286914176941,8.000387597072404,7.999286914176941,8.000387597072404C7.999286914176941,8.000387597072404,7.999286914176941,12.000517597072404,7.999286914176941,12.000517597072404C7.999286914176941,12.000517597072404,3.999216914176941,12.000517597072404,3.999216914176941,12.000517597072404C3.999216914176941,12.000517597072404,3.999216914176941,8.000387597072404,3.999216914176941,8.000387597072404Z" fill="#00B9BF" fill-opacity="1"/></g><g style="opacity:0.5019999742507935;"><path d="M-8.344650268554688e-7,8.00019359588623C-8.344650268554688e-7,8.00019359588623,3.9995391655349732,8.00019359588623,3.9995391655349732,8.00019359588623C3.9995391655349732,8.00019359588623,3.9995391655349732,12.00032359588623,3.9995391655349732,12.00032359588623C3.9995391655349732,12.00032359588623,-8.344650268554688e-7,12.00032359588623,-8.344650268554688e-7,12.00032359588623C-8.344650268554688e-7,12.00032359588623,-8.344650268554688e-7,8.00019359588623,-8.344650268554688e-7,8.00019359588623Z" fill="#00B9BF" fill-opacity="1"/></g></g><g style="opacity:0.7020000219345093;"><path d="M24.00058364868164,3.999608278274536C24.00058364868164,3.999608278274536,28.00065364868164,3.999608278274536,28.00065364868164,3.999608278274536C28.00065364868164,3.999608278274536,28.00065364868164,7.9997382782745365,28.00065364868164,7.9997382782745365C28.00065364868164,7.9997382782745365,24.00058364868164,7.9997382782745365,24.00058364868164,7.9997382782745365C24.00058364868164,7.9997382782745365,24.00058364868164,3.999608278274536,24.00058364868164,3.999608278274536Z" fill="#00C6BF" fill-opacity="1"/></g><g style="opacity:0.800000011920929;"><path d="M19.999021530151367,3.999608278274536C19.999021530151367,3.999608278274536,23.999091530151368,3.999608278274536,23.999091530151368,3.999608278274536C23.999091530151368,3.999608278274536,23.999091530151368,7.9997382782745365,23.999091530151368,7.9997382782745365C23.999091530151368,7.9997382782745365,19.999021530151367,7.9997382782745365,19.999021530151367,7.9997382782745365C19.999021530151367,7.9997382782745365,19.999021530151367,3.999608278274536,19.999021530151367,3.999608278274536Z" fill="#00C6BF" fill-opacity="1"/></g><g><path d="M16.000124602355957,3.999608278274536C16.000124602355957,3.999608278274536,19.999664602355956,3.999608278274536,19.999664602355956,3.999608278274536C19.999664602355956,3.999608278274536,19.999664602355956,7.9997382782745365,19.999664602355956,7.9997382782745365C19.999664602355956,7.9997382782745365,16.000124602355957,7.9997382782745365,16.000124602355957,7.9997382782745365C16.000124602355957,7.9997382782745365,16.000124602355957,3.999608278274536,16.000124602355957,3.999608278274536ZM12.000584602355957,3.999608278274536C12.000584602355957,3.999608278274536,16.000124602355957,3.999608278274536,16.000124602355957,3.999608278274536C16.000124602355957,3.999608278274536,16.000124602355957,7.9997382782745365,16.000124602355957,7.9997382782745365C16.000124602355957,7.9997382782745365,12.000584602355957,7.9997382782745365,12.000584602355957,7.9997382782745365C12.000584602355957,7.9997382782745365,12.000584602355957,3.999608278274536,12.000584602355957,3.999608278274536Z" fill="#00C6BF" fill-opacity="1"/></g><g style="opacity:0.800000011920929;"><path d="M8.000584602355957,3.999608278274536C8.000584602355957,3.999608278274536,12.000654602355958,3.999608278274536,12.000654602355958,3.999608278274536C12.000654602355958,3.999608278274536,12.000654602355958,7.9997382782745365,12.000654602355958,7.9997382782745365C12.000654602355958,7.9997382782745365,8.000584602355957,7.9997382782745365,8.000584602355957,7.9997382782745365C8.000584602355957,7.9997382782745365,8.000584602355957,3.999608278274536,8.000584602355957,3.999608278274536Z" fill="#00C6BF" fill-opacity="1"/></g><g style="opacity:0.7020000219345093;"><path d="M3.9992177486419678,3.999608278274536C3.9992177486419678,3.999608278274536,7.999287748641968,3.999608278274536,7.999287748641968,3.999608278274536C7.999287748641968,3.999608278274536,7.999287748641968,7.9997382782745365,7.999287748641968,7.9997382782745365C7.999287748641968,7.9997382782745365,3.9992177486419678,7.9997382782745365,3.9992177486419678,7.9997382782745365C3.9992177486419678,7.9997382782745365,3.9992177486419678,3.999608278274536,3.9992177486419678,3.999608278274536Z" fill="#00C6BF" fill-opacity="1"/></g><g style="opacity:0.5019999742507935;"><path d="M19.999021530151367,-8.344650268554688e-7C19.999021530151367,-8.344650268554688e-7,23.999091530151368,-8.344650268554688e-7,23.999091530151368,-8.344650268554688e-7C23.999091530151368,-8.344650268554688e-7,23.999091530151368,3.999599165534973,23.999091530151368,3.999599165534973C23.999091530151368,3.999599165534973,19.999021530151367,3.999599165534973,19.999021530151367,3.999599165534973C19.999021530151367,3.999599165534973,19.999021530151367,-8.344650268554688e-7,19.999021530151367,-8.344650268554688e-7Z" fill="#00D4BF" fill-opacity="1"/></g><g style="opacity:0.7020000219345093;"><path d="M16.000124602355957,-8.344650268554688e-7C16.000124602355957,-8.344650268554688e-7,19.999664602355956,-8.344650268554688e-7,19.999664602355956,-8.344650268554688e-7C19.999664602355956,-8.344650268554688e-7,19.999664602355956,3.999599165534973,19.999664602355956,3.999599165534973C19.999664602355956,3.999599165534973,16.000124602355957,3.999599165534973,16.000124602355957,3.999599165534973C16.000124602355957,3.999599165534973,16.000124602355957,-8.344650268554688e-7,16.000124602355957,-8.344650268554688e-7ZM12.000584602355957,-8.344650268554688e-7C12.000584602355957,-8.344650268554688e-7,16.000124602355957,-8.344650268554688e-7,16.000124602355957,-8.344650268554688e-7C16.000124602355957,-8.344650268554688e-7,16.000124602355957,3.999599165534973,16.000124602355957,3.999599165534973C16.000124602355957,3.999599165534973,12.000584602355957,3.999599165534973,12.000584602355957,3.999599165534973C12.000584602355957,3.999599165534973,12.000584602355957,-8.344650268554688e-7,12.000584602355957,-8.344650268554688e-7Z" fill="#00D4BF" fill-opacity="1"/></g><g style="opacity:0.5019999742507935;"><path d="M8.000584602355957,-8.344650268554688e-7C8.000584602355957,-8.344650268554688e-7,12.000654602355958,-8.344650268554688e-7,12.000654602355958,-8.344650268554688e-7C12.000654602355958,-8.344650268554688e-7,12.000654602355958,3.999599165534973,12.000654602355958,3.999599165534973C12.000654602355958,3.999599165534973,8.000584602355957,3.999599165534973,8.000584602355957,3.999599165534973C8.000584602355957,3.999599165534973,8.000584602355957,-8.344650268554688e-7,8.000584602355957,-8.344650268554688e-7Z" fill="#00D4BF" fill-opacity="1"/></g><g><path d="M10.531300227355956,14.737945852355956C10.531300227355956,14.737945852355956,11.645870227355957,12.243345852355958,11.645870227355957,12.243345852355958C12.052290227355957,11.604065852355957,11.998350227355957,10.820595852355957,11.554020227355956,10.376255852355957C11.539060227355957,10.361305852355958,11.524110227355958,10.346885852355957,11.508090227355957,10.332995852355957C11.492600227355958,10.319115852355957,11.476580227355957,10.305225852355957,11.460560227355957,10.292415852355957C11.427770227355957,10.266125852355957,11.393540227355956,10.241695852355956,11.358020227355958,10.219245852355957C11.282160227355957,10.172585852355958,11.201380227355957,10.134435852355956,11.117160227355956,10.105485852355958C11.032780227355957,10.076115852355958,10.945730227355957,10.056355852355956,10.857070227355957,10.045675852355958C10.768420227355957,10.035525852355956,10.678700227355957,10.034995852355957,10.590050227355956,10.044075852355958C10.501390227355957,10.053155852355957,10.413810227355956,10.071305852355957,10.329430227355957,10.099615852355956C10.233830227355957,10.128985852355957,10.140910227355956,10.167445852355957,10.052250227355957,10.213375852355957C9.963720227355957,10.259735852355957,9.879380227355957,10.313695852355957,9.800180227355957,10.374655852355957C9.721060227355958,10.436155852355958,9.647440227355958,10.504415852355958,9.580150227355958,10.578665852355957C9.513270227355957,10.653005852355957,9.453050227355957,10.733065852355956,9.400170227355957,10.817925852355957C9.347830227355956,10.902845852355956,7.874378227355957,14.377995852355957,7.306677227355957,15.978045852355956C6.738977227355957,17.578115852355957,6.965415527355957,20.512815852355956,9.155040227355958,22.706715852355956C11.477110227355958,25.028815852355958,14.838990227355957,25.55911585235596,16.983220227355957,23.950015852355957C17.005650227355957,23.938815852355958,17.028080227355957,23.92651585235596,17.049400227355957,23.91421585235596C17.071300227355955,23.901915852355955,17.092700227355955,23.888615852355958,17.113500227355956,23.87471585235596C17.134900227355956,23.861315852355958,17.155200227355955,23.846915852355956,17.175500227355958,23.83201585235596C17.195800227355956,23.817515852355957,17.215500227355957,23.802015852355957,17.234800227355954,23.786015852355956C17.234800227355954,23.786015852355956,23.842600227355955,18.268115852355955,23.842600227355955,18.268115852355955C24.163600227355957,18.002715852355955,24.63840022735596,17.456315852355957,24.212200227355957,16.832545852355956C23.796200227355957,16.224245852355956,23.007900227355957,16.638145852355954,22.686400227355957,16.843715852355956C22.686400227355957,16.843715852355956,18.883400227355956,19.609115852355956,18.883400227355956,19.609115852355956C18.865800227355955,19.623515852355958,18.844900227355957,19.634815852355956,18.823000227355955,19.641215852355955C18.800600227355957,19.647615852355955,18.777600227355958,19.649715852355957,18.754700227355958,19.647015852355956C18.731700227355958,19.644415852355955,18.709300227355957,19.636915852355955,18.689500227355957,19.62571585235596C18.669200227355958,19.614515852355957,18.651600227355956,19.599015852355958,18.637700227355957,19.58031585235596C18.541100227355955,19.461715852355958,18.524000227355955,19.147215852355956,18.675600227355957,19.022715852355958C18.675600227355957,19.022715852355958,24.505400227355956,14.075175852355958,24.505400227355956,14.075175852355958C25.00900022735596,13.621755852355957,25.07900022735596,12.962195852355958,24.670900227355958,12.510375852355956C24.273100227355958,12.067635852355956,23.640700227355957,12.080985852355958,23.132900227355957,12.538675852355958C23.132900227355957,12.538675852355958,17.884200227355954,16.641885852355955,17.884200227355954,16.641885852355955C17.859600227355955,16.662175852355958,17.831300227355957,16.677135852355956,17.800900227355957,16.685675852355956C17.770400227355957,16.694225852355956,17.738400227355957,16.696895852355958,17.70690022735596,16.69262585235596C17.675400227355958,16.68834585235596,17.645400227355957,16.67820585235596,17.618200227355956,16.661645852355957C17.591000227355956,16.645625852355955,17.56690022735596,16.624255852355958,17.548800227355954,16.59862585235596C17.445200227355958,16.482195852355957,17.40510022735596,16.28406585235596,17.522100227355956,16.167635852355957C17.522100227355956,16.167635852355957,23.466100227355955,10.399225852355958,23.466100227355955,10.399225852355958C23.577700227355958,10.295085852355957,23.668000227355957,10.170115852355957,23.731000227355956,10.031785852355958C23.79400022735596,9.892935852355958,23.829800227355957,9.742865852355957,23.83510022735596,9.590655852355956C23.840500227355957,9.438445852355958,23.815900227355957,9.286235852355958,23.762500227355957,9.143645852355958C23.709100227355957,9.000515852355957,23.628500227355957,8.869665852355958,23.524900227355957,8.758045852355957C23.473100227355957,8.703045852355958,23.415400227355956,8.653905852355956,23.354000227355957,8.611185852355957C23.292100227355956,8.568205852355957,23.226100227355957,8.531525852355957,23.15690022735596,8.501695852355956C23.087500227355957,8.472325852355958,23.015400227355958,8.449895852355958,22.94170022735596,8.434405852355956C22.868000227355957,8.419455852355958,22.792700227355958,8.411975852355956,22.71740022735596,8.412515852355957C22.640500227355957,8.411445852355957,22.563600227355955,8.417855852355958,22.488300227355957,8.432275852355957C22.33680022735596,8.460005852355957,22.192400227355957,8.517355852355957,22.063100227355957,8.601035852355958C21.998500227355954,8.642695852355956,21.938200227355956,8.690755852355958,21.882600227355958,8.744165852355957C21.882600227355958,8.744165852355957,15.808830227355957,14.449555852355957,15.808830227355957,14.449555852355957C15.663570227355956,14.594825852355957,15.379450227355957,14.449555852355957,15.344740227355958,14.279725852355957C15.341530227355957,14.264775852355957,15.340470227355958,14.249285852355957,15.341000227355957,14.233795852355957C15.341530227355957,14.218305852355957,15.344200227355957,14.202815852355958,15.349010227355958,14.188405852355956C15.353280227355958,14.173445852355957,15.359690227355957,14.159025852355956,15.367700227355957,14.146205852355957C15.375710227355958,14.132855852355956,15.385330227355958,14.120575852355957,15.396540227355956,14.109895852355958C15.396540227355956,14.109895852355958,20.04550022735596,8.816265852355958,20.04550022735596,8.816265852355958C20.15810022735596,8.711595852355957,20.24840022735596,8.585265852355956,20.311000227355954,8.444855852355957C20.373500227355954,8.304455852355957,20.407100227355958,8.152855852355957,20.409700227355955,7.999145852355957C20.41560022735596,7.688855852355957,20.294900227355956,7.389245852355957,20.07590022735596,7.169746852355957C19.856400227355955,6.949712852355957,19.557400227355956,6.8279463723559575,19.247100227355958,6.832752942355957C18.93680022735596,6.837559512355957,18.641500227355955,6.967870852355957,18.428900227355957,7.194313852355957C18.428900227355957,7.194313852355957,11.378850227355958,14.988955852355957,11.378850227355958,14.988955852355957C11.126240227355957,15.241575852355957,10.754000227355958,15.254385852355957,10.576690227355957,15.107525852355957C10.549460227355958,15.086155852355956,10.527030227355958,15.059455852355956,10.510470227355956,15.029545852355957C10.493380227355956,14.999645852355957,10.482700227355958,14.966525852355957,10.478430227355958,14.932345852355956C10.474160227355958,14.897635852355958,10.476830227355958,14.862925852355957,10.485910227355957,14.829805852355957C10.494980227355956,14.796695852355956,10.510470227355956,14.765185852355957,10.531300227355956,14.737945852355956Z" fill="#FFFFFF" fill-opacity="1"/></g></g></svg>