<svg xmlns="http://www.w3.org/2000/svg" xmlns:xlink="http://www.w3.org/1999/xlink" fill="none" version="1.1" width="59.999996185302734" height="59.999996185302734" viewBox="0 0 59.999996185302734 59.999996185302734"><defs><clipPath id="master_svg0_0_10965"><rect x="0" y="0" width="59.999996185302734" height="59.999996185302734" rx="0"/></clipPath></defs><g clip-path="url(#master_svg0_0_10965)"><g><ellipse cx="29.99999761581421" cy="29.99999761581421" rx="21.999998092651367" ry="21.999998092651367" fill="#FFFFFF" fill-opacity="1"/></g><g><g><path d="M42.799716413497926,29.93288376858942C42.79911641349793,29.74928376858942,42.79481641349793,29.56668376858942,42.786616413497924,29.38498376858942C42.786616413497924,29.38498376858942,42.786616413497924,19.02578376858942,42.786616413497924,19.02578376858942C42.786616413497924,19.02578376858942,39.92281641349793,21.88967376858942,39.92281641349793,21.88967376858942C37.57891641349792,19.02060376858942,34.013316413497925,17.188083768589422,30.019516413497925,17.188083768589422C25.863246413497926,17.188083768589422,22.170836413497923,19.172003768589423,19.836716413497925,22.24442376858942C19.836716413497925,22.24442376858942,24.530856413497926,26.988073768589423,24.530856413497926,26.988073768589423C24.990886413497925,26.13726376858942,25.644406413497926,25.406503768589424,26.432376413497924,24.85457376858942C27.251896413497924,24.215023768589422,28.413076413497926,23.692113768589422,30.019316413497926,23.692113768589422C30.213416413497924,23.692113768589422,30.363216413497923,23.71478376858942,30.473216413497923,23.757503768589423C32.463416413497924,23.914593768589423,34.18851641349792,25.012953768589423,35.204216413497925,26.607143768589424C35.204216413497925,26.607143768589424,31.881516413497927,29.929983768589423,31.881516413497927,29.929983768589423C36.090116413497924,29.913483768589423,40.844616413497924,29.90378376858942,42.79931641349792,29.932083768589422" fill="#1C3AA9" fill-opacity="1"/></g><g><path d="M29.94420251789093,17.188669706054498C29.76060251789093,17.189279234054496,29.57810251789093,17.193515476054497,29.39640251789093,17.201744106054498C29.39640251789093,17.201744106054498,19.03744251789093,17.201744106054498,19.03744251789093,17.201744106054498C19.03744251789093,17.201744106054498,21.90126251789093,20.065639706054498,21.90126251789093,20.065639706054498C19.03226251789093,22.409579706054497,17.19980251789093,25.9753197060545,17.19980251789093,29.969269706054497C17.19980251789093,34.1255697060545,19.18370251789093,37.8181697060545,22.25599251789093,40.1523697060545C22.25599251789093,40.1523697060545,26.999512517890928,35.4580697060545,26.999512517890928,35.4580697060545C26.14872251789093,34.9979697060545,25.41798251789093,34.3444697060545,24.86607251789093,33.5564697060545C24.22657251789093,32.736969706054495,23.70364251789093,31.575669706054498,23.70364251789093,29.969369706054497C23.70364251789093,29.775369706054498,23.726312517890932,29.6255697060545,23.76903251789093,29.515469706054496C23.926112517890928,27.525269706054498,25.02444251789093,25.800139706054498,26.61859251789093,24.7843597060545C26.61859251789093,24.7843597060545,29.941302517890932,28.1071697060545,29.941302517890932,28.1071697060545C29.92480251789093,23.898409706054498,29.91510251789093,19.1437897060545,29.94350251789093,17.1890353380545" fill="#4285F4" fill-opacity="1"/></g><g><path d="M17.200779080332723,29.96874713897705C17.201388590332723,30.152312138977052,17.20562471033272,30.334890138977052,17.213853080332722,30.51659013897705C17.213853080332722,30.51659013897705,17.213853080332722,40.87584713897705,17.213853080332722,40.87584713897705C17.213853080332722,40.87584713897705,20.077669080332722,38.01192713897705,20.077669080332722,38.01192713897705C22.42153908033272,40.88104713897705,25.987179080332723,42.71354713897705,29.980979080332723,42.71354713897705C34.13727908033272,42.71354713897705,37.829679080332724,40.729547138977054,40.16377908033272,37.65717713897705C40.16377908033272,37.65717713897705,35.469679080332725,32.91352713897705,35.469679080332725,32.91352713897705C35.00957908033273,33.76433713897705,34.35607908033272,34.49509713897705,33.56807908033272,35.04702713897705C32.748579080332725,35.68657713897705,31.587379080332724,36.20948713897705,29.981179080332723,36.20948713897705C29.787079080332724,36.20948713897705,29.637279080332725,36.18681713897705,29.527279080332722,36.14408713897705C27.537079080332724,35.98700713897705,25.811999080332722,34.88864713897705,24.79624908033272,33.29445713897705C24.79624908033272,33.29445713897705,28.11897908033272,29.97161754897705,28.11897908033272,29.97161754897705C23.910329080332723,29.98813573897705,19.15584908033272,29.997827238977052,17.20114528333272,29.96948421597705" fill="#ABABAB" fill-opacity="1"/></g></g></g></svg>