<?xml version="1.0" standalone="no"?>
<!DOCTYPE svg PUBLIC "-//W3C//DTD SVG 20010904//EN"
 "http://www.w3.org/TR/2001/REC-SVG-20010904/DTD/svg10.dtd">
<svg version="1.0" xmlns="http://www.w3.org/2000/svg"
 width="16.000000pt" height="16.000000pt" viewBox="0 0 16.000000 16.000000"
 preserveAspectRatio="xMidYMid meet">

<g transform="translate(0.000000,16.000000) scale(0.100000,-0.100000)"
fill="#000000" stroke="none">
<path d="M20 102 c0 -5 12 -19 27 -33 14 -13 23 -19 19 -12 -3 6 1 13 11 16
11 3 8 5 -9 6 -16 0 -28 6 -28 11 0 6 12 8 28 5 22 -4 24 -4 7 4 -25 12 -55
14 -55 3z"/>
<path d="M95 62 l-19 -27 24 16 c24 16 38 39 23 39 -4 0 -17 -13 -28 -28z"/>
</g>
</svg>
