<svg xmlns="http://www.w3.org/2000/svg" xmlns:xlink="http://www.w3.org/1999/xlink" fill="none" version="1.1" width="30" height="30" viewBox="0 0 30 30"><g><g><g><g><path d="M10,13.5L20,13.5Q20.073700000000002,13.5,20.147,13.50722Q20.220399999999998,13.51445,20.2926,13.52882Q20.3649,13.5432,20.4354,13.564589999999999Q20.5059,13.58598,20.573999999999998,13.61418Q20.6421,13.64238,20.7071,13.67712Q20.772100000000002,13.71186,20.833399999999997,13.7528Q20.8946,13.79374,20.9516,13.84048Q21.0086,13.88723,21.0607,13.93934Q21.1128,13.99145,21.1595,14.04841Q21.2063,14.105373,21.2472,14.166645Q21.2881,14.227916,21.3229,14.292905Q21.357599999999998,14.357894,21.3858,14.425975Q21.414,14.494056,21.4354,14.564573Q21.4568,14.63509,21.4712,14.707365Q21.485599999999998,14.779639,21.492800000000003,14.852974Q21.5,14.9263097,21.5,15Q21.5,15.0736903,21.492800000000003,15.147026Q21.485599999999998,15.220361,21.4712,15.292635Q21.4568,15.36491,21.4354,15.435427Q21.414,15.505944,21.3858,15.574025Q21.357599999999998,15.642106,21.3229,15.707095Q21.2881,15.772084,21.2472,15.833355Q21.2063,15.894627,21.1595,15.95159Q21.1128,16.00855,21.0607,16.06066Q21.0086,16.11277,20.9516,16.15952Q20.8946,16.20626,20.833399999999997,16.2472Q20.772100000000002,16.28814,20.7071,16.32288Q20.6421,16.35762,20.573999999999998,16.38582Q20.5059,16.41402,20.4354,16.43541Q20.3649,16.4568,20.2926,16.47118Q20.220399999999998,16.48555,20.147,16.49278Q20.073700000000002,16.5,20,16.5L10,16.5Q9.9263097,16.5,9.852974,16.49278Q9.779639,16.48555,9.707365,16.47118Q9.63509,16.4568,9.564573,16.43541Q9.494056,16.41402,9.425975,16.38582Q9.357894,16.35762,9.292905,16.32288Q9.227916,16.28814,9.166645,16.2472Q9.105373,16.20626,9.04841,16.15952Q8.99145,16.11277,8.93934,16.06066Q8.88723,16.00855,8.84048,15.95159Q8.79374,15.894627,8.7528,15.833355Q8.71186,15.772084,8.67712,15.707095Q8.64238,15.642106,8.61418,15.574025Q8.58598,15.505944,8.564589999999999,15.435427Q8.5432,15.36491,8.52882,15.292635Q8.51445,15.220361,8.50722,15.147026Q8.5,15.0736903,8.5,15Q8.5,14.9263097,8.50722,14.852974Q8.51445,14.779639,8.52882,14.707365Q8.5432,14.63509,8.564589999999999,14.564573Q8.58598,14.494056,8.61418,14.425975Q8.64238,14.357894,8.67712,14.292905Q8.71186,14.227916,8.7528,14.166645Q8.79374,14.105373,8.84048,14.04841Q8.88723,13.99145,8.93934,13.93934Q8.99145,13.88723,9.04841,13.84048Q9.105373,13.79374,9.166645,13.7528Q9.227916,13.71186,9.292905,13.67712Q9.357894,13.64238,9.425975,13.61418Q9.494056,13.58598,9.564573,13.564589999999999Q9.63509,13.5432,9.707365,13.52882Q9.779639,13.51445,9.852974,13.50722Q9.9263097,13.5,10,13.5Z" fill-rule="evenodd" fill="#A5FEEE" fill-opacity="1"/></g><g><path d="M13.5,10Q13.5,9.9263097,13.50722,9.852974Q13.51445,9.779639,13.52882,9.707365Q13.5432,9.63509,13.564589999999999,9.564573Q13.58598,9.494056,13.61418,9.425975Q13.64238,9.357894,13.67712,9.292905Q13.71186,9.227916,13.7528,9.166645Q13.79374,9.105373,13.84048,9.04841Q13.88723,8.99145,13.93934,8.93934Q13.99145,8.88723,14.04841,8.84048Q14.105373,8.79374,14.166645,8.7528Q14.227916,8.71186,14.292905,8.67712Q14.357894,8.64238,14.425975,8.61418Q14.494056,8.58598,14.564573,8.564589999999999Q14.63509,8.5432,14.707365,8.52882Q14.779639,8.51445,14.852974,8.50722Q14.9263097,8.5,15,8.5Q15.0736903,8.5,15.147026,8.50722Q15.220361,8.51445,15.292635,8.52882Q15.36491,8.5432,15.435427,8.564589999999999Q15.505944,8.58598,15.574025,8.61418Q15.642106,8.64238,15.707095,8.67712Q15.772084,8.71186,15.833355,8.7528Q15.894627,8.79374,15.95159,8.84048Q16.00855,8.88723,16.06066,8.93934Q16.11277,8.99145,16.15952,9.04841Q16.20626,9.105373,16.2472,9.166645Q16.28814,9.227916,16.32288,9.292905Q16.35762,9.357894,16.38582,9.425975Q16.41402,9.494056,16.43541,9.564573Q16.4568,9.63509,16.47118,9.707365Q16.48555,9.779639,16.49278,9.852974Q16.5,9.9263097,16.5,10L16.5,20Q16.5,20.073700000000002,16.49278,20.147Q16.48555,20.220399999999998,16.47118,20.2926Q16.4568,20.3649,16.43541,20.4354Q16.41402,20.5059,16.38582,20.573999999999998Q16.35762,20.6421,16.32288,20.7071Q16.28814,20.772100000000002,16.2472,20.833399999999997Q16.20626,20.8946,16.15952,20.9516Q16.11277,21.0086,16.06066,21.0607Q16.00855,21.1128,15.95159,21.1595Q15.894627,21.2063,15.833355,21.2472Q15.772084,21.2881,15.707095,21.3229Q15.642106,21.357599999999998,15.574025,21.3858Q15.505944,21.414,15.435427,21.4354Q15.36491,21.4568,15.292635,21.4712Q15.220361,21.485599999999998,15.147026,21.492800000000003Q15.0736903,21.5,15,21.5Q14.9263097,21.5,14.852974,21.492800000000003Q14.779639,21.485599999999998,14.707365,21.4712Q14.63509,21.4568,14.564573,21.4354Q14.494056,21.414,14.425975,21.3858Q14.357894,21.357599999999998,14.292905,21.3229Q14.227916,21.2881,14.166645,21.2472Q14.105373,21.2063,14.04841,21.1595Q13.99145,21.1128,13.93934,21.0607Q13.88723,21.0086,13.84048,20.9516Q13.79374,20.8946,13.7528,20.833399999999997Q13.71186,20.772100000000002,13.67712,20.7071Q13.64238,20.6421,13.61418,20.573999999999998Q13.58598,20.5059,13.564589999999999,20.4354Q13.5432,20.3649,13.52882,20.2926Q13.51445,20.220399999999998,13.50722,20.147Q13.5,20.073700000000002,13.5,20L13.5,10Z" fill-rule="evenodd" fill="#A5FEEE" fill-opacity="1"/></g><g><path d="M1,11.25L1,18.75Q1,29,11.25,29L18.75,29Q29,29,29,18.75L29,11.25Q29,1,18.75,1L11.25,1Q1,1,1,11.25ZM5.59191,24.4081Q4,22.8162,4,18.75L4,11.25Q4,7.18382,5.59191,5.59191Q7.18382,4,11.25,4L18.75,4Q22.8162,4,24.4081,5.59191Q26,7.18382,26,11.25L26,18.75Q26,22.8162,24.4081,24.4081Q22.8162,26,18.75,26L11.25,26Q7.18382,26,5.59191,24.4081Z" fill-rule="evenodd" fill="#A5FEEE" fill-opacity="1"/></g></g></g></g></svg>