<svg xmlns="http://www.w3.org/2000/svg" xmlns:xlink="http://www.w3.org/1999/xlink" fill="none" version="1.1" width="24" height="24" viewBox="0 0 24 24"><g><g><g><path d="M15.5696,8.430393Q14.1392,7,11.1,7L6.9,7.000001Q3.8607899999999997,7.000001,2.430393,8.430393Q1,9.86079,1,12.9L1,17.1Q1,20.139200000000002,2.430393,21.5696Q3.8607899999999997,23,6.9,23L11.1,23Q14.1392,23,15.5696,21.5696Q17,20.139200000000002,17,17.1L17,12.9Q17,9.86078,15.5696,8.430393ZM6.9,9L11.1,9Q13.3108,9,14.1554,9.84461Q15,10.68921,15,12.9L15,17.1Q15,19.3108,14.1554,20.1554Q13.3108,21,11.1,21L6.9,21Q4.68921,21,3.8446100000000003,20.1554Q3,19.3108,3,17.1L3,12.9Q3,10.68921,3.8446100000000003,9.84461Q4.68921,9,6.9,9Z" fill-rule="evenodd" fill="#FFFFFF" fill-opacity="1"/></g><g><path d="M21.5696,2.430393Q20.139200000000002,1,17.1,1L12.9,1Q9.86079,1,8.430393,2.430393Q7,3.8607899999999997,7,6.9L7,8Q7,8.09849,7.019215,8.19509Q7.03843,8.29169,7.076121,8.38268Q7.113812,8.47368,7.16853,8.55557Q7.223249,8.63746,7.292893,8.70711Q7.362537,8.77675,7.44443,8.83147Q7.526322,8.88619,7.617317,8.92388Q7.708311,8.96157,7.80491,8.98078Q7.9015086,9,8,9L11.1,9Q13.31079,9,14.15539,9.84461Q15,10.68921,15,12.9L15,16Q15,16.0985,15.019210000000001,16.1951Q15.03843,16.2917,15.07612,16.3827Q15.11381,16.4737,15.16853,16.5556Q15.22325,16.6375,15.29289,16.7071Q15.36254,16.776699999999998,15.44443,16.8315Q15.52632,16.886200000000002,15.61732,16.9239Q15.70831,16.9616,15.80491,16.980800000000002Q15.90151,17,16,17L17.1,17Q20.139200000000002,17,21.5696,15.5696Q23,14.1392,23,11.1L23,6.9Q23,3.86078,21.5696,2.430393ZM12.9,3L17.1,3Q19.3108,3,20.1554,3.8446100000000003Q21,4.68921,21,6.9L21,11.1Q21,13.3108,20.1554,14.1554Q19.3108,15,17.1,15L17,15L17,12.9Q17,9.86078,15.56961,8.43039Q14.13921,7,11.1,7L9,7L9,6.9Q9,4.68921,9.84461,3.8446100000000003Q10.68921,3,12.9,3Z" fill-rule="evenodd" fill="#FFFFFF" fill-opacity="1"/></g></g></g></svg>