<svg xmlns="http://www.w3.org/2000/svg" xmlns:xlink="http://www.w3.org/1999/xlink" fill="none" version="1.1" width="24" height="24" viewBox="0 0 24 24"><defs><clipPath id="master_svg0_0_12696"><rect x="0" y="0" width="24" height="24" rx="12"/></clipPath></defs><g clip-path="url(#master_svg0_0_12696)"><g><ellipse cx="11.999998092651367" cy="11.999998092651367" rx="21.999998092651367" ry="21.999998092651367" fill="#FFFFFF" fill-opacity="1"/></g><g><g><path d="M18.982277963447572,11.96340875C18.981877963447573,11.86327875,18.97957796344757,11.76369875,18.97507796344757,11.66458875C18.97507796344757,11.66458875,18.97507796344757,6.0140987500000005,18.97507796344757,6.0140987500000005C18.97507796344757,6.0140987500000005,17.41307796344757,7.57622875,17.41307796344757,7.57622875C16.13455796344757,6.01127275,14.18966796344757,5.01171875,12.01122796344757,5.01171875C9.744177963447571,5.01171875,7.730137963447571,6.09385875,6.456977963447571,7.76971875C6.456977963447571,7.76971875,9.01741796344757,10.35716875,9.01741796344757,10.35716875C9.268347963447571,9.89308875,9.624807963447571,9.49448875,10.054607963447571,9.19343875C10.501617963447572,8.84459875,11.134987963447571,8.55936875,12.01113796344757,8.55936875C12.11698796344757,8.55936875,12.19867796344757,8.57173875,12.25870796344757,8.59503875C13.344257963447571,8.68071875,14.285217963447572,9.27982875,14.83925796344757,10.14938875C14.83925796344757,10.14938875,13.026857963447572,11.96184875,13.026857963447572,11.96184875C15.32249796344757,11.95283875,17.91587796344757,11.94754875,18.982077963447573,11.96300875" fill="#1C3AA9" fill-opacity="1"/></g><g><path d="M11.9700446875,5.012038469314575C11.8699246875,5.012370939314575,11.7703346875,5.014681619314575,11.6712346875,5.019169959314575C11.6712346875,5.019169959314575,6.0209046875,5.019169959314575,6.0209046875,5.019169959314575C6.0209046875,5.019169959314575,7.5829846875,6.581298469314575,7.5829846875,6.581298469314575C6.0180796875,7.859808469314576,5.0185546875,9.804758469314574,5.0185546875,11.983258469314574C5.0185546875,14.250368469314575,6.1006746875,16.264438469314577,7.7764746875,17.537638469314576C7.7764746875,17.537638469314576,10.3638546875,14.977148469314574,10.3638546875,14.977148469314574C9.8997846875,14.726218469314576,9.5011946875,14.369748469314576,9.2001546875,13.939928469314575C8.8513346875,13.492908469314575,8.566104687500001,12.859518469314576,8.566104687500001,11.983348469314574C8.566104687500001,11.877498469314574,8.5784746875,11.795798469314576,8.6017746875,11.735768469314575C8.6874546875,10.650188469314575,9.286544687500001,9.709208469314575,10.1560746875,9.155138469314576C10.1560746875,9.155138469314576,11.9684846875,10.967598469314575,11.9684846875,10.967598469314575C11.9594746875,8.671898469314575,11.9541746875,6.078468469314576,11.9696446875,5.012237905314575" fill="#4285F4" fill-opacity="1"/></g><g><path d="M5.01953125,11.98291015625C5.01986371,12.08303715625,5.02217432,12.18262515625,5.02666254,12.28173415625C5.02666254,12.28173415625,5.02666254,17.93222015625,5.02666254,17.93222015625C5.02666254,17.93222015625,6.58874125,16.37010015625,6.58874125,16.37010015625C7.86722125,17.93505015625,9.812111250000001,18.93460015625,11.990561249999999,18.93460015625C14.25760125,18.93460015625,16.27163125,17.85246015625,17.54483125,16.17660015625C17.54483125,16.17660015625,14.98436125,13.58915015625,14.98436125,13.58915015625C14.73343125,14.05323015625,14.37697125,14.45183015625,13.94717125,14.75288015625C13.50016125,15.10173015625,12.86679125,15.38695015625,11.99064125,15.38695015625C11.88479125,15.38695015625,11.803101250000001,15.37458015625,11.74307125,15.35128015625C10.65752125,15.26560015625,9.71656125,14.66649015625,9.162521250000001,13.79693015625C9.162521250000001,13.79693015625,10.974921250000001,11.98447583625,10.974921250000001,11.98447583625C8.679281249999999,11.99348575625,6.08593125,11.99877205625,5.019730997,11.98331219825" fill="#ABABAB" fill-opacity="1"/></g></g></g></svg>