<svg xmlns="http://www.w3.org/2000/svg" xmlns:xlink="http://www.w3.org/1999/xlink" fill="none" version="1.1" width="24" height="24" viewBox="0 0 24 24"><g><g><g><g><path d="M20.166633373069764,5.186233373069763Q19.858933373069764,4.899213373069763,19.516733373069762,4.613773373069764Q16.183733373069764,1.8333343730697633,12.000003373069763,1.8333333730697632Q7.768803373069763,1.8333333730697632,4.797333373069764,4.813043373069763Q1.8337353730697632,7.784843373069763,1.8333343730697633,11.998863373069764L1.8333343730697633,12.000003373069763Q1.8333343730697633,12.098493373069763,1.8525483730697632,12.195093373069763Q1.8717633730697631,12.291683373069763,1.9094543730697633,12.382683373069764Q1.9471453730697632,12.473673373069763,2.001864373069763,12.555563373069763Q2.0565833730697634,12.637463373069764,2.126226373069763,12.707103373069764Q2.1958703730697633,12.776743373069763,2.2777633730697633,12.831463373069763Q2.359655373069763,12.886233373069762,2.450650373069763,12.923833373069764Q2.5416443730697633,12.961533373069763,2.638243373069763,12.980833373069764Q2.7348419730697633,13.000033373069764,2.833333373069763,13.000033373069764Q2.931824773069763,13.000033373069764,3.028423373069763,12.980833373069764Q3.125022373069763,12.961533373069763,3.2160163730697633,12.923833373069764Q3.3070113730697632,12.886233373069762,3.388903373069763,12.831463373069763Q3.470796373069763,12.776743373069763,3.5404403730697633,12.707103373069764Q3.610084373069763,12.637463373069764,3.664803373069763,12.555563373069763Q3.719521373069763,12.473673373069763,3.757212373069763,12.382683373069764Q3.794903373069763,12.291683373069763,3.814118373069763,12.195093373069763Q3.833333373069763,12.098493373069763,3.833333373069763,12.000003373069763Q3.833333373069763,8.612053373069763,6.213503373069763,6.225293373069763Q8.598853373069764,3.833333373069763,12.000003373069763,3.833333373069763Q15.459033373069763,3.833333373069763,18.235533373069764,6.149553373069763Q18.705833373069765,6.541863373069763,19.094433373069762,6.930003373069763L17.096633373069764,6.930003373069763Q16.998133373069763,6.930003373069763,16.90153337306976,6.949213373069763Q16.804933373069765,6.968433373069764,16.713933373069764,7.006123373069763Q16.623033373069763,7.043813373069763,16.541133373069762,7.098533373069763Q16.459233373069765,7.153253373069763,16.389533373069764,7.2228933730697635Q16.319933373069762,7.292533373069763,16.265233373069762,7.374433373069763Q16.210433373069762,7.456323373069763,16.172833373069764,7.5473133730697635Q16.135133373069763,7.638313373069763,16.115833373069762,7.734913373069763Q16.096633373069764,7.831503373069763,16.096633373069764,7.930003373069763Q16.096633373069764,8.028493373069763,16.115833373069762,8.125093373069763Q16.135133373069763,8.221683373069762,16.172833373069764,8.312683373069763Q16.210433373069762,8.403673373069763,16.265233373069762,8.485573373069762Q16.319933373069762,8.567463373069764,16.389533373069764,8.637103373069763Q16.459233373069765,8.706753373069763,16.541133373069762,8.761463373069763Q16.623033373069763,8.816183373069762,16.713933373069764,8.853883373069763Q16.804933373069765,8.891573373069763,16.90153337306976,8.910783373069762Q16.998133373069763,8.930003373069763,17.096633373069764,8.930003373069763L21.166633373069764,8.930003373069763Q21.265133373069762,8.930003373069763,21.361733373069764,8.910783373069762Q21.458333373069763,8.891573373069763,21.549333373069764,8.853873373069764Q21.640333373069762,8.816183373069762,21.722233373069763,8.761463373069763Q21.804133373069764,8.706753373069763,21.873733373069765,8.637103373069763Q21.943433373069762,8.567463373069764,21.998133373069763,8.485573373069762Q22.052833373069763,8.403673373069763,22.090533373069764,8.312683373069763Q22.12823337306976,8.221683373069762,22.147433373069763,8.125093373069763Q22.166633373069764,8.028493373069763,22.166633373069764,7.930003373069763L22.166633373069764,3.3466663730697634Q22.166633373069764,3.2481753730697633,22.147433373069763,3.151576373069763Q22.12823337306976,3.054977373069763,22.090533373069764,2.9639833730697633Q22.052833373069763,2.8729889730697633,21.998133373069763,2.791096373069763Q21.943433373069762,2.709203373069763,21.873733373069765,2.6395593730697633Q21.804133373069764,2.569916373069763,21.722233373069763,2.515197373069763Q21.640333373069762,2.4604783730697632,21.549333373069764,2.422787373069763Q21.458333373069763,2.3850963730697634,21.361733373069764,2.3658813730697634Q21.265133373069762,2.346666373069763,21.166633373069764,2.346666373069763Q21.068133373069763,2.346666373069763,20.971533373069764,2.3658813730697634Q20.874933373069762,2.3850963730697634,20.783933373069765,2.422787373069763Q20.693033373069763,2.4604783730697632,20.611133373069762,2.515197373069763Q20.529233373069765,2.569916373069763,20.459533373069764,2.639560373069763Q20.389933373069763,2.709203373069763,20.335233373069762,2.7910964730697634Q20.280433373069762,2.872989073069763,20.242833373069764,2.9639833730697633Q20.205133373069764,3.054977373069763,20.185833373069762,3.151576373069763Q20.166633373069764,3.2481753730697633,20.166633373069764,3.3466663730697634L20.166633373069764,5.186233373069763ZM20.166633373069764,12.000003373069763Q20.166633373069764,11.901503373069763,20.185833373069762,11.804903373069763Q20.205133373069764,11.708313373069764,20.242833373069764,11.617313373069763Q20.280433373069762,11.526323373069763,20.335233373069762,11.444423373069764Q20.389933373069763,11.362533373069763,20.459533373069764,11.292893373069763Q20.529233373069765,11.223243373069764,20.611133373069762,11.168533373069764Q20.693033373069763,11.113813373069764,20.783933373069765,11.076123373069763Q20.874933373069762,11.038433373069763,20.971533373069764,11.019213373069762Q21.068133373069763,11.000003373069763,21.166633373069764,11.000003373069763Q21.265133373069762,11.000003373069763,21.361733373069764,11.019213373069762Q21.458333373069763,11.038433373069763,21.549333373069764,11.076123373069763Q21.640333373069762,11.113813373069764,21.722233373069763,11.168533373069764Q21.804133373069764,11.223243373069764,21.873733373069765,11.292893373069763Q21.943433373069762,11.362533373069763,21.998133373069763,11.444423373069764Q22.052833373069763,11.526323373069763,22.090533373069764,11.617313373069763Q22.12823337306976,11.708313373069764,22.147433373069763,11.804903373069763Q22.166633373069764,11.901503373069763,22.166633373069764,12.000003373069763Q22.166633373069764,16.209233373069765,19.187933373069765,19.187933373069765Q16.209233373069765,22.166633373069764,12.000003373069763,22.166633373069764Q8.451543373069764,22.166633373069764,5.3560833730697635,19.359033373069764Q5.093443373069763,19.120833373069765,4.850833373069763,18.881733373069764L4.850833373069763,20.653333373069763Q4.850833373069763,20.751833373069765,4.8316133730697635,20.848433373069764Q4.812403373069763,20.945033373069762,4.774713373069764,21.036033373069763Q4.737023373069763,21.127033373069764,4.682303373069763,21.208933373069762Q4.627583373069763,21.290833373069763,4.557943373069763,21.360433373069764Q4.488293373069763,21.43003337306976,4.406403373069763,21.484833373069762Q4.324513373069763,21.539533373069762,4.233513373069763,21.577233373069763Q4.142523373069763,21.614933373069764,4.045923373069764,21.634133373069762Q3.949323373069763,21.653333373069763,3.8508333730697633,21.653333373069763Q3.752341373069763,21.653333373069763,3.6557433730697633,21.634133373069762Q3.5591443730697634,21.614933373069764,3.468149373069763,21.577233373069763Q3.377155373069763,21.539533373069762,3.2952633730697634,21.484833373069762Q3.2133703730697634,21.43003337306976,3.143726373069763,21.360433373069764Q3.0740823730697633,21.290833373069763,3.0193633730697633,21.208933373069762Q2.9646443730697634,21.127033373069764,2.926953673069763,21.036033373069763Q2.889262573069763,20.945033373069762,2.870047873069763,20.848433373069764Q2.850833173069763,20.751833373069765,2.850833173069763,20.653333373069763L2.850833173069763,16.070033373069762Q2.850833173069763,15.971533373069763,2.870047873069763,15.874933373069764Q2.889262573069763,15.778333373069763,2.9269535730697633,15.687333373069762Q2.9646443730697634,15.596333373069763,3.0193633730697633,15.514433373069764Q3.0740823730697633,15.432533373069763,3.143726373069763,15.362933373069763Q3.2133703730697634,15.293233373069762,3.2952633730697634,15.238533373069764Q3.377155373069763,15.183833373069763,3.468149373069763,15.146133373069762Q3.5591433730697632,15.108433373069763,3.6557433730697633,15.089233373069764Q3.752341373069763,15.070033373069764,3.8508333730697633,15.070033373069764L7.994163373069763,15.070033373069764Q8.092653373069762,15.070033373069764,8.189253373069764,15.089233373069764Q8.285853373069763,15.108433373069763,8.376853373069764,15.146133373069762Q8.467843373069762,15.183833373069763,8.549733373069763,15.238533373069764Q8.631633373069764,15.293233373069762,8.701273373069764,15.362933373069763Q8.770913373069764,15.432533373069763,8.825633373069763,15.514433373069764Q8.880353373069763,15.596333373069763,8.918043373069764,15.687333373069762Q8.955733373069762,15.778333373069763,8.974953373069763,15.874933373069764Q8.994163373069764,15.971533373069763,8.994163373069764,16.070033373069762Q8.994163373069764,16.168533373069764,8.974953373069763,16.265133373069766Q8.955733373069762,16.36173337306976,8.918043373069764,16.452633373069766Q8.880353373069763,16.543633373069763,8.825633373069763,16.625533373069764Q8.770913373069764,16.70743337306976,8.701273373069764,16.777133373069763Q8.631633373069764,16.846733373069764,8.549733373069763,16.901433373069764Q8.467843373069762,16.956233373069765,8.376853373069764,16.993833373069762Q8.285853373069763,17.031533373069763,8.189253373069764,17.050833373069764Q8.092653373069762,17.070033373069762,7.994163373069763,17.070033373069762L5.8771033730697635,17.070033373069762Q6.252783373069763,17.472233373069763,6.699743373069763,17.877633373069763Q9.223453373069763,20.166633373069764,12.000003373069763,20.166633373069764Q15.380733373069763,20.166633373069764,17.773733373069764,17.773733373069764Q20.166633373069764,15.380833373069763,20.166633373069764,12.000003373069763Z" fill-rule="evenodd" fill="#FFFFFF" fill-opacity="1"/></g></g></g></g></svg>