<svg xmlns="http://www.w3.org/2000/svg" xmlns:xlink="http://www.w3.org/1999/xlink" fill="none" version="1.1" width="30" height="30" viewBox="0 0 30 30"><g><g><path d="M23.337743762588502,23.296449809265138Q22.6751437625885,24.974949809265137,20.8750437625885,24.974949809265137L9.1250437625885,24.974949809265137Q7.270073762588501,24.974949809265137,6.657723762588501,23.225449809265136L1.485507762588501,8.758309809265135Q0.6245117625885009,6.335849809265136,1.919635762588501,5.363039809265136Q3.213003762588501,4.391549809265136,5.291793762588501,5.884769809265137L10.1648337625885,9.370859809265136Q10.2589137625885,9.435809809265137,10.2878237625885,9.426939809265138Q10.313143762588501,9.419159809265137,10.357953762588501,9.302349809265136L12.554743762588501,3.448319809265137Q13.382443762588501,1.2312498092651367,15.0063437625885,1.2312498092651367Q16.630143762588503,1.2312498092651367,17.4586437625885,3.4503098092651365L19.657843762588502,9.310819809265137Q19.6996437625885,9.419669809265137,19.7246437625885,9.427369809265137Q19.7456437625885,9.433839809265137,19.8435437625885,9.364959809265137L24.4117437625885,6.107269809265136Q26.6186437625885,4.522819809265137,27.9665437625885,5.542039809265137Q29.308643762588503,6.556969809265136,28.4035437625885,9.116709809265137L23.3522437625885,23.25794980926514Q23.345243762588503,23.277349809265136,23.337743762588502,23.296449809265138ZM26.046543762588502,8.283289809265137L21.0078437625885,22.389149809265138Q20.968643762588503,22.474949809265137,20.8750437625885,22.474949809265137L9.1250437625885,22.474949809265137Q9.0437737625885,22.474949809265137,9.017373762588502,22.399549809265135L3.8410437625885008,7.920769809265137L8.7102637625885,11.404149809265137Q9.8331937625885,12.181749809265137,11.021643762588502,11.816849809265136Q12.2111437625885,11.451549809265137,12.6921437625885,10.197649809265137L14.895343762588501,4.326679809265137Q14.950943762588501,4.1778598092651364,15.0063437625885,4.0580898092651365Q15.061343762588502,4.177069809265136,15.1165437625885,4.324689809265137L17.3172437625885,10.189179809265136Q17.800943762588503,11.450349809265136,18.9879437625885,11.816349809265137Q20.180643762588502,12.184149809265136,21.281543762588502,11.410049809265137L25.8633437625885,8.142729809265138Q26.0182437625885,8.031499809265137,26.1555437625885,7.945029809265137Q26.110543762588502,8.102179809265138,26.046543762588502,8.283289809265137ZM18.1250437625885,16.249849809265136L11.8750437625885,16.249849809265136Q11.813643762588502,16.249849809265136,11.752543762588502,16.255849809265136Q11.6914437625885,16.261849809265136,11.6311437625885,16.273849809265137Q11.5709437625885,16.285849809265137,11.5121437625885,16.30364980926514Q11.4534437625885,16.321449809265136,11.396643762588502,16.344949809265138Q11.3399437625885,16.368449809265137,11.2858437625885,16.397449809265137Q11.2316437625885,16.426349809265137,11.180543762588501,16.460449809265135Q11.129523762588502,16.494549809265138,11.082053762588501,16.53354980926514Q11.0345837625885,16.572449809265137,10.991153762588501,16.61594980926514Q10.9477337625885,16.659349809265137,10.9087837625885,16.706849809265137Q10.869823762588501,16.754249809265136,10.835703762588501,16.805349809265138Q10.801583762588502,16.856349809265136,10.772643762588501,16.910549809265135Q10.743693762588501,16.964749809265136,10.7201937625885,17.021449809265135Q10.6966937625885,17.078149809265135,10.6788637625885,17.136949809265136Q10.6610437625885,17.195749809265138,10.6490637625885,17.255949809265136Q10.637083762588501,17.316149809265138,10.631063762588502,17.377249809265138Q10.6250437625885,17.438349809265137,10.6250437625885,17.499849809265136Q10.6250437625885,17.561249809265135,10.631063762588502,17.62234980926514Q10.637083762588501,17.683449809265138,10.6490637625885,17.743649809265136Q10.6610437625885,17.803849809265138,10.6788637625885,17.862649809265136Q10.6966937625885,17.921449809265138,10.7201937625885,17.978149809265137Q10.743693762588501,18.034849809265136,10.772643762588501,18.089049809265138Q10.801583762588502,18.143249809265136,10.835703762588501,18.194249809265138Q10.869823762588501,18.245349809265136,10.9087837625885,18.292749809265135Q10.9477337625885,18.34024980926514,10.991153762588501,18.383649809265137Q11.0345837625885,18.42714980926514,11.082053762588501,18.466049809265137Q11.129523762588502,18.505049809265138,11.180543762588501,18.539149809265137Q11.2316437625885,18.573249809265135,11.2858437625885,18.602249809265135Q11.3399437625885,18.631149809265136,11.396643762588502,18.654649809265138Q11.4534437625885,18.678149809265136,11.5121437625885,18.695949809265137Q11.5709437625885,18.713849809265138,11.6311437625885,18.725749809265135Q11.6914437625885,18.737749809265136,11.752543762588502,18.743749809265136Q11.813643762588502,18.749849809265136,11.8750437625885,18.749849809265136L18.1250437625885,18.749849809265136Q18.1864437625885,18.749849809265136,18.2475437625885,18.743749809265136Q18.308643762588503,18.737749809265136,18.3689437625885,18.725749809265135Q18.429143762588502,18.713849809265138,18.4879437625885,18.695949809265137Q18.546643762588502,18.678149809265136,18.6034437625885,18.654649809265138Q18.6601437625885,18.631149809265136,18.714243762588502,18.602249809265135Q18.7684437625885,18.573249809265135,18.819543762588502,18.539149809265137Q18.8705437625885,18.505049809265138,18.9180437625885,18.466049809265137Q18.9655437625885,18.42714980926514,19.0089437625885,18.383649809265137Q19.0523437625885,18.34024980926514,19.0913437625885,18.292749809265135Q19.130243762588503,18.245349809265136,19.1643437625885,18.194249809265138Q19.1985437625885,18.143249809265136,19.2274437625885,18.089049809265138Q19.2563437625885,18.034849809265136,19.279843762588502,17.978149809265137Q19.3033437625885,17.921449809265138,19.3212437625885,17.862649809265136Q19.3390437625885,17.803849809265138,19.3510437625885,17.743649809265136Q19.3630437625885,17.683449809265138,19.3690437625885,17.62234980926514Q19.3750437625885,17.561249809265135,19.3750437625885,17.499849809265136Q19.3750437625885,17.438349809265137,19.3690437625885,17.377249809265138Q19.3630437625885,17.316149809265138,19.3510437625885,17.255949809265136Q19.3390437625885,17.195749809265138,19.3212437625885,17.136949809265136Q19.3033437625885,17.078149809265135,19.279843762588502,17.021449809265135Q19.2563437625885,16.964749809265136,19.2274437625885,16.910549809265135Q19.1985437625885,16.856449809265136,19.1643437625885,16.805349809265138Q19.130243762588503,16.754249809265136,19.0913437625885,16.706849809265137Q19.0523437625885,16.659349809265137,19.0089437625885,16.61594980926514Q18.9655437625885,16.572449809265137,18.9180437625885,16.53354980926514Q18.8705437625885,16.494549809265138,18.819543762588502,16.460449809265135Q18.7684437625885,16.426349809265137,18.714243762588502,16.397449809265137Q18.6601437625885,16.368449809265137,18.6034437625885,16.344949809265138Q18.546643762588502,16.321449809265136,18.4879437625885,16.30364980926514Q18.429143762588502,16.285849809265137,18.3689437625885,16.273849809265137Q18.308643762588503,16.261849809265136,18.2475437625885,16.255849809265136Q18.1864437625885,16.249849809265136,18.1250437625885,16.249849809265136ZM21.8750437625885,26.249849809265136L8.1250437625885,26.249849809265136Q8.063633762588502,26.249849809265136,8.0025237625885,26.255849809265136Q7.941403762588501,26.261849809265136,7.881173762588501,26.273849809265137Q7.820953762588501,26.285849809265137,7.762183762588501,26.303649809265135Q7.703423762588501,26.321449809265136,7.646683762588501,26.344949809265138Q7.589953762588501,26.368449809265137,7.535793762588501,26.397449809265137Q7.481633762588501,26.426349809265137,7.430583762588501,26.460449809265135Q7.379523762588501,26.494549809265138,7.332053762588501,26.533549809265136Q7.284583762588501,26.572449809265137,7.241153762588501,26.615949809265135Q7.197733762588501,26.659349809265137,7.158783762588501,26.706849809265137Q7.119823762588501,26.754249809265136,7.085703762588501,26.805349809265138Q7.051583762588501,26.856349809265136,7.022643762588501,26.910549809265138Q6.993693762588501,26.964749809265136,6.970193762588501,27.021449809265135Q6.946693762588501,27.07814980926514,6.928863762588501,27.136949809265136Q6.911043762588501,27.195749809265138,6.899063762588501,27.255949809265136Q6.887083762588501,27.316149809265138,6.881063762588501,27.377249809265138Q6.875043762588501,27.438349809265137,6.875043762588501,27.499849809265136Q6.875043762588501,27.561249809265135,6.881063762588501,27.62234980926514Q6.887083762588501,27.683449809265138,6.899063762588501,27.743649809265136Q6.911043762588501,27.803849809265138,6.928863762588501,27.862649809265136Q6.946693762588501,27.921449809265138,6.970193762588501,27.978149809265137Q6.993693762588501,28.034849809265136,7.022643762588501,28.089049809265138Q7.051583762588501,28.143249809265136,7.085703762588501,28.194249809265138Q7.119823762588501,28.245349809265136,7.158773762588501,28.292749809265135Q7.197733762588501,28.34024980926514,7.241153762588501,28.383649809265137Q7.284583762588501,28.42714980926514,7.332053762588501,28.466049809265137Q7.379523762588501,28.505049809265138,7.430583762588501,28.539149809265137Q7.481633762588501,28.573249809265135,7.535793762588501,28.602249809265135Q7.589953762588501,28.631149809265136,7.646683762588501,28.654649809265138Q7.703423762588501,28.678149809265136,7.762183762588501,28.695949809265137Q7.820953762588501,28.713849809265138,7.881183762588501,28.725749809265135Q7.941403762588501,28.737749809265136,8.0025237625885,28.743749809265136Q8.063633762588502,28.749849809265136,8.1250437625885,28.749849809265136L21.8750437625885,28.749849809265136Q21.9364437625885,28.749849809265136,21.9975437625885,28.743749809265136Q22.058643762588503,28.737749809265136,22.1189437625885,28.725749809265135Q22.179143762588502,28.713849809265138,22.2379437625885,28.695949809265137Q22.296643762588502,28.678149809265136,22.3533437625885,28.654649809265138Q22.4101437625885,28.631149809265136,22.464243762588502,28.602249809265135Q22.5184437625885,28.573249809265135,22.569543762588502,28.539149809265137Q22.6205437625885,28.505049809265138,22.6680437625885,28.466049809265137Q22.7155437625885,28.42714980926514,22.7589437625885,28.383649809265137Q22.8023437625885,28.34024980926514,22.8413437625885,28.292749809265135Q22.880243762588503,28.245349809265136,22.9143437625885,28.194249809265138Q22.9485437625885,28.143249809265136,22.9774437625885,28.089049809265138Q23.0063437625885,28.034849809265136,23.029843762588502,27.978149809265137Q23.0533437625885,27.921449809265138,23.0712437625885,27.862649809265136Q23.0890437625885,27.803849809265138,23.1010437625885,27.743649809265136Q23.1130437625885,27.683449809265138,23.1190437625885,27.62234980926514Q23.1250437625885,27.561249809265135,23.1250437625885,27.499849809265136Q23.1250437625885,27.438349809265137,23.1190437625885,27.377249809265138Q23.1130437625885,27.316149809265138,23.1010437625885,27.255949809265136Q23.0890437625885,27.195749809265138,23.0712437625885,27.136949809265136Q23.0533437625885,27.07814980926514,23.029843762588502,27.021449809265135Q23.0063437625885,26.964749809265136,22.9774437625885,26.910549809265138Q22.9485437625885,26.856349809265136,22.9143437625885,26.805349809265138Q22.880243762588503,26.754249809265136,22.8413437625885,26.706849809265137Q22.8023437625885,26.659349809265137,22.7589437625885,26.615949809265135Q22.7155437625885,26.572449809265137,22.6680437625885,26.533549809265136Q22.6205437625885,26.494549809265138,22.569543762588502,26.460449809265135Q22.5184437625885,26.426349809265137,22.464243762588502,26.397449809265137Q22.4101437625885,26.368449809265137,22.3533437625885,26.344949809265138Q22.296643762588502,26.321449809265136,22.2379437625885,26.303649809265135Q22.179143762588502,26.285849809265137,22.1189437625885,26.273849809265137Q22.058643762588503,26.261849809265136,21.9975437625885,26.255849809265136Q21.9364437625885,26.249849809265136,21.8750437625885,26.249849809265136Z" fill-rule="evenodd" fill="#FFD51A" fill-opacity="1"/></g></g></svg>