<svg xmlns="http://www.w3.org/2000/svg" xmlns:xlink="http://www.w3.org/1999/xlink" fill="none" version="1.1" width="45.400390625" height="47.65234375" viewBox="0 0 45.400390625 47.65234375"><g><g><path d="M39.60376366348267,45.310576043701175Q41.945563663482666,42.96877604370117,41.945563663482666,37.37077604370117L41.945563663482666,19.307476043701172Q41.945563663482666,19.246067443701172,41.939563663482666,19.184955043701173Q41.933563663482666,19.12384204370117,41.921563663482665,19.06361304370117Q41.909563663482665,19.003385043701172,41.891763663482664,18.94462004370117Q41.87396366348267,18.88585604370117,41.850463663482664,18.829122043701172Q41.826963663482665,18.77238804370117,41.79796366348267,18.718230043701173Q41.76906366348267,18.664073043701173,41.73486366348266,18.613013043701173Q41.70076366348267,18.56195404370117,41.66186366348266,18.51448404370117Q41.62286366348267,18.46701504370117,41.57946366348266,18.42359304370117Q41.536063663482665,18.38017004370117,41.488563663482665,18.34121304370117Q41.441063663482666,18.30225604370117,41.390063663482664,18.268136043701173Q41.338963663482666,18.23402604370117,41.28486366348267,18.205076043701172Q41.230663663482666,18.17612604370117,41.17396366348267,18.152626043701172Q41.117163663482664,18.12912604370117,41.05846366348267,18.111296043701174Q40.999663663482664,18.093476043701173,40.93946366348266,18.081496043701172Q40.879163663482665,18.06951604370117,40.81806366348267,18.06349604370117Q40.756963663482665,18.057476043701172,40.695563663482666,18.057476043701172L4.569063663482666,18.057476043701172Q4.507655063482666,18.057476043701172,4.446542663482666,18.06349604370117Q4.385429663482666,18.06951604370117,4.325200663482666,18.081496043701172Q4.264972663482666,18.093476043701173,4.206207663482666,18.111296043701174Q4.147443663482666,18.12912604370117,4.090709663482666,18.152626043701172Q4.033975663482666,18.17612604370117,3.979817663482666,18.205076043701172Q3.925660663482666,18.23402604370117,3.874600663482666,18.268136043701173Q3.8235416634826658,18.30225604370117,3.776071663482666,18.34121304370117Q3.728602663482666,18.38017004370117,3.685180663482666,18.42359304370117Q3.6417576634826663,18.46701504370117,3.602800663482666,18.51448404370117Q3.563843663482666,18.56195404370117,3.529723663482666,18.613013043701173Q3.495613663482666,18.664073043701173,3.4666636634826657,18.718230043701173Q3.4377136634826657,18.77238804370117,3.4142136634826663,18.829122043701172Q3.390713663482666,18.88585604370117,3.372883663482666,18.94462004370117Q3.355063663482666,19.003385043701172,3.343083663482666,19.06361304370117Q3.331103663482666,19.12384204370117,3.325083663482666,19.184955043701173Q3.319063663482666,19.246067443701172,3.319063663482666,19.307476043701172L3.319063663482666,37.37077604370117Q3.319063663482666,42.96877604370117,5.660843663482666,45.310576043701175Q8.002633663482666,47.65237604370117,13.600693663482666,47.65237604370117L31.663963663482665,47.65237604370117Q37.26196366348267,47.65237604370117,39.60376366348267,45.310576043701175ZM39.445563663482666,20.557476043701172L39.445563663482666,37.37077604370117Q39.445563663482666,41.93327604370117,37.83606366348267,43.54277604370117Q36.22646366348266,45.15237604370117,31.663963663482665,45.15237604370117L13.600693663482666,45.15237604370117Q9.038173663482667,45.15237604370117,7.4286136634826665,43.54277604370117Q5.819063663482666,41.93327604370117,5.819063663482666,37.37077604370117L5.819063663482666,20.557476043701172L39.445563663482666,20.557476043701172Z" fill-rule="evenodd" fill="#FFFFFF" fill-opacity="1"/></g><g><path d="M44.0789,8.523090606781006Q42.548,6.768319606781006,39.6344,6.768319606781006L5.76581,6.768319606781006Q2.76497,6.768319606781006,1.2608188,8.534327606781005Q0,10.014639606781007,0,12.534129606781006L0,14.792039606781007Q0,17.311529606781008,1.2608185,18.791819606781004Q2.76497,20.557819606781006,5.76581,20.557819606781006L39.6344,20.557819606781006Q42.548,20.557819606781006,44.0789,18.803119606781006Q45.4002,17.288539606781008,45.4002,14.792039606781007L45.4002,12.534129606781006Q45.4002,10.037639606781006,44.0789,8.523090606781006ZM5.76581,9.268319606781006L39.6344,9.268319606781006Q41.4114,9.268319606781006,42.1951,10.166589606781006Q42.9002,10.974879606781005,42.9002,12.534129606781006L42.9002,14.792039606781007Q42.9002,18.057819606781006,39.6344,18.057819606781006L5.76581,18.057819606781006Q3.91955,18.057819606781006,3.16405,17.170819606781006Q2.5,16.391169606781006,2.5,14.792039606781007L2.5,12.534129606781006Q2.5,10.934999606781005,3.16405,10.155349606781005Q3.91955,9.268319606781006,5.76581,9.268319606781006Z" fill-rule="evenodd" fill="#FFFFFF" fill-opacity="1"/></g><g><path d="M30.656132655334474,19.307476043701172Q30.656132655334474,19.246067443701172,30.650132655334474,19.184955043701173Q30.64403265533447,19.12384204370117,30.632132655334473,19.06361304370117Q30.620132655334473,19.003385043701172,30.60233265533447,18.94462004370117Q30.584432655334474,18.88585604370117,30.560932655334472,18.829122043701172Q30.53743265533447,18.77238804370117,30.50853265533447,18.718230043701173Q30.479532655334474,18.664073043701173,30.44543265533447,18.613013043701173Q30.411332655334473,18.56195404370117,30.372332655334475,18.51448404370117Q30.333432655334473,18.46701504370117,30.29003265533447,18.42359304370117Q30.246532655334473,18.38017004370117,30.199132655334473,18.34121304370117Q30.151632655334474,18.30225604370117,30.100532655334472,18.268136043701173Q30.049532655334474,18.23402604370117,29.995332655334472,18.205076043701172Q29.941232655334474,18.17612604370117,29.88443265533447,18.152626043701172Q29.827732655334472,18.12912604370117,29.768932655334474,18.111296043701174Q29.710232655334472,18.093476043701173,29.649932655334474,18.081496043701172Q29.589732655334473,18.06951604370117,29.528632655334473,18.06349604370117Q29.467532655334473,18.057476043701172,29.406132655334474,18.057476043701172L15.790932655334473,18.057476043701172Q15.729524055334473,18.057476043701172,15.668411655334472,18.06349604370117Q15.607298655334473,18.06951604370117,15.547069655334473,18.081496043701172Q15.486841655334473,18.093476043701173,15.428076655334472,18.111296043701174Q15.369312655334472,18.12912604370117,15.312578655334473,18.152626043701172Q15.255844655334473,18.17612604370117,15.201686655334473,18.205076043701172Q15.147529655334473,18.23402604370117,15.096469655334472,18.268136043701173Q15.045410655334473,18.30225604370117,14.997940655334473,18.34121304370117Q14.950471655334473,18.38017004370117,14.907049655334472,18.42359304370117Q14.863626655334473,18.46701504370117,14.824669655334473,18.51448404370117Q14.785712655334473,18.56195404370117,14.751592655334473,18.613013043701173Q14.717482655334473,18.664073043701173,14.688532655334473,18.718230043701173Q14.659582655334473,18.77238804370117,14.636082655334473,18.829122043701172Q14.612582655334473,18.88585604370117,14.594752655334473,18.94462004370117Q14.576932655334472,19.003385043701172,14.564952655334473,19.06361304370117Q14.552972655334473,19.12384204370117,14.546952655334472,19.184955043701173Q14.540932655334473,19.246067443701172,14.540932655334473,19.307476043701172L14.540932655334473,30.913076043701174Q14.540932655334473,33.01157604370117,16.38034765533447,34.003176043701174Q18.209212655334472,34.98917604370117,19.965842655334473,33.86177604370117L22.101362655334473,32.45327604370117Q22.66326265533447,32.08977604370117,23.203442655334474,32.449876043701174L25.207612655334472,33.80107604370117Q26.954332655334472,34.96557604370117,28.802832655334473,33.98067604370117Q30.656132655334474,32.99327604370117,30.656132655334474,30.890576043701174L30.656132655334474,19.307476043701172ZM28.156132655334474,20.557476043701172L17.040932655334473,20.557476043701172L17.040932655334473,30.913076043701174Q17.040932655334473,31.519176043701172,17.56667265533447,31.802576043701173Q18.098752655334472,32.08947604370117,18.615532655334473,31.75777604370117L20.724882655334472,30.366376043701173Q21.619742655334473,29.78727604370117,22.66344265533447,29.78727604370117Q23.71645265533447,29.78727604370117,24.590192655334473,30.369776043701172L26.605132655334472,31.728176043701172Q27.097632655334472,32.056476043701174,27.62733265533447,31.77427604370117Q28.156132655334474,31.49257604370117,28.156132655334474,30.890576043701174L28.156132655334474,20.557476043701172Z" fill-rule="evenodd" fill="#FEDC33" fill-opacity="1"/></g><g><path d="M22.771159378814698,7.13419L16.6296993788147,0.992686Q15.637009378814696,0,14.221729378814697,0Q12.806439378814698,0,11.813759378814698,0.992686L8.607529378814696,4.19891Q7.644069378814697,5.162380000000001,7.615129378814697,6.51524Q7.586239378814698,7.86592,8.503265378814698,8.863859999999999Q8.591078378814696,8.95942,8.696648378814697,9.0349Q8.802219578814697,9.11038,8.921045378814696,9.162569999999999Q9.039871378814697,9.21475,9.166883378814697,9.24142Q9.293895378814698,9.26808,9.423675378814698,9.26808L21.887359378814697,9.26808Q22.010459378814698,9.26808,22.131159378814697,9.244060000000001Q22.251959378814696,9.220040000000001,22.365659378814698,9.172930000000001Q22.479459378814695,9.125810000000001,22.581759378814695,9.05741Q22.684159378814698,8.98901,22.771159378814698,8.901959999999999Q22.814659378814696,8.85854,22.853559378814698,8.81107Q22.892559378814695,8.7636,22.926659378814698,8.71254Q22.960759378814696,8.661480000000001,22.989759378814696,8.60732Q23.018659378814696,8.55316,23.042159378814695,8.49643Q23.065659378814697,8.4397,23.083459378814695,8.38093Q23.1013593788147,8.32217,23.113259378814696,8.26194Q23.125259378814697,8.20171,23.131259378814697,8.1406Q23.137359378814697,8.07948,23.137359378814697,8.018080000000001Q23.137359378814697,7.95667,23.131259378814697,7.89555Q23.125259378814697,7.83444,23.113259378814696,7.77421Q23.1013593788147,7.71398,23.083459378814695,7.65522Q23.065659378814697,7.59646,23.042159378814695,7.53972Q23.018659378814696,7.48299,22.989759378814696,7.42883Q22.960759378814696,7.37467,22.926659378814698,7.32361Q22.892559378814695,7.27255,22.853559378814698,7.22508Q22.814659378814696,7.17762,22.771159378814698,7.13419ZM14.221729378814697,2.5Q14.601479378814698,2.5,14.861929378814697,2.76045L18.8695593788147,6.76808L10.132069378814696,6.76808Q10.112339378814697,6.67234,10.114559378814697,6.5687Q10.122019378814697,6.21996,10.375299378814697,5.96668L13.581519378814697,2.76045Q13.841979378814697,2.5,14.221729378814697,2.5Z" fill-rule="evenodd" fill="#FEDC33" fill-opacity="1"/></g><g><path d="M37.762514483642576,6.51524Q37.733614483642576,5.162380000000001,36.77011448364258,4.19891L33.56391448364258,0.992686Q32.57119448364258,0,31.15590448364258,0Q29.740624483642577,0,28.747934483642577,0.992686L22.60643048364258,7.13419Q22.519376483642578,7.22125,22.45097448364258,7.32361Q22.38257448364258,7.42598,22.33546448364258,7.53972Q22.28835448364258,7.65346,22.26433448364258,7.77421Q22.240314483642578,7.89496,22.240314483642578,8.018080000000001Q22.240314483642578,8.07948,22.246334483642578,8.1406Q22.252354483642577,8.20171,22.26433448364258,8.26194Q22.27631448364258,8.32217,22.29413448364258,8.38093Q22.311964483642576,8.4397,22.33546448364258,8.49643Q22.358964483642577,8.55316,22.38791448364258,8.60732Q22.416864483642577,8.661480000000001,22.45097448364258,8.71254Q22.485094483642577,8.7636,22.524051483642577,8.81107Q22.563008483642577,8.85854,22.606431483642577,8.901959999999999Q22.649853483642577,8.94538,22.697322483642576,8.98434Q22.744792483642577,9.023299999999999,22.79585148364258,9.05741Q22.84691148364258,9.091529999999999,22.90106848364258,9.12048Q22.955226483642576,9.149429999999999,23.01196048364258,9.172930000000001Q23.068694483642577,9.19643,23.127458483642577,9.21425Q23.18622348364258,9.23208,23.246451483642577,9.244060000000001Q23.306680483642577,9.25604,23.36779348364258,9.26206Q23.428905883642578,9.26808,23.490314483642578,9.26808L35.95391448364258,9.26808Q36.08371448364258,9.26808,36.210714483642576,9.24142Q36.337814483642575,9.21475,36.45661448364258,9.162569999999999Q36.575414483642575,9.11038,36.68101448364258,9.0349Q36.78651448364258,8.95942,36.87441448364258,8.863859999999999Q37.791414483642576,7.86591,37.762514483642576,6.51524ZM31.796114483642576,2.76045L35.00231448364258,5.96668Q35.255614483642574,6.21996,35.26311448364258,6.5687Q35.26531448364258,6.67234,35.24551448364258,6.76808L26.508084483642577,6.76808L30.51570448364258,2.76045Q30.77615448364258,2.5,31.15590448364258,2.5Q31.535654483642578,2.5,31.796114483642576,2.76045Z" fill-rule="evenodd" fill="#FEDC33" fill-opacity="1"/></g></g></svg>