<svg xmlns="http://www.w3.org/2000/svg" xmlns:xlink="http://www.w3.org/1999/xlink" fill="none" version="1.1" width="43.199951171875" height="34.533935546875" viewBox="0 0 43.199951171875 34.533935546875"><g><g><path d="M20.5411,21.5942L20.5405,21.5949Q20.4423,21.6985,20.3654,21.8187Q20.2886,21.9389,20.2357,22.0714Q20.1829,22.2039,20.156,22.344Q20.1291,22.4842,20.1291,22.6268Q20.1291,22.7005,20.1364,22.7739Q20.1436,22.8472,20.158,22.9195Q20.1723,22.9917,20.1937,23.0623Q20.2151,23.1328,20.2433,23.2008Q20.2715,23.2689,20.3062,23.3339Q20.341,23.3989,20.3819,23.4602Q20.4229,23.5215,20.4696,23.5784Q20.5164,23.6354,20.5685,23.6875Q20.6206,23.7396,20.6775,23.7863Q20.7345,23.8331,20.7958,23.874Q20.857,23.915,20.922,23.9497Q20.987,23.9844,21.0551,24.0126Q21.1232,24.0408,21.1937,24.0622Q21.2642,24.0836,21.3365,24.098Q21.4088,24.1124,21.4821,24.1196Q21.5554,24.1268,21.6291,24.1268Q21.7819,24.1268,21.9316,24.096Q22.0813,24.0652,22.2217,24.0048Q22.362,23.9445,22.4874,23.857Q22.6127,23.7696,22.7178,23.6587L22.7185,23.658L25.8931,20.3087Q29.1883,16.8387,29.1883,11.9068Q29.1883,6.97495,25.8921,3.50393Q22.5394,0,17.773,0Q13.0033,0,9.67579,3.50393L3.2976,10.20245Q0,13.6749,0,18.6068Q0,23.5387,3.29622,27.0097Q6.22698,30.0921,10.33311,30.4708L10.33404,30.4709L10.33459,30.4709Q10.40323,30.4772,10.47217,30.4772Q10.54586,30.4772,10.61919,30.47Q10.69253,30.4628,10.7648,30.4484Q10.83708,30.434,10.90759,30.4126Q10.97811,30.3913,11.04619,30.3631Q11.11427,30.3349,11.17926,30.3001Q11.24425,30.2654,11.30552,30.2244Q11.36679,30.1835,11.42376,30.1368Q11.48072,30.09,11.5328,30.0379Q11.5849,29.9858,11.6317,29.9288Q11.6784,29.8719,11.7194,29.8106Q11.7603,29.7493,11.795,29.6843Q11.8298,29.6193,11.858,29.5513Q11.8862,29.4832,11.9076,29.4127Q11.929,29.3421,11.9433,29.2699Q11.9577,29.1976,11.9649,29.1243Q11.9722,29.0509,11.9722,28.9772Q11.9722,28.9079,11.9658,28.8388Q11.9594,28.7697,11.9466,28.7015Q11.9339,28.6333,11.9149,28.5666Q11.8959,28.4999,11.8708,28.4352Q11.8457,28.3705,11.8148,28.3084Q11.7839,28.2463,11.7473,28.1873Q11.7108,28.1284,11.669,28.073Q11.6272,28.0176,11.5804,27.9664Q11.5336,27.9151,11.48236,27.8684Q11.43108,27.8217,11.3757,27.7799Q11.32033,27.7381,11.26133,27.7016Q11.20233,27.6651,11.14021,27.6342Q11.0781,27.6033,11.0134,27.5783Q10.9487,27.5533,10.88196,27.5343Q10.81522,27.5154,10.74702,27.5026Q10.67882,27.4899,10.60974,27.4836L10.60962,27.4836L10.60695,27.4833Q7.62398,27.2076,5.47161,24.9439Q3,22.3412,3,18.6068Q3,14.8724,5.47023,12.2712L11.8512,5.56977Q14.2915,3,17.773,3Q21.2578,3,23.7167,5.56977Q26.1883,8.17244,26.1883,11.9068Q26.1883,15.6412,23.7157,18.245L20.5411,21.5942Z" fill-rule="evenodd" fill="#FFFFFF" fill-opacity="1"/></g><g><path d="M32.865423518371585,4.062964916534424Q36.97252351837158,4.441254916534424,39.90382351837158,7.524154916534424Q43.20002351837158,10.995174916534424,43.20002351837158,15.927044916534424Q43.20002351837158,20.858944916534426,39.90242351837158,24.331444916534423L33.524223518371585,31.029944916534422Q30.196723518371584,34.53384491653442,25.42701351837158,34.53384491653442Q20.66060351837158,34.53384491653442,17.30794351837158,31.029944916534422Q14.011723518371582,27.558944916534426,14.011723518371582,22.627044916534423Q14.011723518371582,17.695144916534424,17.30696351837158,14.225154916534423L20.482063518371582,10.875334916534424L20.48221351837158,10.875174916534423Q20.587333518371583,10.764264916534424,20.71266351837158,10.676834916534425Q20.837983518371583,10.589404916534424,20.97836351837158,10.529044916534424Q21.11874351837158,10.468684916534425,21.26841351837158,10.437874916534424Q21.41808351837158,10.407054916534424,21.570893518371584,10.407054916534424Q21.644583518371583,10.407054916534424,21.71791351837158,10.414284916534424Q21.791253518371583,10.421504916534424,21.863523518371583,10.435884916534423Q21.935793518371582,10.450254916534423,22.00631351837158,10.471644916534423Q22.076833518371583,10.493044916534423,22.14491351837158,10.521234916534425Q22.212993518371583,10.549434916534423,22.27798351837158,10.584174916534423Q22.342973518371583,10.618914916534424,22.404243518371583,10.659854916534425Q22.46551351837158,10.700794916534424,22.522473518371584,10.747544916534423Q22.579443518371583,10.794294916534424,22.631553518371582,10.846394916534424Q22.68365351837158,10.898504916534424,22.73040351837158,10.955464916534424Q22.777153518371584,11.012434916534424,22.818093518371583,11.073704916534425Q22.859033518371582,11.134974916534425,22.89377351837158,11.199964916534423Q22.92850351837158,11.264954916534425,22.956703518371583,11.333034916534423Q22.98490351837158,11.401114916534425,23.00630351837158,11.471634916534423Q23.02769351837158,11.542144916534424,23.04206351837158,11.614424916534425Q23.05644351837158,11.686694916534424,23.063663518371584,11.760034916534423Q23.070893518371584,11.833364916534425,23.070893518371584,11.907054916534424Q23.070893518371584,12.049724916534423,23.043993518371582,12.189844916534424Q23.01709351837158,12.329954916534424,22.96426351837158,12.462484916534425Q22.911443518371584,12.595014916534424,22.83457351837158,12.715204916534423Q22.75770351837158,12.835394916534423,22.659563518371584,12.938944916534425L22.659403518371583,12.939114916534423L19.484313518371582,16.288944916534426Q17.011723518371582,18.892644916534422,17.011723518371582,22.627044916534423Q17.011723518371582,26.361444916534424,19.48333351837158,28.964144916534423Q21.94219351837158,31.533844916534424,25.42701351837158,31.533844916534424Q28.90852351837158,31.533844916534424,31.34882351837158,28.964144916534423L37.72982351837158,22.262744916534423Q40.20002351837158,19.66144491653442,40.20002351837158,15.927044916534424Q40.20002351837158,12.192674916534424,37.728423518371585,9.589994916534424Q35.576023518371585,7.326294916534424,32.59302351837158,7.050584916534424L32.59042351837158,7.050334916534424L32.590323518371584,7.050324916534423Q32.521223518371585,7.043954916534424,32.45302351837158,7.0312449165344235Q32.38482351837158,7.018534916534424,32.31802351837158,6.999584916534424Q32.25132351837158,6.980624916534424,32.18662351837158,6.955594916534424Q32.12192351837158,6.930564916534424,32.05982351837159,6.899664916534424Q31.997723518371583,6.868774916534424,31.93872351837158,6.832274916534423Q31.87972351837158,6.795774916534424,31.824323518371582,6.753984916534424Q31.768923518371583,6.712194916534424,31.717623518371582,6.665474916534424Q31.66632351837158,6.618754916534424,31.619623518371583,6.567494916534423Q31.57282351837158,6.516238916534424,31.531023518371583,6.460886916534424Q31.48922351837158,6.405534916534424,31.452723518371585,6.346557916534424Q31.416123518371585,6.287581916534424,31.385223518371582,6.225484916534424Q31.35432351837158,6.163387916534424,31.329223518371585,6.0987009165344235Q31.304123518371583,6.034013916534424,31.285123518371584,5.967288916534423Q31.266123518371582,5.9005639165344235,31.253423518371584,5.8323709165344235Q31.24062351837158,5.764177916534424,31.234223518371582,5.695098916534424Q31.227823518371583,5.6260201165344235,31.227823518371583,5.556644916534424Q31.227823518371583,5.482954616534424,31.23512351837158,5.4096189165344235Q31.242323518371585,5.336283916534424,31.256623518371583,5.264009916534424Q31.27102351837158,5.191734916534424,31.29242351837158,5.121217916534424Q31.31382351837158,5.050700916534424,31.342023518371583,4.982619916534424Q31.37022351837158,4.914538916534424,31.404923518371582,4.849549916534424Q31.439723518371583,4.784560916534424,31.48062351837158,4.723289916534424Q31.52162351837158,4.662017916534424,31.56832351837158,4.6050549165344234Q31.615123518371583,4.548094916534424,31.667223518371582,4.4959849165344234Q31.71932351837158,4.443874916534424,31.776223518371584,4.397124916534423Q31.833223518371582,4.3503849165344235,31.89452351837158,4.3094449165344235Q31.95572351837158,4.2685049165344235,32.02072351837158,4.233764916534424Q32.08572351837158,4.199024916534424,32.15382351837158,4.170824916534424Q32.22192351837158,4.142624916534424,32.29242351837158,4.121234916534424Q32.36292351837158,4.0998449165344235,32.435223518371586,4.0854649165344235Q32.507523518371585,4.071094916534424,32.58082351837158,4.063864916534424Q32.65412351837158,4.056644916534424,32.72782351837158,4.056644916534424Q32.79682351837158,4.056644916534424,32.865423518371585,4.062964916534424Z" fill-rule="evenodd" fill="#FEDC33" fill-opacity="1"/></g></g></svg>