<svg xmlns="http://www.w3.org/2000/svg" xmlns:xlink="http://www.w3.org/1999/xlink" fill="none" version="1.1" width="27.5" height="23.75" viewBox="0 0 27.5 23.75"><g><path d="M7.5,21.25L20,21.25Q22.4418,21.25,23.6807,20.0996Q25,18.8746,25,16.25L25,7.5Q25,2.5,20,2.5L7.5,2.5Q2.50051,2.5,2.5,7.49897L2.5,7.5Q2.5,7.56141,2.49398,7.62252Q2.48796,7.68363,2.47598,7.74386Q2.464,7.80409,2.44618,7.86286Q2.42835,7.92162,2.40485,7.97835Q2.38135,8.03509,2.3524,8.08924Q2.32345,8.1434,2.28934,8.19446Q2.25522,8.24552,2.21626,8.29299Q2.17731,8.34046,2.13388,8.38388Q2.09046,8.42731,2.04299,8.46626Q1.99552,8.50522,1.94446,8.53934Q1.8934,8.57345,1.83925,8.6024Q1.78509,8.63135,1.72835,8.65485Q1.67162,8.67835,1.61286,8.69617Q1.55409,8.714,1.49386,8.72598Q1.43363,8.73796,1.37252,8.74398Q1.31141,8.75,1.25,8.75Q1.18859,8.75,1.12748,8.74398Q1.06637,8.73796,1.00614,8.72598Q0.945908,8.714,0.887144,8.69617Q0.82838,8.67835,0.771646,8.65485Q0.714912,8.63135,0.660754,8.6024Q0.606597,8.57345,0.555537,8.53934Q0.504478,8.50522,0.457008,8.46626Q0.409539,8.42731,0.366116,8.38388Q0.322694,8.34046,0.283737,8.29299Q0.24478,8.24552,0.210663,8.19446Q0.176546,8.1434,0.147598,8.08925Q0.118651,8.03509,0.0951506,7.97835Q0.0716505,7.92162,0.0538246,7.86286Q0.0359986,7.80409,0.0240184,7.74386Q0.0120382,7.68363,0.00601909,7.62252Q0,7.56141,0,7.5Q0,0,7.5,0L20,0Q27.5,0,27.5,7.5L27.5,16.25Q27.5,23.75,20,23.75L7.5,23.75Q7.43859,23.75,7.37748,23.744Q7.31637,23.738,7.25614,23.726Q7.19591,23.714,7.13714,23.6962Q7.07838,23.6783,7.02164,23.6548Q6.96491,23.6313,6.91075,23.6024Q6.8566,23.5735,6.80554,23.5393Q6.75448,23.5052,6.70701,23.4663Q6.65954,23.4273,6.61612,23.3839Q6.57269,23.3405,6.53374,23.293Q6.49478,23.2455,6.46066,23.1945Q6.42655,23.1434,6.3976,23.0892Q6.36865,23.0351,6.34515,22.9783Q6.32165,22.9216,6.30382,22.8629Q6.286,22.8041,6.27402,22.7439Q6.26204,22.6836,6.25602,22.6225Q6.25,22.5614,6.25,22.5Q6.25,22.3769,6.27402,22.2561Q6.29804,22.1354,6.34515,22.0216Q6.39226,21.9079,6.46066,21.8055Q6.52906,21.7032,6.61612,21.6161Q6.70317,21.5291,6.80554,21.4607Q6.9079,21.3923,7.02165,21.3452Q7.13539,21.298,7.25614,21.274Q7.37689,21.25,7.5,21.25ZM8.28182,7.14968L12.1816,10.2745Q12.8024,10.7688,13.7437,10.7688Q14.6851,10.7688,15.3089,10.2721L19.2199,7.1483Q19.386,7.01561,19.5867,6.9453Q19.7874,6.875,20,6.875Q20.0614,6.875,20.1225,6.88102Q20.1836,6.88704,20.2439,6.89902Q20.3041,6.911,20.3629,6.92882Q20.4216,6.94665,20.4784,6.97015Q20.5351,6.99365,20.5892,7.0226Q20.6434,7.05155,20.6945,7.08566Q20.7455,7.11978,20.793,7.15874Q20.8405,7.19769,20.8839,7.24112Q20.9273,7.28454,20.9663,7.33201Q21.0052,7.37948,21.0393,7.43054Q21.0735,7.4816,21.1024,7.53575Q21.1313,7.58991,21.1548,7.64664Q21.1784,7.70338,21.1962,7.76214Q21.214,7.82091,21.226,7.88114Q21.238,7.94137,21.244,8.00248Q21.25,8.06359,21.25,8.125Q21.25,8.26572,21.2187,8.40292Q21.1874,8.54012,21.1264,8.66693Q21.0654,8.79373,20.9777,8.9038Q20.8901,9.01387,20.7801,9.1017L20.7796,9.1021L16.866,12.2279Q15.5587,13.2688,13.7437,13.2688Q11.9288,13.2688,10.6184,12.2255L6.71856,9.10063L6.71837,9.10048Q6.60874,9.01264,6.52135,8.90266Q6.43396,8.79268,6.37316,8.66604Q6.31236,8.53941,6.28118,8.40244Q6.25,8.26547,6.25,8.125Q6.25,8.06359,6.25602,8.00248Q6.26204,7.94137,6.27402,7.88114Q6.286,7.82091,6.30382,7.76214Q6.32165,7.70338,6.34515,7.64664Q6.36865,7.58991,6.3976,7.53575Q6.42655,7.4816,6.46066,7.43054Q6.49478,7.37948,6.53374,7.33201Q6.57269,7.28454,6.61612,7.24112Q6.65954,7.19769,6.70701,7.15874Q6.75448,7.11978,6.80554,7.08566Q6.8566,7.05155,6.91075,7.0226Q6.96491,6.99365,7.02164,6.97015Q7.07838,6.94665,7.13714,6.92882Q7.19591,6.911,7.25614,6.89902Q7.31637,6.88704,7.37748,6.88102Q7.43859,6.875,7.5,6.875Q7.71313,6.875,7.91422,6.94563Q8.11531,7.01625,8.28163,7.14952L8.28182,7.14968ZM1.25,11.25L5,11.25Q5.06141,11.25,5.12252,11.256Q5.18363,11.262,5.24386,11.274Q5.30409,11.286,5.36286,11.3038Q5.42162,11.3217,5.47835,11.3451Q5.53509,11.3687,5.58925,11.3976Q5.6434,11.4265,5.69446,11.4607Q5.74552,11.4948,5.79299,11.5337Q5.84046,11.5727,5.88388,11.6161Q5.92731,11.6595,5.96626,11.707Q6.00522,11.7545,6.03934,11.8055Q6.07345,11.8566,6.1024,11.9108Q6.13135,11.9649,6.15485,12.0216Q6.17835,12.0784,6.19617,12.1371Q6.214,12.1959,6.22598,12.2561Q6.23796,12.3164,6.24398,12.3775Q6.25,12.4386,6.25,12.5Q6.25,12.5614,6.24398,12.6225Q6.23796,12.6836,6.22598,12.7439Q6.214,12.8041,6.19617,12.8629Q6.17835,12.9216,6.15485,12.9784Q6.13135,13.0351,6.1024,13.0892Q6.07345,13.1434,6.03934,13.1945Q6.00522,13.2455,5.96626,13.293Q5.92731,13.3405,5.88388,13.3839Q5.84046,13.4273,5.79299,13.4663Q5.74552,13.5052,5.69446,13.5393Q5.6434,13.5735,5.58925,13.6024Q5.53509,13.6313,5.47835,13.6548Q5.42162,13.6783,5.36286,13.6962Q5.30409,13.714,5.24386,13.726Q5.18363,13.738,5.12252,13.744Q5.06141,13.75,5,13.75L1.25,13.75Q1.18859,13.75,1.12748,13.744Q1.06637,13.738,1.00614,13.726Q0.945908,13.714,0.887144,13.6962Q0.82838,13.6783,0.771646,13.6548Q0.714912,13.6313,0.660754,13.6024Q0.606597,13.5735,0.555537,13.5393Q0.504478,13.5052,0.457008,13.4663Q0.409539,13.4273,0.366116,13.3839Q0.322694,13.3405,0.283737,13.293Q0.24478,13.2455,0.210663,13.1945Q0.176546,13.1434,0.147598,13.0892Q0.118651,13.0351,0.0951506,12.9784Q0.0716505,12.9216,0.0538246,12.8629Q0.0359986,12.8041,0.0240184,12.7439Q0.0120382,12.6836,0.00601909,12.6225Q0,12.5614,0,12.5Q0,12.4386,0.00601909,12.3775Q0.0120382,12.3164,0.0240184,12.2561Q0.0359986,12.1959,0.0538246,12.1371Q0.0716505,12.0784,0.0951506,12.0216Q0.118651,11.9649,0.147598,11.9108Q0.176546,11.8566,0.210663,11.8055Q0.24478,11.7545,0.283737,11.707Q0.322694,11.6595,0.366116,11.6161Q0.409539,11.5727,0.457008,11.5337Q0.504478,11.4948,0.555537,11.4607Q0.606597,11.4265,0.660754,11.3976Q0.714912,11.3687,0.771646,11.3451Q0.82838,11.3217,0.887144,11.3038Q0.945908,11.286,1.00614,11.274Q1.06637,11.262,1.12748,11.256Q1.18859,11.25,1.25,11.25ZM8.75,16.25Q8.81141,16.25,8.87252,16.256Q8.93363,16.262,8.99386,16.274Q9.05409,16.286,9.11286,16.3038Q9.17162,16.3216,9.22835,16.3451Q9.28509,16.3687,9.33924,16.3976Q9.3934,16.4265,9.44446,16.4607Q9.49552,16.4948,9.54299,16.5337Q9.59046,16.5727,9.63388,16.6161Q9.67731,16.6595,9.71626,16.707Q9.75522,16.7545,9.78934,16.8055Q9.82345,16.8566,9.8524,16.9108Q9.88135,16.9649,9.90485,17.0216Q9.92835,17.0784,9.94618,17.1371Q9.964,17.1959,9.97598,17.2561Q9.98796,17.3164,9.99398,17.3775Q10,17.4386,10,17.5Q10,17.5614,9.99398,17.6225Q9.98796,17.6836,9.97598,17.7439Q9.964,17.8041,9.94618,17.8629Q9.92835,17.9216,9.90485,17.9784Q9.88135,18.0351,9.8524,18.0892Q9.82345,18.1434,9.78934,18.1945Q9.75522,18.2455,9.71626,18.293Q9.67731,18.3405,9.63388,18.3839Q9.59046,18.4273,9.54299,18.4663Q9.49552,18.5052,9.44446,18.5393Q9.3934,18.5735,9.33924,18.6024Q9.28509,18.6313,9.22835,18.6548Q9.17162,18.6783,9.11286,18.6962Q9.05409,18.714,8.99386,18.726Q8.93363,18.738,8.87252,18.744Q8.81141,18.75,8.75,18.75L1.25,18.75Q1.18859,18.75,1.12748,18.744Q1.06637,18.738,1.00614,18.726Q0.945908,18.714,0.887144,18.6962Q0.82838,18.6783,0.771646,18.6548Q0.714912,18.6313,0.660754,18.6024Q0.606597,18.5735,0.555537,18.5393Q0.504478,18.5052,0.457008,18.4663Q0.409539,18.4273,0.366116,18.3839Q0.322694,18.3405,0.283737,18.293Q0.24478,18.2455,0.210663,18.1945Q0.176546,18.1434,0.147598,18.0892Q0.118651,18.0351,0.0951506,17.9784Q0.0716505,17.9216,0.0538246,17.8629Q0.0359986,17.8041,0.0240184,17.7439Q0.0120382,17.6836,0.00601909,17.6225Q0,17.5614,0,17.5Q0,17.4386,0.00601909,17.3775Q0.0120382,17.3164,0.0240184,17.2561Q0.0359986,17.1959,0.0538246,17.1371Q0.0716505,17.0784,0.0951506,17.0216Q0.118651,16.9649,0.147598,16.9108Q0.176546,16.8566,0.210663,16.8055Q0.24478,16.7545,0.283737,16.707Q0.322694,16.6595,0.366116,16.6161Q0.409539,16.5727,0.457008,16.5337Q0.504478,16.4948,0.555537,16.4607Q0.606597,16.4265,0.660754,16.3976Q0.714912,16.3687,0.771646,16.3451Q0.82838,16.3216,0.887144,16.3038Q0.945908,16.286,1.00614,16.274Q1.06637,16.262,1.12748,16.256Q1.18859,16.25,1.25,16.25L8.75,16.25Z" fill-rule="evenodd" fill="#A3A9D9" fill-opacity="1"/></g></svg>