<svg xmlns="http://www.w3.org/2000/svg" xmlns:xlink="http://www.w3.org/1999/xlink" fill="none" version="1.1" width="25" height="25" viewBox="0 0 27.5 27.5"><g><path d="M4.0375,27.5L9.0875,27.5Q13.125,27.5,13.125,23.625L13.125,3.875Q13.125,1.92915,12.0831,0.948939Q11.0744,2.38419e-7,9.0875,1.19209e-7L4.0375,0Q-2.38419e-7,1.19209e-7,-5.96046e-7,3.875L0,23.625Q-1.19209e-7,27.5,4.0375,27.5ZM10.3701,24.7302Q10.0833,25,9.0875,25L4.0375,25Q3.04174,25,2.75495,24.7302Q2.5,24.4903,2.5,23.625L2.5,3.875Q2.5,3.00966,2.75495,2.76981Q3.04174,2.5,4.0375,2.5L9.0875,2.5Q10.0833,2.5,10.3701,2.76981Q10.625,3.00966,10.625,3.875L10.625,23.625Q10.625,24.4903,10.3701,24.7302ZM18.4125,16.25L23.4625,16.25Q27.5,16.25,27.5,12.375L27.5,3.875Q27.5,1.92915,26.4581,0.948939Q25.4494,2.38419e-7,23.4625,1.19209e-7L18.4125,0Q16.4256,-1.19209e-7,15.4169,0.948939Q14.375,1.92915,14.375,3.875L14.375,12.375Q14.375,16.25,18.4125,16.25ZM24.7451,13.4802Q24.4583,13.75,23.4625,13.75L18.4125,13.75Q17.4167,13.75,17.1299,13.4802Q16.875,13.2403,16.875,12.375L16.875,3.875Q16.875,3.00966,17.1299,2.76981Q17.4167,2.5,18.4125,2.5L23.4625,2.5Q24.4583,2.5,24.7451,2.76981Q25,3.00966,25,3.875L25,12.375Q25,13.2403,24.7451,13.4802ZM18.4125,27.5L23.4625,27.5Q25.4494,27.5,26.4581,26.5511Q27.5,25.5708,27.5,23.625L27.5,21.375Q27.5,19.4292,26.4581,18.4489Q25.4494,17.5,23.4625,17.5L18.4125,17.5Q14.375,17.5,14.375,21.375L14.375,23.625Q14.375,27.5,18.4125,27.5ZM24.7451,24.7302Q24.4583,25,23.4625,25L18.4125,25Q17.4167,25,17.1299,24.7302Q16.875,24.4903,16.875,23.625L16.875,21.375Q16.875,20.5097,17.1299,20.2698Q17.4167,20,18.4125,20L23.4625,20Q24.4583,20,24.7451,20.2698Q25,20.5097,25,21.375L25,23.625Q25,24.4903,24.7451,24.7302Z" fill-rule="evenodd" fill="#61C2F2" fill-opacity="1"/></g></svg>