<svg xmlns="http://www.w3.org/2000/svg" xmlns:xlink="http://www.w3.org/1999/xlink" fill="none" version="1.1" width="27.5" height="27.5" viewBox="0 0 27.5 27.5"><g><path d="M23.4727,4.02728Q19.4454,0,13.75,0Q8.05456,0,4.02728,4.02728Q0,8.05456,0,13.75Q0,19.4454,4.02728,23.4727Q8.05457,27.5,13.75,27.5Q19.4454,27.5,23.4727,23.4727Q27.5,19.4454,27.5,13.75Q27.5,8.05457,23.4727,4.02728ZM5.79505,5.79505Q9.0901,2.5,13.75,2.5Q18.4099,2.5,21.705,5.79505Q25,9.0901,25,13.75Q25,18.4099,21.705,21.705Q18.4099,25,13.75,25Q9.0901,25,5.79505,21.705Q2.5,18.4099,2.5,13.75Q2.5,9.0901,5.79505,5.79505ZM16.25,10.8374Q16.25,11.0943,16.1487,11.3304L16.1485,11.3308L13.6487,17.1554Q13.6127,17.2393,13.5649,17.317Q13.5172,17.3947,13.4587,17.4646Q13.4001,17.5346,13.3321,17.5953Q13.264,17.656,13.1878,17.7062Q13.1117,17.7564,13.0291,17.795Q12.9464,17.8336,12.8591,17.8598Q12.7717,17.886,12.6814,17.8992Q12.5912,17.9124,12.5,17.9124Q12.4386,17.9124,12.3775,17.9064Q12.3164,17.9004,12.2561,17.8884Q12.1959,17.8764,12.1371,17.8586Q12.0784,17.8408,12.0216,17.8173Q11.9649,17.7938,11.9108,17.7648Q11.8566,17.7359,11.8055,17.7018Q11.7545,17.6677,11.707,17.6287Q11.6595,17.5898,11.6161,17.5463Q11.5727,17.5029,11.5337,17.4554Q11.4948,17.408,11.4607,17.3569Q11.4265,17.3058,11.3976,17.2517Q11.3687,17.1975,11.3451,17.1408Q11.3217,17.0841,11.3038,17.0253Q11.286,16.9665,11.274,16.9063Q11.262,16.8461,11.256,16.785Q11.25,16.7239,11.25,16.6624Q11.25,16.4055,11.3513,16.1695L13.8513,10.3444Q13.8873,10.2606,13.9351,10.1829Q13.9828,10.1052,14.0413,10.0352Q14.0999,9.96529,14.1679,9.90458Q14.236,9.84386,14.3122,9.79367Q14.3883,9.74348,14.4709,9.70488Q14.5536,9.66628,14.6409,9.64008Q14.7283,9.61388,14.8186,9.60064Q14.9088,9.5874,15,9.5874Q15.0614,9.5874,15.1225,9.59342Q15.1836,9.59944,15.2439,9.61142Q15.3041,9.6234,15.3629,9.64123Q15.4216,9.65905,15.4784,9.68255Q15.5351,9.70605,15.5892,9.735Q15.6434,9.76395,15.6945,9.79806Q15.7455,9.83218,15.793,9.87114Q15.8405,9.9101,15.8839,9.95352Q15.9273,9.99694,15.9663,10.0444Q16.0052,10.0919,16.0393,10.1429Q16.0735,10.194,16.1024,10.2482Q16.1313,10.3023,16.1548,10.359Q16.1783,10.4158,16.1962,10.4745Q16.214,10.5333,16.226,10.5935Q16.238,10.6538,16.244,10.7149Q16.25,10.776,16.25,10.8374ZM10,11.25Q10,11.3731,9.97598,11.4939Q9.95196,11.6146,9.90485,11.7284Q9.85774,11.8421,9.78934,11.9445Q9.72094,12.0468,9.63388,12.1339L8.01777,13.75L9.63388,15.3661Q9.72094,15.4532,9.78934,15.5555Q9.85774,15.6579,9.90485,15.7716Q9.95196,15.8854,9.97598,16.0061Q10,16.1269,10,16.25Q10,16.3114,9.99398,16.3725Q9.98796,16.4336,9.97598,16.4939Q9.964,16.5541,9.94618,16.6129Q9.92835,16.6716,9.90485,16.7284Q9.88135,16.7851,9.8524,16.8392Q9.82345,16.8934,9.78934,16.9445Q9.75522,16.9955,9.71626,17.043Q9.67731,17.0905,9.63388,17.1339Q9.59046,17.1773,9.54299,17.2163Q9.49552,17.2552,9.44446,17.2893Q9.3934,17.3235,9.33924,17.3524Q9.28509,17.3813,9.22835,17.4048Q9.17162,17.4283,9.11286,17.4462Q9.05409,17.464,8.99386,17.476Q8.93363,17.488,8.87252,17.494Q8.81141,17.5,8.75,17.5Q8.62688,17.5,8.50614,17.476Q8.38539,17.452,8.27165,17.4048Q8.1579,17.3577,8.05554,17.2893Q7.95317,17.2209,7.86612,17.1339L7.8658,17.1336L5.36612,14.6339Q5.32269,14.5905,5.28374,14.543Q5.24478,14.4955,5.21066,14.4445Q5.17655,14.3934,5.1476,14.3392Q5.11865,14.2851,5.09515,14.2284Q5.07165,14.1716,5.05382,14.1129Q5.036,14.0541,5.02402,13.9939Q5.01204,13.9336,5.00602,13.8725Q5,13.8114,5,13.75Q5,13.6886,5.00602,13.6275Q5.01204,13.5664,5.02402,13.5061Q5.036,13.4459,5.05382,13.3871Q5.07165,13.3284,5.09515,13.2716Q5.11865,13.2149,5.1476,13.1608Q5.17655,13.1066,5.21066,13.0555Q5.24478,13.0045,5.28374,12.957Q5.32269,12.9095,5.36612,12.8661L7.86612,10.3661Q7.95317,10.2791,8.05554,10.2107Q8.1579,10.1423,8.27165,10.0951Q8.38539,10.048,8.50614,10.024Q8.62688,10,8.75,10Q8.81141,10,8.87252,10.006Q8.93363,10.012,8.99386,10.024Q9.05409,10.036,9.11286,10.0538Q9.17162,10.0716,9.22835,10.0951Q9.28509,10.1186,9.33924,10.1476Q9.3934,10.1765,9.44446,10.2107Q9.49552,10.2448,9.54299,10.2837Q9.59046,10.3227,9.63388,10.3661Q9.67731,10.4095,9.71626,10.457Q9.75522,10.5045,9.78934,10.5555Q9.82345,10.6066,9.8524,10.6608Q9.88135,10.7149,9.90485,10.7716Q9.92835,10.8284,9.94618,10.8871Q9.964,10.9459,9.97598,11.0061Q9.98796,11.0664,9.99398,11.1275Q10,11.1886,10,11.25ZM19.6341,10.3663L22.1339,12.8661Q22.2209,12.9532,22.2893,13.0555Q22.3577,13.1579,22.4048,13.2716Q22.452,13.3854,22.476,13.5061Q22.5,13.6269,22.5,13.75Q22.5,13.8731,22.476,13.9939Q22.452,14.1146,22.4048,14.2284Q22.3577,14.3421,22.2893,14.4445Q22.2209,14.5468,22.1339,14.6339L19.6342,17.1336L19.6339,17.1339Q19.5468,17.2209,19.4445,17.2893Q19.3421,17.3577,19.2284,17.4048Q19.1146,17.452,18.9939,17.476Q18.8731,17.5,18.75,17.5Q18.6886,17.5,18.6275,17.494Q18.5664,17.488,18.5061,17.476Q18.4459,17.464,18.3871,17.4462Q18.3284,17.4283,18.2716,17.4048Q18.2149,17.3813,18.1608,17.3524Q18.1066,17.3235,18.0555,17.2893Q18.0045,17.2552,17.957,17.2163Q17.9095,17.1773,17.8661,17.1339Q17.8227,17.0905,17.7837,17.043Q17.7448,16.9955,17.7107,16.9445Q17.6765,16.8934,17.6476,16.8392Q17.6187,16.7851,17.5951,16.7284Q17.5716,16.6716,17.5538,16.6129Q17.536,16.5541,17.524,16.4939Q17.512,16.4336,17.506,16.3725Q17.5,16.3114,17.5,16.25Q17.5,16.1269,17.524,16.0061Q17.548,15.8854,17.5951,15.7716Q17.6423,15.6579,17.7107,15.5555Q17.7791,15.4532,17.8661,15.3661L17.8664,15.3658L19.4822,13.75L17.8663,12.1341L17.8661,12.1339Q17.7791,12.0468,17.7107,11.9445Q17.6423,11.8421,17.5951,11.7284Q17.548,11.6146,17.524,11.4939Q17.5,11.3731,17.5,11.25Q17.5,11.1886,17.506,11.1275Q17.512,11.0664,17.524,11.0061Q17.536,10.9459,17.5538,10.8871Q17.5716,10.8284,17.5951,10.7716Q17.6187,10.7149,17.6476,10.6608Q17.6765,10.6066,17.7107,10.5555Q17.7448,10.5045,17.7837,10.457Q17.8227,10.4095,17.8661,10.3661Q17.9095,10.3227,17.957,10.2837Q18.0045,10.2448,18.0555,10.2107Q18.1066,10.1765,18.1608,10.1476Q18.2149,10.1186,18.2716,10.0951Q18.3284,10.0716,18.3871,10.0538Q18.4459,10.036,18.5061,10.024Q18.5664,10.012,18.6275,10.006Q18.6886,10,18.75,10Q18.8731,10,18.9939,10.024Q19.1146,10.048,19.2284,10.0951Q19.3421,10.1423,19.4445,10.2107Q19.5468,10.2791,19.6339,10.3661L19.6341,10.3663Z" fill-rule="evenodd" fill="#A3A9D9" fill-opacity="1"/></g></svg>