<svg xmlns="http://www.w3.org/2000/svg" xmlns:xlink="http://www.w3.org/1999/xlink" fill="none" version="1.1" width="26.406494140625" height="27.2626953125" viewBox="0 0 26.406494140625 27.2626953125"><g><path d="M14.4533,11.5252Q16.3573,9.55638,16.3688,6.80521L16.3688,6.8Q16.3688,3.98536,14.3761,1.99268Q12.3834,1.19209e-7,9.5688,0Q6.74637,-2.38419e-7,4.7561,1.99337Q2.7688,3.98377,2.7688,6.8Q2.7688,9.55263,4.67267,11.5245Q6.57496,13.4947,9.31431,13.5868Q9.39202,13.5894,9.46947,13.5824Q9.56671,13.5735,9.64442,13.5813Q9.72742,13.5896,9.81079,13.5868Q12.5486,13.4948,14.4533,11.5252ZM12.6084,3.76045Q13.8679,5.01995,13.8688,6.79733L13.8688,6.8Q13.8597,8.54277,12.6562,9.78728Q11.4781,11.0055,9.79517,11.0854Q9.56897,11.0698,9.33278,11.0856Q7.64766,11.0065,6.47118,9.78801Q5.2688,8.54269,5.2688,6.8Q5.2688,5.01816,6.52524,3.75976Q7.78304,2.5,9.5688,2.5Q11.3479,2.5,12.6084,3.76045ZM18.8314,2.5Q21.1665,2.5,22.8131,4.1498Q24.4564,5.79642,24.4564,8.125Q24.4564,10.3983,22.8757,12.0342Q21.3003,13.6645,19.0407,13.7491Q18.9394,13.7529,18.8389,13.7403Q18.8325,13.7395,18.8078,13.7423L18.807,13.7424Q18.7382,13.75,18.6689,13.75Q18.6075,13.75,18.5464,13.744Q18.4853,13.738,18.4251,13.726Q18.3649,13.714,18.3061,13.6962Q18.2473,13.6783,18.1906,13.6548Q18.1339,13.6313,18.0797,13.6024Q18.0255,13.5735,17.9745,13.5393Q17.9234,13.5052,17.876,13.4663Q17.8285,13.4273,17.7851,13.3839Q17.7416,13.3405,17.7027,13.293Q17.6637,13.2455,17.6296,13.1945Q17.5955,13.1434,17.5665,13.0892Q17.5376,13.0351,17.5141,12.9784Q17.4906,12.9216,17.4728,12.8629Q17.4549,12.8041,17.443,12.7439Q17.431,12.6836,17.425,12.6225Q17.4189,12.5614,17.4189,12.5Q17.4189,12.3856,17.4397,12.2731Q17.4605,12.1606,17.5013,12.0538Q17.5421,11.9469,17.6017,11.8493Q17.6612,11.7516,17.7375,11.6664Q17.8138,11.5811,17.9043,11.5111Q17.9948,11.4412,18.0965,11.3888Q18.1982,11.3364,18.3077,11.3033Q18.4172,11.2703,18.5309,11.2576Q18.7832,11.2296,19.0233,11.2472Q20.2283,11.1763,21.0778,10.297Q21.9564,9.38776,21.9564,8.125Q21.9564,6.83051,21.0436,5.91582Q20.1295,5,18.8314,5Q18.77,5,18.7089,4.99398Q18.6478,4.98796,18.5876,4.97598Q18.5274,4.964,18.4686,4.94618Q18.4098,4.92835,18.3531,4.90485Q18.2964,4.88135,18.2422,4.8524Q18.188,4.82345,18.137,4.78934Q18.0859,4.75522,18.0385,4.71626Q17.991,4.67731,17.9476,4.63388Q17.9041,4.59046,17.8652,4.54299Q17.8262,4.49552,17.7921,4.44446Q17.758,4.3934,17.729,4.33925Q17.7001,4.28509,17.6766,4.22835Q17.6531,4.17162,17.6353,4.11286Q17.6174,4.05409,17.6055,3.99386Q17.5935,3.93363,17.5875,3.87252Q17.5814,3.81141,17.5814,3.75Q17.5814,3.68859,17.5875,3.62748Q17.5935,3.56637,17.6055,3.50614Q17.6174,3.44591,17.6353,3.38714Q17.6531,3.32838,17.6766,3.27165Q17.7001,3.21491,17.729,3.16075Q17.758,3.1066,17.7921,3.05554Q17.8262,3.00448,17.8652,2.95701Q17.9041,2.90954,17.9476,2.86612Q17.991,2.82269,18.0385,2.78374Q18.0859,2.74478,18.137,2.71066Q18.188,2.67655,18.2422,2.6476Q18.2964,2.61865,18.3531,2.59515Q18.4098,2.57165,18.4686,2.55382Q18.5274,2.536,18.5876,2.52402Q18.6478,2.51204,18.7089,2.50602Q18.77,2.5,18.8314,2.5ZM16.7255,15.9105Q16.7246,15.9099,16.7236,15.9093Q13.8402,13.9844,9.78438,13.9844Q5.72949,13.9844,2.82799,15.9082Q1.19209e-7,17.8013,2.38419e-7,20.6234Q1.19209e-7,23.4479,2.82637,25.3282Q5.71726,27.2625,9.775,27.2625Q13.8327,27.2625,16.7264,25.3264Q19.55,23.4362,19.55,20.6141Q19.55,17.7906,16.7255,15.9105ZM9.78438,16.4844Q13.0835,16.4844,15.337,17.9895L15.3389,17.9907Q17.05,19.1291,17.05,20.6141Q17.05,22.1013,15.3361,23.2486Q13.0735,24.7625,9.775,24.7625Q6.47649,24.7625,4.21113,23.2468Q2.5,22.1084,2.5,20.6234Q2.5,19.1362,4.20951,17.9918Q6.48301,16.4844,9.78438,16.4844ZM21.5562,15.0306Q23.2482,15.4119,24.4525,16.3315Q25.3829,17.0293,25.8925,17.9797Q26.4064,18.9384,26.4064,19.9937Q26.4064,21.0491,25.8925,22.0078Q25.3829,22.9582,24.4439,23.6625Q23.1972,24.6199,21.4988,24.9737Q21.3727,25,21.2439,25Q21.1825,25,21.1214,24.994Q21.0603,24.988,21,24.976Q20.9398,24.964,20.881,24.9462Q20.8223,24.9283,20.7655,24.9048Q20.7088,24.8813,20.6546,24.8524Q20.6005,24.8235,20.5494,24.7893Q20.4984,24.7552,20.4509,24.7163Q20.4034,24.6773,20.36,24.6339Q20.3166,24.5905,20.2776,24.543Q20.2387,24.4955,20.2046,24.4445Q20.1704,24.3934,20.1415,24.3392Q20.1125,24.2851,20.089,24.2284Q20.0655,24.1716,20.0477,24.1129Q20.0299,24.0541,20.0179,23.9939Q20.0059,23.9336,19.9999,23.8725Q19.9939,23.8114,19.9939,23.75Q19.9939,23.6431,20.0121,23.5377Q20.0302,23.4323,20.066,23.3316Q20.1018,23.2308,20.1542,23.1376Q20.2066,23.0444,20.2741,22.9614Q20.3415,22.8784,20.4221,22.8081Q20.5027,22.7378,20.594,22.6822Q20.6854,22.6266,20.7848,22.5874Q20.8843,22.5481,20.989,22.5263Q22.1278,22.289,22.9439,21.6625Q23.9064,20.9406,23.9064,19.9937Q23.9064,19.0469,22.9353,18.3185Q22.1654,17.7306,21.0066,17.4694Q20.9035,17.4462,20.8058,17.406Q20.7081,17.3658,20.6185,17.3098Q20.529,17.2537,20.4501,17.1835Q20.3712,17.1132,20.3052,17.0307Q20.2392,16.9482,20.188,16.8558Q20.1368,16.7634,20.1018,16.6637Q20.0669,16.564,20.0491,16.4598Q20.0314,16.3557,20.0314,16.25Q20.0314,16.1886,20.0374,16.1275Q20.0434,16.0664,20.0554,16.0061Q20.0674,15.9459,20.0852,15.8871Q20.103,15.8284,20.1265,15.7716Q20.15,15.7149,20.179,15.6608Q20.2079,15.6066,20.2421,15.5555Q20.2762,15.5045,20.3151,15.457Q20.3541,15.4095,20.3975,15.3661Q20.4409,15.3227,20.4884,15.2837Q20.5359,15.2448,20.5869,15.2107Q20.638,15.1765,20.6921,15.1476Q20.7463,15.1187,20.803,15.0951Q20.8598,15.0717,20.9185,15.0538Q20.9773,15.036,21.0375,15.024Q21.0978,15.012,21.1589,15.006Q21.22,15,21.2814,15Q21.4205,15,21.5562,15.0306Z" fill-rule="evenodd" fill="#A3A9D9" fill-opacity="1"/></g></svg>