<svg xmlns="http://www.w3.org/2000/svg" xmlns:xlink="http://www.w3.org/1999/xlink" fill="none" version="1.1" width="22.5849609375" height="27.650390625" viewBox="0 0 22.5849609375 27.650390625"><g><g><path d="M20.071904296875,13.575390625L20.071904296875,9.962890625Q20.071904296875,6.3513706249999995,17.502604296875,3.7821306249999997Q14.933404296875,1.212890625,11.321904296875,1.212890625Q7.700974296875,1.212890625,5.1364142968749995,3.777440625Q2.571864296875,6.342000625,2.571864296875,9.962890625L2.571864296875,13.575390625Q2.571864296875,14.610890625,2.035679296875,15.510290625L0.600987296875,17.893090625Q-0.37370570312499996,19.512990625,0.23245429687500008,21.150090625Q0.836084296875,22.780290625,2.621114296875,23.384390625Q11.315604296875,26.289290625,20.005504296875,23.385990625Q21.708504296875,22.822990625,22.333504296875,21.130290625Q22.957904296875,19.439290625,22.031204296875,17.894790625L20.592704296875,15.505590625Q20.071904296875,14.602290625,20.071904296875,13.575390625ZM15.734904296875,5.549900624999999Q17.571904296875,7.386910625,17.571904296875,9.962890625L17.571904296875,13.575390625Q17.571904296875,15.271790625,18.451004296875,16.795190625L19.887504296875,19.180990625Q20.197504296875,19.697690625,19.988304296875,20.264290625Q19.780404296875,20.827290625,19.213204296875,21.014790625Q11.315604296875,23.653490625,3.422604296875,21.016390625Q2.7666242968750003,20.794390625,2.576894296875,20.281990625Q2.388094296875,19.772090625,2.7427342968749997,19.182690625L4.183044296875,16.790490625Q5.071864296875,15.299590625,5.071864296875,13.575390625L5.071864296875,9.962890625Q5.071864296875,7.377530625,6.904184296875,5.545210625Q8.736504296875001,3.712890625,11.321904296875,3.712890625Q13.897804296875,3.712890625,15.734904296875,5.549900624999999Z" fill-rule="evenodd" fill="#FFFFFF" fill-opacity="1"/></g><g><path d="M13.447557343749999,0.663029Q12.49026734375,0,11.32177734375,0Q10.15328734375,0,9.19599534375,0.663028Q8.25989334375,1.3113791,7.84545734375,2.36891Q7.76993734375,2.56162,7.7605573437499995,2.7683999999999997Q7.75118734375,2.9751700000000003,7.80896734375,3.17393Q7.8261073437499995,3.2329,7.84894734375,3.2899Q7.87178734375,3.3469,7.90009734375,3.40139Q7.9284173437500005,3.45588,7.96193734375,3.50734Q7.99545734375,3.55879,8.03386234375,3.60671Q8.07226534375,3.65463,8.11518034375,3.69855Q8.15809534375,3.74247,8.20510834375,3.78198Q8.252122343749999,3.82149,8.30278134375,3.85619Q8.35344034375,3.8909,8.40725834375,3.92048Q8.46107534375,3.95005,8.51753234375,3.97421Q8.57398934375,3.99837,8.63254334375,4.0168800000000005Q8.69109634375,4.03538,8.75118134375,4.0480599999999995Q8.81126634375,4.06074,8.87230534375,4.06747Q8.93334414375,4.074199999999999,8.99474864375,4.0749200000000005Q9.05615304375,4.07563,9.11733134375,4.070320000000001Q9.17851034375,4.06501,9.23887434375,4.05373Q9.29923834375,4.0424500000000005,9.35820534375,4.02531Q10.74164734375,3.62315,12.28386734375,3.81592Q12.76496734375,3.87423,13.285767343749999,4.02543Q13.484437343749999,4.08311,13.69109734375,4.07371Q13.897757343750001,4.064299999999999,14.09036734375,3.98882Q14.20499734375,3.9439,14.30865734375,3.87748Q14.41231734375,3.81106,14.50102734375,3.72569Q14.58973734375,3.64032,14.66008734375,3.53929Q14.730437343750001,3.43826,14.77972734375,3.32544Q14.82901734375,3.2126200000000003,14.855347343750001,3.09236Q14.88168734375,2.9720899999999997,14.88404734375,2.849Q14.886407343750001,2.72591,14.86471734375,2.60472Q14.843017343749999,2.48353,14.798097343750001,2.36891Q14.38365734375,1.3113788,13.447557343749999,0.663029Z" fill-rule="evenodd" fill="#FFFFFF" fill-opacity="1"/></g><g><path d="M9.55565734375,24.416510625Q8.82177734375,23.682630625,8.82177734375,22.650390625L6.32177734375,22.650390625Q6.32177734375,23.659660625,6.71766334375,24.594210625Q7.09970834375,25.496090625,7.78789334375,26.184270625Q8.47607734375,26.872460625000002,9.37795734375,27.254500625Q10.31250734375,27.650390625,11.32177734375,27.650390625Q12.33584734375,27.650390625,13.26659734375,27.254970625Q14.16240734375,26.874400625,14.85409734375,26.182710625Q15.54578734375,25.491020625,15.92635734375,24.595210625Q16.32177734375,23.664460625,16.32177734375,22.650390625L13.82177734375,22.650390625Q13.82177734375,23.679500625,13.08632734375,24.414940625Q12.35088734375,25.150390625,11.32177734375,25.150390625Q10.28953734375,25.150390625,9.55565734375,24.416510625Z" fill-rule="evenodd" fill="#FFFFFF" fill-opacity="1"/></g></g></svg>