<svg xmlns="http://www.w3.org/2000/svg" xmlns:xlink="http://www.w3.org/1999/xlink" fill="none" version="1.1" width="27.5" height="28.38134765625" viewBox="0 0 27.5 28.38134765625"><g><path d="M25.6775,1.83473Q27.5,3.68259,27.5,6.25L27.5,9.275Q27.5,13.75,23.025,13.75L20,13.75L20,25Q20,26.5413,18.6184,27.2321Q17.2405,27.921,16.0009,27.0007L13.8656,25.4022L11.7714,27.4964Q10.887,28.3808,10.002,28.3814Q9.11431,28.3821,8.22597,27.4937L6.15362,25.4089Q6.14163,25.3969,6.13657,25.4007L4.00482,26.9964Q2.76695,27.9342,1.38161,27.2415Q0,26.5507,0,25L0,6.25Q0,0,6.25,0L21.25,0L21.2587,0.00003016L21.275,0Q23.8665,0.0237228,25.6714,1.82862L25.6775,1.83473ZM20,11.25L20,3.7625Q20,3.24333,20.373,2.87284Q20.7484,2.5,21.275,2.5Q22.8193,2.51422,23.9006,3.59339Q25,4.71019,25,6.25L25,9.275Q25,11.25,23.025,11.25L20,11.25ZM17.5,3.75L17.5,25L17.4991,24.9993L15.3746,23.4092Q13.6498,22.0824,12.1036,23.6286L10.0036,25.7286Q10,25.7322,9.99903,25.7313L7.92138,23.6411Q6.37622,22.096,4.63843,23.3993L2.5,25L2.5,6.25Q2.5,2.5,6.25,2.5L17.7038,2.5Q17.5,3.08348,17.5,3.75ZM4.99463,10Q4.99463,9.93859,5.00065,9.87748Q5.00667,9.81637,5.01865,9.75614Q5.03063,9.69591,5.04845,9.63714Q5.06628,9.57838,5.08978,9.52164Q5.11328,9.46491,5.14223,9.41075Q5.17118,9.3566,5.20529,9.30554Q5.23941,9.25448,5.27837,9.20701Q5.31732,9.15954,5.36075,9.11612Q5.40417,9.07269,5.45164,9.03374Q5.49911,8.99478,5.55017,8.96066Q5.60123,8.92655,5.65538,8.8976Q5.70954,8.86865,5.76627,8.84515Q5.82301,8.82165,5.88177,8.80383Q5.94054,8.786,6.00077,8.77402Q6.061,8.76204,6.12211,8.75602Q6.18322,8.75,6.24463,8.75L6.25586,8.75Q6.31727,8.75,6.37838,8.75602Q6.43949,8.76204,6.49972,8.77402Q6.55995,8.786,6.61871,8.80383Q6.67748,8.82165,6.73421,8.84515Q6.79095,8.86865,6.8451,8.8976Q6.89926,8.92655,6.95032,8.96066Q7.00138,8.99478,7.04885,9.03374Q7.09632,9.07269,7.13974,9.11612Q7.18316,9.15954,7.22212,9.20701Q7.26108,9.25448,7.29519,9.30554Q7.32931,9.3566,7.35826,9.41075Q7.38721,9.46491,7.41071,9.52164Q7.43421,9.57838,7.45203,9.63714Q7.46986,9.69591,7.48184,9.75614Q7.49382,9.81637,7.49984,9.87748Q7.50586,9.93859,7.50586,10Q7.50586,10.0614,7.49984,10.1225Q7.49382,10.1836,7.48184,10.2439Q7.46986,10.3041,7.45203,10.3629Q7.43421,10.4216,7.41071,10.4784Q7.38721,10.5351,7.35826,10.5892Q7.32931,10.6434,7.29519,10.6945Q7.26108,10.7455,7.22212,10.793Q7.18316,10.8405,7.13974,10.8839Q7.09632,10.9273,7.04885,10.9663Q7.00138,11.0052,6.95032,11.0393Q6.89926,11.0735,6.8451,11.1024Q6.79094,11.1313,6.73421,11.1548Q6.67748,11.1783,6.61871,11.1962Q6.55995,11.214,6.49972,11.226Q6.43949,11.238,6.37838,11.244Q6.31727,11.25,6.25586,11.25L6.24463,11.25Q6.18322,11.25,6.12211,11.244Q6.061,11.238,6.00077,11.226Q5.94054,11.214,5.88177,11.1962Q5.82301,11.1783,5.76627,11.1548Q5.70954,11.1314,5.65538,11.1024Q5.60123,11.0735,5.55017,11.0393Q5.49911,11.0052,5.45164,10.9663Q5.40417,10.9273,5.36075,10.8839Q5.31732,10.8405,5.27837,10.793Q5.23941,10.7455,5.20529,10.6945Q5.17118,10.6434,5.14223,10.5892Q5.11328,10.5351,5.08978,10.4784Q5.06628,10.4216,5.04845,10.3629Q5.03063,10.3041,5.01865,10.2439Q5.00667,10.1836,5.00065,10.1225Q4.99463,10.0614,4.99463,10ZM13.75,8.7625L10,8.7625Q9.93859,8.7625,9.87748,8.76852Q9.81637,8.77454,9.75614,8.78652Q9.69591,8.7985,9.63714,8.81632Q9.57838,8.83415,9.52164,8.85765Q9.46491,8.88115,9.41075,8.9101Q9.3566,8.93904,9.30554,8.97316Q9.25448,9.00728,9.20701,9.04623Q9.15954,9.08519,9.11612,9.12861Q9.07269,9.17204,9.03374,9.21951Q8.99478,9.26698,8.96066,9.31803Q8.92654,9.36909,8.8976,9.42325Q8.86865,9.47741,8.84515,9.53414Q8.82165,9.59088,8.80382,9.64964Q8.786,9.7084,8.77402,9.76863Q8.76204,9.82886,8.75602,9.88998Q8.75,9.95109,8.75,10.0125Q8.75,10.0739,8.75602,10.135Q8.76204,10.1961,8.77402,10.2564Q8.786,10.3166,8.80382,10.3754Q8.82165,10.4341,8.84515,10.4909Q8.86865,10.5476,8.8976,10.6017Q8.92654,10.6559,8.96066,10.707Q8.99478,10.758,9.03374,10.8055Q9.07269,10.853,9.11612,10.8964Q9.15954,10.9398,9.20701,10.9788Q9.25448,11.0177,9.30554,11.0518Q9.3566,11.0859,9.41075,11.1149Q9.46491,11.1438,9.52164,11.1673Q9.57838,11.1908,9.63714,11.2087Q9.69591,11.2265,9.75614,11.2385Q9.81637,11.2505,9.87748,11.2565Q9.93859,11.2625,10,11.2625L13.75,11.2625Q13.8114,11.2625,13.8725,11.2565Q13.9336,11.2505,13.9939,11.2385Q14.0541,11.2265,14.1129,11.2087Q14.1716,11.1908,14.2284,11.1673Q14.2851,11.1438,14.3392,11.1149Q14.3934,11.086,14.4445,11.0518Q14.4955,11.0177,14.543,10.9788Q14.5905,10.9398,14.6339,10.8964Q14.6773,10.853,14.7163,10.8055Q14.7552,10.758,14.7893,10.707Q14.8235,10.6559,14.8524,10.6017Q14.8813,10.5476,14.9048,10.4909Q14.9283,10.4341,14.9462,10.3754Q14.964,10.3166,14.976,10.2564Q14.988,10.1961,14.994,10.135Q15,10.0739,15,10.0125Q15,9.95109,14.994,9.88998Q14.988,9.82886,14.976,9.76863Q14.964,9.7084,14.9462,9.64964Q14.9283,9.59088,14.9048,9.53414Q14.8813,9.47741,14.8524,9.42325Q14.8235,9.36909,14.7893,9.31803Q14.7552,9.26698,14.7163,9.21951Q14.6773,9.17204,14.6339,9.12861Q14.5905,9.08519,14.543,9.04623Q14.4955,9.00728,14.4445,8.97316Q14.3934,8.93904,14.3392,8.9101Q14.2851,8.88115,14.2284,8.85765Q14.1716,8.83415,14.1129,8.81632Q14.0541,8.7985,13.9939,8.78652Q13.9336,8.77454,13.8725,8.76852Q13.8114,8.7625,13.75,8.7625ZM4.99463,15Q4.99463,14.9386,5.00065,14.8775Q5.00667,14.8164,5.01865,14.7561Q5.03063,14.6959,5.04845,14.6371Q5.06628,14.5784,5.08978,14.5216Q5.11328,14.4649,5.14223,14.4108Q5.17118,14.3566,5.20529,14.3055Q5.23941,14.2545,5.27837,14.207Q5.31732,14.1595,5.36075,14.1161Q5.40417,14.0727,5.45164,14.0337Q5.49911,13.9948,5.55017,13.9607Q5.60123,13.9265,5.65538,13.8976Q5.70954,13.8687,5.76627,13.8451Q5.82301,13.8217,5.88177,13.8038Q5.94054,13.786,6.00077,13.774Q6.061,13.762,6.12211,13.756Q6.18322,13.75,6.24463,13.75L6.25586,13.75Q6.31727,13.75,6.37838,13.756Q6.43949,13.762,6.49972,13.774Q6.55995,13.786,6.61871,13.8038Q6.67748,13.8217,6.73421,13.8451Q6.79095,13.8687,6.8451,13.8976Q6.89926,13.9265,6.95032,13.9607Q7.00138,13.9948,7.04885,14.0337Q7.09632,14.0727,7.13974,14.1161Q7.18316,14.1595,7.22212,14.207Q7.26108,14.2545,7.29519,14.3055Q7.32931,14.3566,7.35826,14.4108Q7.38721,14.4649,7.41071,14.5216Q7.43421,14.5784,7.45203,14.6371Q7.46986,14.6959,7.48184,14.7561Q7.49382,14.8164,7.49984,14.8775Q7.50586,14.9386,7.50586,15Q7.50586,15.0614,7.49984,15.1225Q7.49382,15.1836,7.48184,15.2439Q7.46986,15.3041,7.45203,15.3629Q7.43421,15.4216,7.41071,15.4784Q7.38721,15.5351,7.35826,15.5892Q7.32931,15.6434,7.29519,15.6945Q7.26108,15.7455,7.22212,15.793Q7.18316,15.8405,7.13974,15.8839Q7.09632,15.9273,7.04885,15.9663Q7.00138,16.0052,6.95032,16.0393Q6.89926,16.0735,6.8451,16.1024Q6.79094,16.1313,6.73421,16.1548Q6.67748,16.1783,6.61871,16.1962Q6.55995,16.214,6.49972,16.226Q6.43949,16.238,6.37838,16.244Q6.31727,16.25,6.25586,16.25L6.24463,16.25Q6.18322,16.25,6.12211,16.244Q6.061,16.238,6.00077,16.226Q5.94054,16.214,5.88177,16.1962Q5.82301,16.1783,5.76627,16.1548Q5.70954,16.1313,5.65538,16.1024Q5.60123,16.0735,5.55017,16.0393Q5.49911,16.0052,5.45164,15.9663Q5.40417,15.9273,5.36075,15.8839Q5.31732,15.8405,5.27837,15.793Q5.23941,15.7455,5.20529,15.6945Q5.17118,15.6434,5.14223,15.5892Q5.11328,15.5351,5.08978,15.4784Q5.06628,15.4216,5.04845,15.3629Q5.03063,15.3041,5.01865,15.2439Q5.00667,15.1836,5.00065,15.1225Q4.99463,15.0614,4.99463,15ZM13.75,13.7625L10.0015,13.7625L10,13.7625Q9.93859,13.7625,9.87748,13.7685Q9.81637,13.7745,9.75614,13.7865Q9.69591,13.7985,9.63714,13.8163Q9.57838,13.8341,9.52164,13.8576Q9.46491,13.8811,9.41075,13.9101Q9.3566,13.939,9.30554,13.9732Q9.25448,14.0073,9.20701,14.0462Q9.15954,14.0852,9.11612,14.1286Q9.07269,14.172,9.03374,14.2195Q8.99478,14.267,8.96066,14.318Q8.92654,14.3691,8.8976,14.4233Q8.86865,14.4774,8.84515,14.5341Q8.82165,14.5909,8.80382,14.6496Q8.786,14.7084,8.77402,14.7686Q8.76204,14.8289,8.75602,14.89Q8.75,14.9511,8.75,15.0125Q8.75,15.0739,8.75602,15.135Q8.76204,15.1961,8.77402,15.2564Q8.786,15.3166,8.80382,15.3754Q8.82165,15.4341,8.84515,15.4908Q8.86865,15.5476,8.8976,15.6017Q8.92654,15.6559,8.96066,15.707Q8.99478,15.758,9.03374,15.8055Q9.07269,15.853,9.11612,15.8964Q9.15954,15.9398,9.20701,15.9788Q9.25448,16.0177,9.30554,16.0518Q9.3566,16.0859,9.41075,16.1149Q9.46491,16.1438,9.52164,16.1673Q9.57838,16.1908,9.63714,16.2087Q9.69591,16.2265,9.75614,16.2385Q9.81637,16.2505,9.87748,16.2565Q9.93859,16.2625,10,16.2625L13.75,16.2625Q13.8114,16.2625,13.8725,16.2565Q13.9336,16.2505,13.9939,16.2385Q14.0541,16.2265,14.1129,16.2087Q14.1716,16.1908,14.2284,16.1673Q14.2851,16.1438,14.3392,16.1149Q14.3934,16.0859,14.4445,16.0518Q14.4955,16.0177,14.543,15.9788Q14.5905,15.9398,14.6339,15.8964Q14.6773,15.853,14.7163,15.8055Q14.7552,15.758,14.7893,15.707Q14.8235,15.6559,14.8524,15.6017Q14.8813,15.5476,14.9048,15.4908Q14.9283,15.4341,14.9462,15.3754Q14.964,15.3166,14.976,15.2564Q14.988,15.1961,14.994,15.135Q15,15.0739,15,15.0125Q15,14.8894,14.976,14.7686Q14.952,14.6479,14.9048,14.5341Q14.8577,14.4204,14.7893,14.318Q14.7209,14.2157,14.6339,14.1286Q14.5468,14.0416,14.4445,13.9732Q14.3421,13.9048,14.2284,13.8576Q14.1146,13.8105,13.9939,13.7865Q13.8731,13.7625,13.75,13.7625Z" fill-rule="evenodd" fill="#A3A9D9" fill-opacity="1"/></g></svg>