<svg xmlns="http://www.w3.org/2000/svg" xmlns:xlink="http://www.w3.org/1999/xlink" fill="none" version="1.1" width="25.58837890625" height="25.56591796875" viewBox="0 0 25.58837890625 25.56591796875"><g><path d="M0.00860322,12.337L0.308741,6.08419Q0.426818,3.73446,2.09059,2.07699Q3.75717,0.416721,6.10973,0.310861L12.3545,0.0111258Q15.5355,-0.155046,17.8016,2.11109L23.4809,7.76541Q25.5884,9.88424,25.5884,12.8704Q25.5884,15.8584,23.4785,17.9683L17.9887,23.4582Q15.8698,25.5657,12.8837,25.5657Q9.89565,25.5657,7.78578,23.4558L2.12328,17.7933Q-0.133602,15.5364,0.00839853,12.3414L0.00860322,12.337ZM2.50593,12.4524L2.50574,12.4569Q2.41439,14.5489,3.89105,16.0255L9.55355,21.688Q10.9312,23.0657,12.8837,23.0657Q14.8382,23.0657,16.2257,21.6857L21.7108,16.2005Q23.0884,14.8229,23.0884,12.8704Q23.0884,10.9159,21.7084,9.52843L16.0377,3.88276Q14.5546,2.3996,12.4849,2.50772L6.2296,2.80799Q2.96916,2.95471,2.80559,6.20966L2.50593,12.4524ZM9.66943,5.28418Q11.4816,5.28418,12.763,6.56559Q14.0444,7.847,14.0444,9.65918Q14.0444,11.4714,12.763,12.7528Q11.4816,14.0342,9.66943,14.0342Q7.85725,14.0342,6.57584,12.7528Q5.29443,11.4714,5.29443,9.65918Q5.29443,7.847,6.57584,6.56559Q7.85725,5.28418,9.66943,5.28418ZM9.66943,7.78418Q8.89278,7.78418,8.34361,8.33335Q7.79443,8.88253,7.79443,9.65918Q7.79443,10.4358,8.34361,10.985Q8.89278,11.5342,9.66943,11.5342Q10.4461,11.5342,10.9953,10.985Q11.5444,10.4358,11.5444,9.65918Q11.5444,8.88253,10.9953,8.33335Q10.4461,7.78418,9.66943,7.78418Z" fill-rule="evenodd" fill="#A3A9D9" fill-opacity="1"/></g></svg>