<svg xmlns="http://www.w3.org/2000/svg" xmlns:xlink="http://www.w3.org/1999/xlink" fill="none" version="1.1" width="25" height="27.5" viewBox="0 0 25 27.5"><g><path d="M17.5,0Q21.2147,0,23.1816,2.11819Q25,4.07644,25,7.5L25,20Q25,27.5,17.5,27.5L7.5,27.5Q0,27.5,0,20L0,7.5Q0,0,7.5,0L17.5,0ZM17.5,2.5L7.5,2.5Q2.5,2.5,2.5,7.5L2.5,20Q2.5,25,7.5,25L17.5,25Q22.5,25,22.5,20L22.5,7.5Q22.5,5.05817,21.3496,3.81931Q20.1246,2.5,17.5,2.5ZM15.625,3.125Q15.5636,3.125,15.5025,3.13102Q15.4414,3.13704,15.3811,3.14902Q15.3209,3.161,15.2621,3.17882Q15.2034,3.19665,15.1466,3.22015Q15.0899,3.24365,15.0358,3.2726Q14.9816,3.30155,14.9305,3.33566Q14.8795,3.36978,14.832,3.40874Q14.7845,3.44769,14.7411,3.49112Q14.6977,3.53454,14.6587,3.58201Q14.6198,3.62948,14.5857,3.68054Q14.5515,3.7316,14.5226,3.78575Q14.4936,3.83991,14.4701,3.89665Q14.4466,3.95338,14.4288,4.01214Q14.411,4.07091,14.399,4.13114Q14.387,4.19137,14.381,4.25248Q14.375,4.31359,14.375,4.375L14.375,6.875Q14.375,8.42402,15.4755,9.52451Q16.576,10.625,18.125,10.625L20.625,10.625Q20.6864,10.625,20.7475,10.619Q20.8086,10.613,20.8689,10.601Q20.9291,10.589,20.9879,10.5712Q21.0466,10.5533,21.1034,10.5298Q21.1601,10.5063,21.2142,10.4774Q21.2684,10.4485,21.3195,10.4143Q21.3705,10.3802,21.418,10.3413Q21.4655,10.3023,21.5089,10.2589Q21.5523,10.2155,21.5913,10.168Q21.6302,10.1205,21.6643,10.0695Q21.6985,10.0184,21.7274,9.96425Q21.7564,9.91009,21.7798,9.85335Q21.8034,9.79662,21.8212,9.73785Q21.839,9.67909,21.851,9.61886Q21.863,9.55863,21.869,9.49752Q21.875,9.43641,21.875,9.375Q21.875,9.31359,21.869,9.25248Q21.863,9.19137,21.851,9.13114Q21.839,9.07091,21.8212,9.01215Q21.8034,8.95338,21.7798,8.89665Q21.7564,8.83991,21.7274,8.78575Q21.6985,8.7316,21.6643,8.68054Q21.6302,8.62948,21.5913,8.58201Q21.5523,8.53454,21.5089,8.49112Q21.4655,8.44769,21.418,8.40874Q21.3705,8.36978,21.3195,8.33566Q21.2684,8.30155,21.2142,8.2726Q21.1601,8.24365,21.1034,8.22015Q21.0466,8.19665,20.9879,8.17882Q20.9291,8.161,20.8689,8.14902Q20.8086,8.13704,20.7475,8.13102Q20.6864,8.125,20.625,8.125L18.125,8.125Q17.6115,8.125,17.2433,7.75674Q16.875,7.38848,16.875,6.875L16.875,4.375Q16.875,4.31359,16.869,4.25248Q16.863,4.19137,16.851,4.13114Q16.839,4.07091,16.8212,4.01214Q16.8033,3.95338,16.7798,3.89665Q16.7563,3.83991,16.7274,3.78575Q16.6985,3.7316,16.6643,3.68054Q16.6302,3.62948,16.5913,3.58201Q16.5523,3.53454,16.5089,3.49112Q16.4655,3.44769,16.418,3.40874Q16.3705,3.36978,16.3195,3.33566Q16.2684,3.30155,16.2142,3.2726Q16.1601,3.24365,16.1034,3.22015Q16.0466,3.19665,15.9879,3.17882Q15.9291,3.161,15.8689,3.14902Q15.8086,3.13704,15.7475,3.13102Q15.6864,3.125,15.625,3.125ZM12.5,13.75L7.5,13.75Q7.43859,13.75,7.37748,13.756Q7.31637,13.762,7.25614,13.774Q7.19591,13.786,7.13714,13.8038Q7.07838,13.8217,7.02164,13.8451Q6.96491,13.8687,6.91075,13.8976Q6.8566,13.9265,6.80554,13.9607Q6.75448,13.9948,6.70701,14.0337Q6.65954,14.0727,6.61612,14.1161Q6.57269,14.1595,6.53374,14.207Q6.49478,14.2545,6.46066,14.3055Q6.42655,14.3566,6.3976,14.4108Q6.36865,14.4649,6.34515,14.5216Q6.32165,14.5784,6.30382,14.6371Q6.286,14.6959,6.27402,14.7561Q6.26204,14.8164,6.25602,14.8775Q6.25,14.9386,6.25,15Q6.25,15.0614,6.25602,15.1225Q6.26204,15.1836,6.27402,15.2439Q6.286,15.3041,6.30382,15.3629Q6.32165,15.4216,6.34515,15.4784Q6.36865,15.5351,6.3976,15.5892Q6.42655,15.6434,6.46066,15.6945Q6.49478,15.7455,6.53374,15.793Q6.57269,15.8405,6.61612,15.8839Q6.65954,15.9273,6.70701,15.9663Q6.75448,16.0052,6.80554,16.0393Q6.8566,16.0735,6.91075,16.1024Q6.96491,16.1313,7.02164,16.1548Q7.07838,16.1783,7.13714,16.1962Q7.19591,16.214,7.25614,16.226Q7.31637,16.238,7.37748,16.244Q7.43859,16.25,7.5,16.25L12.5,16.25Q12.5614,16.25,12.6225,16.244Q12.6836,16.238,12.7439,16.226Q12.8041,16.214,12.8629,16.1962Q12.9216,16.1783,12.9784,16.1548Q13.0351,16.1313,13.0892,16.1024Q13.1434,16.0735,13.1945,16.0393Q13.2455,16.0052,13.293,15.9663Q13.3405,15.9273,13.3839,15.8839Q13.4273,15.8405,13.4663,15.793Q13.5052,15.7455,13.5393,15.6945Q13.5735,15.6434,13.6024,15.5892Q13.6313,15.5351,13.6548,15.4784Q13.6783,15.4216,13.6962,15.3629Q13.714,15.3041,13.726,15.2439Q13.738,15.1836,13.744,15.1225Q13.75,15.0614,13.75,15Q13.75,14.9386,13.744,14.8775Q13.738,14.8164,13.726,14.7561Q13.714,14.6959,13.6962,14.6371Q13.6783,14.5784,13.6548,14.5216Q13.6313,14.4649,13.6024,14.4108Q13.5735,14.3566,13.5393,14.3055Q13.5052,14.2545,13.4663,14.207Q13.4273,14.1595,13.3839,14.1161Q13.3405,14.0727,13.293,14.0337Q13.2455,13.9948,13.1945,13.9607Q13.1434,13.9265,13.0892,13.8976Q13.0351,13.8687,12.9784,13.8451Q12.9216,13.8217,12.8629,13.8038Q12.8041,13.786,12.7439,13.774Q12.6836,13.762,12.6225,13.756Q12.5614,13.75,12.5,13.75ZM18.75,20Q18.75,19.9386,18.744,19.8775Q18.738,19.8164,18.726,19.7561Q18.714,19.6959,18.6962,19.6371Q18.6783,19.5784,18.6548,19.5216Q18.6313,19.4649,18.6024,19.4108Q18.5735,19.3566,18.5393,19.3055Q18.5052,19.2545,18.4663,19.207Q18.4273,19.1595,18.3839,19.1161Q18.3405,19.0727,18.293,19.0337Q18.2455,18.9948,18.1945,18.9607Q18.1434,18.9265,18.0892,18.8976Q18.0351,18.8686,17.9784,18.8451Q17.9216,18.8216,17.8629,18.8038Q17.8041,18.786,17.7439,18.774Q17.6836,18.762,17.6225,18.756Q17.5614,18.75,17.5,18.75L7.5,18.75Q7.43859,18.75,7.37748,18.756Q7.31637,18.762,7.25614,18.774Q7.19591,18.786,7.13714,18.8038Q7.07838,18.8216,7.02164,18.8451Q6.96491,18.8686,6.91075,18.8976Q6.8566,18.9265,6.80554,18.9607Q6.75448,18.9948,6.70701,19.0337Q6.65954,19.0727,6.61612,19.1161Q6.57269,19.1595,6.53374,19.207Q6.49478,19.2545,6.46066,19.3055Q6.42655,19.3566,6.3976,19.4108Q6.36865,19.4649,6.34515,19.5216Q6.32165,19.5784,6.30382,19.6371Q6.286,19.6959,6.27402,19.7561Q6.26204,19.8164,6.25602,19.8775Q6.25,19.9386,6.25,20Q6.25,20.0614,6.25602,20.1225Q6.26204,20.1836,6.27402,20.2439Q6.286,20.3041,6.30382,20.3629Q6.32165,20.4216,6.34515,20.4784Q6.36865,20.5351,6.3976,20.5892Q6.42655,20.6434,6.46066,20.6945Q6.49478,20.7455,6.53374,20.793Q6.57269,20.8405,6.61612,20.8839Q6.65954,20.9273,6.70701,20.9663Q6.75448,21.0052,6.80554,21.0393Q6.8566,21.0735,6.91075,21.1024Q6.96491,21.1313,7.02164,21.1548Q7.07838,21.1784,7.13714,21.1962Q7.19591,21.214,7.25614,21.226Q7.31637,21.238,7.37748,21.244Q7.43859,21.25,7.5,21.25L17.5,21.25Q17.5614,21.25,17.6225,21.244Q17.6836,21.238,17.7439,21.226Q17.8041,21.214,17.8629,21.1962Q17.9216,21.1784,17.9784,21.1548Q18.0351,21.1313,18.0892,21.1024Q18.1434,21.0735,18.1945,21.0393Q18.2455,21.0052,18.293,20.9663Q18.3405,20.9273,18.3839,20.8839Q18.4273,20.8405,18.4663,20.793Q18.5052,20.7455,18.5393,20.6945Q18.5735,20.6434,18.6024,20.5892Q18.6313,20.5351,18.6548,20.4784Q18.6783,20.4216,18.6962,20.3629Q18.714,20.3041,18.726,20.2439Q18.738,20.1836,18.744,20.1225Q18.75,20.0614,18.75,20Z" fill-rule="evenodd" fill="#A3A9D9" fill-opacity="1"/></g></svg>