<svg xmlns="http://www.w3.org/2000/svg" xmlns:xlink="http://www.w3.org/1999/xlink" fill="none" version="1.1" width="27.5" height="27.5" viewBox="0 0 27.5 27.5"><g><path d="M5.79638,5.79638Q9.09277,2.5,13.75,2.5Q13.8114,2.5,13.8725,2.49398Q13.9336,2.48796,13.9939,2.47598Q14.0541,2.464,14.1129,2.44618Q14.1716,2.42835,14.2284,2.40485Q14.2851,2.38135,14.3392,2.3524Q14.3934,2.32345,14.4445,2.28934Q14.4955,2.25522,14.543,2.21626Q14.5905,2.17731,14.6339,2.13388Q14.6773,2.09046,14.7163,2.04299Q14.7552,1.99552,14.7893,1.94446Q14.8235,1.8934,14.8524,1.83925Q14.8813,1.78509,14.9048,1.72835Q14.9283,1.67162,14.9462,1.61286Q14.964,1.55409,14.976,1.49386Q14.988,1.43363,14.994,1.37252Q15,1.31141,15,1.25Q15,1.18859,14.994,1.12748Q14.988,1.06637,14.976,1.00614Q14.964,0.945908,14.9462,0.887144Q14.9283,0.82838,14.9048,0.771646Q14.8813,0.714912,14.8524,0.660754Q14.8235,0.606597,14.7893,0.555537Q14.7552,0.504478,14.7163,0.457008Q14.6773,0.409539,14.6339,0.366116Q14.5905,0.322694,14.543,0.283737Q14.4955,0.24478,14.4445,0.210663Q14.3934,0.176546,14.3392,0.147598Q14.2851,0.118651,14.2284,0.0951506Q14.1716,0.0716505,14.1129,0.0538246Q14.0541,0.0359986,13.9939,0.0240184Q13.9336,0.0120382,13.8725,0.00601909Q13.8114,0,13.75,0Q8.05723,0,4.02862,4.02862Q0,8.05723,0,13.75Q0,19.4428,4.02862,23.4714Q8.05724,27.5,13.75,27.5Q19.4428,27.5,23.4714,23.4714Q27.5,19.4428,27.5,13.75Q27.5,13.6886,27.494,13.6275Q27.488,13.5664,27.476,13.5061Q27.464,13.4459,27.4462,13.3871Q27.4283,13.3284,27.4048,13.2716Q27.3813,13.2149,27.3524,13.1608Q27.3235,13.1066,27.2893,13.0555Q27.2552,13.0045,27.2163,12.957Q27.1773,12.9095,27.1339,12.8661Q27.0905,12.8227,27.043,12.7837Q26.9955,12.7448,26.9445,12.7107Q26.8934,12.6765,26.8392,12.6476Q26.7851,12.6187,26.7283,12.5951Q26.6716,12.5717,26.6129,12.5538Q26.5541,12.536,26.4939,12.524Q26.4336,12.512,26.3725,12.506Q26.3114,12.5,26.25,12.5Q26.1886,12.5,26.1275,12.506Q26.0664,12.512,26.0061,12.524Q25.9459,12.536,25.8871,12.5538Q25.8284,12.5717,25.7716,12.5951Q25.7149,12.6187,25.6608,12.6476Q25.6066,12.6765,25.5555,12.7107Q25.5045,12.7448,25.457,12.7837Q25.4095,12.8227,25.3661,12.8661Q25.3227,12.9095,25.2837,12.957Q25.2448,13.0045,25.2107,13.0555Q25.1765,13.1066,25.1476,13.1608Q25.1186,13.2149,25.0951,13.2716Q25.0716,13.3284,25.0538,13.3871Q25.036,13.4459,25.024,13.5061Q25.012,13.5664,25.006,13.6275Q25,13.6886,25,13.75Q25,18.4072,21.7036,21.7036Q18.4072,25,13.75,25Q9.09277,25,5.79638,21.7036Q2.5,18.4072,2.5,13.75Q2.5,9.09277,5.79638,5.79638ZM27.5,1.25Q27.5,1.37311,27.476,1.49386Q27.452,1.61461,27.4049,1.72835Q27.3577,1.8421,27.2893,1.94446Q27.2209,2.04683,27.1339,2.13388L27.1337,2.1341L23.0178,6.25L25,6.25Q25.0614,6.25,25.1225,6.25602Q25.1836,6.26204,25.2439,6.27402Q25.3041,6.286,25.3629,6.30382Q25.4216,6.32165,25.4783,6.34515Q25.5351,6.36865,25.5892,6.3976Q25.6434,6.42655,25.6945,6.46066Q25.7455,6.49478,25.793,6.53374Q25.8405,6.57269,25.8839,6.61612Q25.9273,6.65954,25.9663,6.70701Q26.0052,6.75448,26.0393,6.80554Q26.0735,6.8566,26.1024,6.91075Q26.1313,6.96491,26.1548,7.02164Q26.1783,7.07838,26.1962,7.13714Q26.214,7.19591,26.226,7.25614Q26.238,7.31637,26.244,7.37748Q26.25,7.43859,26.25,7.5Q26.25,7.56141,26.244,7.62252Q26.238,7.68363,26.226,7.74386Q26.214,7.80409,26.1962,7.86286Q26.1783,7.92162,26.1548,7.97835Q26.1313,8.03509,26.1024,8.08924Q26.0735,8.1434,26.0393,8.19446Q26.0052,8.24552,25.9663,8.29299Q25.9273,8.34046,25.8839,8.38388Q25.8405,8.42731,25.793,8.46626Q25.7455,8.50522,25.6945,8.53934Q25.6434,8.57345,25.5892,8.6024Q25.5351,8.63135,25.4784,8.65485Q25.4216,8.67835,25.3629,8.69617Q25.3041,8.714,25.2439,8.72598Q25.1836,8.73796,25.1225,8.74398Q25.0614,8.75,25,8.75L20,8.75Q19.9386,8.75,19.8775,8.74398Q19.8164,8.73796,19.7561,8.72598Q19.6959,8.714,19.6371,8.69617Q19.5784,8.67835,19.5216,8.65485Q19.4649,8.63135,19.4108,8.6024Q19.3566,8.57345,19.3055,8.53934Q19.2545,8.50522,19.207,8.46626Q19.1595,8.42731,19.1161,8.38388Q19.0727,8.34046,19.0337,8.29299Q18.9948,8.24552,18.9607,8.19446Q18.9265,8.1434,18.8976,8.08925Q18.8686,8.03509,18.8451,7.97835Q18.8216,7.92162,18.8038,7.86286Q18.786,7.80409,18.774,7.74386Q18.762,7.68363,18.756,7.62252Q18.75,7.56141,18.75,7.5L18.75,2.5Q18.75,2.43859,18.756,2.37748Q18.762,2.31637,18.774,2.25614Q18.786,2.19591,18.8038,2.13714Q18.8216,2.07838,18.8451,2.02165Q18.8686,1.96491,18.8976,1.91075Q18.9265,1.8566,18.9607,1.80554Q18.9948,1.75448,19.0337,1.70701Q19.0727,1.65954,19.1161,1.61612Q19.1595,1.57269,19.207,1.53374Q19.2545,1.49478,19.3055,1.46066Q19.3566,1.42655,19.4108,1.3976Q19.4649,1.36865,19.5216,1.34515Q19.5784,1.32165,19.6371,1.30382Q19.6959,1.286,19.7561,1.27402Q19.8164,1.26204,19.8775,1.25602Q19.9386,1.25,20,1.25Q20.0614,1.25,20.1225,1.25602Q20.1836,1.26204,20.2439,1.27402Q20.3041,1.286,20.3629,1.30382Q20.4216,1.32165,20.4784,1.34515Q20.5351,1.36865,20.5892,1.3976Q20.6434,1.42655,20.6945,1.46066Q20.7455,1.49478,20.793,1.53374Q20.8405,1.57269,20.8839,1.61612Q20.9273,1.65954,20.9663,1.70701Q21.0052,1.75448,21.0393,1.80554Q21.0735,1.8566,21.1024,1.91075Q21.1313,1.96491,21.1548,2.02165Q21.1784,2.07838,21.1962,2.13714Q21.214,2.19591,21.226,2.25614Q21.238,2.31637,21.244,2.37748Q21.25,2.43859,21.25,2.5L21.25,4.48223L25.3659,0.366337L25.3661,0.366117Q25.4532,0.279062,25.5555,0.210663Q25.6579,0.142264,25.7716,0.0951506Q25.8854,0.0480368,26.0061,0.0240184Q26.1269,0,26.25,0Q26.3114,0,26.3725,0.00601909Q26.4336,0.0120382,26.4939,0.0240184Q26.5541,0.0359986,26.6129,0.0538246Q26.6716,0.0716505,26.7283,0.0951506Q26.7851,0.118651,26.8392,0.147598Q26.8934,0.176546,26.9445,0.210663Q26.9955,0.24478,27.043,0.283737Q27.0905,0.322694,27.1339,0.366116Q27.1773,0.409539,27.2163,0.457008Q27.2552,0.504478,27.2893,0.555537Q27.3235,0.606597,27.3524,0.660754Q27.3813,0.714912,27.4048,0.771646Q27.4283,0.82838,27.4462,0.887144Q27.464,0.945908,27.476,1.00614Q27.488,1.06637,27.494,1.12748Q27.5,1.18859,27.5,1.25ZM12.5,10.6123L12.45,10.6123Q12.2391,10.6123,12.0768,10.7838Q11.8875,10.9839,11.8875,11.2748Q11.8875,11.646,11.9628,11.7418Q12.0172,11.8111,12.2942,11.9097L12.5,11.9815L12.5,10.6123ZM12.5,14.6292L11.4558,14.2649Q9.38751,13.5287,9.38751,11.2748Q9.38751,9.98887,10.2607,9.06581Q11.1626,8.1123,12.45,8.1123L12.5001,8.1123Q12.5007,8.0513,12.5072,7.99064Q12.5138,7.92998,12.5262,7.87025Q12.5387,7.81052,12.5569,7.75229Q12.5751,7.69405,12.5988,7.63786Q12.6226,7.58167,12.6517,7.52807Q12.6809,7.47447,12.7151,7.42395Q12.7493,7.37344,12.7883,7.3265Q12.8273,7.27956,12.8706,7.23664Q12.914,7.19372,12.9613,7.15522Q13.0086,7.11673,13.0595,7.08303Q13.1104,7.04932,13.1643,7.02073Q13.2182,6.99214,13.2746,6.96894Q13.331,6.94573,13.3894,6.92814Q13.4478,6.91054,13.5077,6.89871Q13.5675,6.88688,13.6283,6.88094Q13.689,6.875,13.75,6.875Q13.8112,6.875,13.8721,6.88097Q13.933,6.88695,13.993,6.89884Q14.053,6.91073,14.1115,6.92843Q14.1701,6.94612,14.2267,6.96945Q14.2832,6.99278,14.3372,7.02152Q14.3912,7.05026,14.4422,7.08414Q14.4931,7.11802,14.5405,7.15671Q14.5879,7.1954,14.6313,7.23853Q14.6747,7.28166,14.7136,7.32883Q14.7526,7.37599,14.7868,7.42673Q14.821,7.47748,14.85,7.53131Q14.8791,7.58515,14.9027,7.64157Q14.9264,7.69799,14.9444,7.75645Q14.9625,7.81491,14.9747,7.87485Q14.987,7.93479,14.9933,7.99564Q14.9996,8.05649,15,8.11767Q16.2687,8.18643,17.1783,9.13733Q18.1371,10.1397,18.1375,11.5485L18.1375,11.5498Q18.1375,11.6112,18.1315,11.6723Q18.1255,11.7334,18.1135,11.7937Q18.1015,11.8539,18.0837,11.9127Q18.0659,11.9714,18.0424,12.0282Q18.0189,12.0849,17.9899,12.139Q17.961,12.1932,17.9268,12.2443Q17.8927,12.2953,17.8538,12.3428Q17.8148,12.3903,17.7714,12.4337Q17.728,12.4771,17.6805,12.5161Q17.633,12.555,17.582,12.5891Q17.5309,12.6233,17.4768,12.6522Q17.4226,12.6812,17.3659,12.7047Q17.3091,12.7282,17.2504,12.746Q17.1916,12.7638,17.1314,12.7758Q17.0711,12.7878,17.01,12.7938Q16.9489,12.7998,16.8875,12.7998Q16.8261,12.7998,16.765,12.7938Q16.7039,12.7878,16.6436,12.7758Q16.5834,12.7638,16.5247,12.746Q16.4659,12.7282,16.4092,12.7047Q16.3524,12.6812,16.2983,12.6522Q16.2441,12.6233,16.193,12.5891Q16.142,12.555,16.0945,12.5161Q16.0471,12.4771,16.0036,12.4337Q15.9602,12.3903,15.9212,12.3428Q15.8823,12.2953,15.8482,12.2443Q15.8141,12.1932,15.7851,12.139Q15.7562,12.0849,15.7327,12.0282Q15.7092,11.9714,15.6913,11.9127Q15.6735,11.8539,15.6615,11.7937Q15.6496,11.7334,15.6435,11.6723Q15.6375,11.6112,15.6375,11.5498Q15.6375,11.1433,15.3717,10.8654Q15.2063,10.6925,15,10.6377L15,12.8536L16.0492,13.2196Q18.125,13.9584,18.125,16.2123Q18.125,17.5071,17.2499,18.428Q16.3502,19.3748,15.0625,19.3748L15,19.3748L15,19.375Q15,19.4364,14.994,19.4975Q14.988,19.5586,14.976,19.6189Q14.964,19.6791,14.9462,19.7379Q14.9283,19.7966,14.9048,19.8533Q14.8813,19.9101,14.8524,19.9642Q14.8235,20.0184,14.7893,20.0695Q14.7552,20.1205,14.7163,20.168Q14.6773,20.2155,14.6339,20.2589Q14.5905,20.3023,14.543,20.3413Q14.4955,20.3802,14.4445,20.4143Q14.3934,20.4485,14.3392,20.4774Q14.2851,20.5063,14.2284,20.5298Q14.1716,20.5533,14.1129,20.5712Q14.0541,20.589,13.9939,20.601Q13.9336,20.613,13.8725,20.619Q13.8114,20.625,13.75,20.625Q13.6886,20.625,13.6275,20.619Q13.5664,20.613,13.5061,20.601Q13.4459,20.589,13.3871,20.5712Q13.3284,20.5533,13.2716,20.5298Q13.2149,20.5063,13.1608,20.4774Q13.1066,20.4485,13.0555,20.4143Q13.0045,20.3802,12.957,20.3413Q12.9095,20.3023,12.8661,20.2589Q12.8227,20.2155,12.7837,20.168Q12.7448,20.1205,12.7107,20.0695Q12.6765,20.0184,12.6476,19.9642Q12.6186,19.9101,12.5951,19.8533Q12.5716,19.7966,12.5538,19.7379Q12.536,19.6791,12.524,19.6189Q12.512,19.5586,12.506,19.4975Q12.5,19.4364,12.5,19.375L12.5,19.3687Q11.2393,19.296,10.3342,18.3498Q9.37531,17.3473,9.375,15.9382L9.375,15.9373Q9.375,15.8759,9.38102,15.8148Q9.38704,15.7537,9.39902,15.6934Q9.411,15.6332,9.42882,15.5744Q9.44665,15.5157,9.47015,15.4589Q9.49365,15.4022,9.5226,15.3481Q9.55154,15.2939,9.58566,15.2428Q9.61978,15.1918,9.65874,15.1443Q9.69769,15.0968,9.74112,15.0534Q9.78454,15.01,9.83201,14.971Q9.87948,14.9321,9.93053,14.898Q9.9816,14.8638,10.0358,14.8349Q10.0899,14.8059,10.1466,14.7824Q10.2034,14.7589,10.2621,14.7411Q10.3209,14.7233,10.3811,14.7113Q10.4414,14.6993,10.5025,14.6933Q10.5636,14.6873,10.625,14.6873Q10.6864,14.6873,10.7475,14.6933Q10.8086,14.6993,10.8689,14.7113Q10.9291,14.7233,10.9879,14.7411Q11.0466,14.7589,11.1034,14.7824Q11.1601,14.8059,11.2142,14.8349Q11.2684,14.8638,11.3195,14.898Q11.3705,14.9321,11.418,14.971Q11.4655,15.01,11.5089,15.0534Q11.5523,15.0968,11.5913,15.1443Q11.6302,15.1918,11.6643,15.2428Q11.6985,15.2939,11.7274,15.3481Q11.7563,15.4022,11.7798,15.4589Q11.8033,15.5157,11.8212,15.5744Q11.839,15.6332,11.851,15.6934Q11.863,15.7537,11.869,15.8148Q11.875,15.8759,11.875,15.9373Q11.875,16.3438,12.1408,16.6217Q12.3012,16.7894,12.5,16.846L12.5,14.6292ZM15,16.8748L15,15.5013L15.2258,15.5801Q15.4907,15.6744,15.5476,15.7473Q15.625,15.8464,15.625,16.2123Q15.625,16.5087,15.4376,16.7059Q15.2771,16.8748,15.0625,16.8748L15,16.8748Z" fill-rule="evenodd" fill="#A3A9D9" fill-opacity="1"/></g></svg>