<svg xmlns="http://www.w3.org/2000/svg" xmlns:xlink="http://www.w3.org/1999/xlink" fill="none" version="1.1" width="334" height="151" viewBox="0 0 334 151"><defs><linearGradient x1="0.5" y1="-3.0616171314629196e-17" x2="0.5" y2="1" id="master_svg0_0_956"><stop offset="0%" stop-color="#FFFFFF" stop-opacity="1"/><stop offset="100%" stop-color="#FFFFFF" stop-opacity="0.25"/></linearGradient><linearGradient x1="0.5" y1="-3.0616171314629196e-17" x2="0.5" y2="1" id="master_svg1_0_956"><stop offset="0%" stop-color="#FFFFFF" stop-opacity="1"/><stop offset="100%" stop-color="#FFFFFF" stop-opacity="0.25"/></linearGradient><linearGradient x1="0.5" y1="-3.0616171314629196e-17" x2="0.5" y2="1" id="master_svg2_0_956"><stop offset="0%" stop-color="#FFFFFF" stop-opacity="1"/><stop offset="100%" stop-color="#FFFFFF" stop-opacity="0.25"/></linearGradient><linearGradient x1="0.5" y1="-3.0616171314629196e-17" x2="0.5" y2="1" id="master_svg3_0_956"><stop offset="0%" stop-color="#FFFFFF" stop-opacity="1"/><stop offset="100%" stop-color="#FFFFFF" stop-opacity="0.25"/></linearGradient><linearGradient x1="0.5" y1="-3.0616171314629196e-17" x2="0.5" y2="1" id="master_svg4_0_956"><stop offset="0%" stop-color="#FFFFFF" stop-opacity="1"/><stop offset="100%" stop-color="#FFFFFF" stop-opacity="0.25"/></linearGradient><linearGradient x1="0.5" y1="-3.0616171314629196e-17" x2="0.5" y2="1" id="master_svg5_0_956"><stop offset="0%" stop-color="#FFFFFF" stop-opacity="1"/><stop offset="100%" stop-color="#FFFFFF" stop-opacity="0.25"/></linearGradient><linearGradient x1="0.5" y1="-3.0616171314629196e-17" x2="0.5" y2="1" id="master_svg6_0_956"><stop offset="0%" stop-color="#FFFFFF" stop-opacity="1"/><stop offset="100%" stop-color="#FFFFFF" stop-opacity="0.25"/></linearGradient><linearGradient x1="0.5" y1="-3.0616171314629196e-17" x2="0.5" y2="1" id="master_svg7_0_956"><stop offset="0%" stop-color="#FFFFFF" stop-opacity="1"/><stop offset="100%" stop-color="#FFFFFF" stop-opacity="0.25"/></linearGradient><linearGradient x1="0.5" y1="-3.0616171314629196e-17" x2="0.5" y2="1" id="master_svg8_0_956"><stop offset="0%" stop-color="#FFFFFF" stop-opacity="1"/><stop offset="100%" stop-color="#FFFFFF" stop-opacity="0.25"/></linearGradient><linearGradient x1="0.5" y1="-3.0616171314629196e-17" x2="0.5" y2="1" id="master_svg9_0_956"><stop offset="0%" stop-color="#FFFFFF" stop-opacity="1"/><stop offset="100%" stop-color="#FFFFFF" stop-opacity="0.25"/></linearGradient></defs><g><g><path d="M75,147L75.70711,148.29289L77,149L75.70711,149.70711L75,151L74.29289,149.70711L73,149L74.29289,148.29289L75,147Z" fill="url(#master_svg0_0_956)" fill-opacity="1" style="mix-blend-mode:overlay"/><path d="M75.70711,148.29289L75.56989,148.04201L75,147L74.43011,148.04201L74.29289,148.29289L74.04201,148.43011L73,149L74.04201,149.56989L74.29289,149.70711L74.43011,149.95799L75,151L75.56989,149.95799L75.70711,149.70711L77,149L75.70711,148.29289Z" fill-rule="evenodd" fill="#FFFFFF" fill-opacity="0.25" style="mix-blend-mode:soft-light"/></g><g><path d="M146,136L147.41421,138.58579L150,140L147.41421,141.41421L146,144L144.58579,141.41421L142,140L144.58579,138.58579L146,136Z" fill="url(#master_svg1_0_956)" fill-opacity="1" style="mix-blend-mode:overlay"/><path d="M147.41421,138.58579L146.56989,137.04201L146,136L145.43011,137.04201L144.58579,138.58579L143.04201,139.43011L142,140L143.04201,140.56989L144.58579,141.41421L145.43011,142.95799L146,144L146.56989,142.95799L147.41421,141.41421L148.95799,140.56989L150,140L148.95799,139.43011L147.41421,138.58579ZM147.91598,140L146.6774,139.3226L146,138.08402L145.3226,139.3226L144.08402,140L145.3226,140.6774L146,141.91598L146.6774,140.6774L147.91598,140Z" fill-rule="evenodd" fill="#FFFFFF" fill-opacity="0.25" style="mix-blend-mode:soft-light"/></g><g><path d="M175,126L175.70711,127.29289L177,128L175.70711,128.70711L175,130L174.29289,128.70711L173,128L174.29289,127.29289L175,126Z" fill="url(#master_svg2_0_956)" fill-opacity="1" style="mix-blend-mode:overlay"/><path d="M175.70711,127.29289L175.56989,127.04201L175,126L174.43011,127.04201L174.29289,127.29289L174.04201,127.43011L173,128L174.04201,128.56989L174.29289,128.70711L174.43011,128.95799L175,130L175.56989,128.95799L175.70711,128.70711L177,128L175.70711,127.29289Z" fill-rule="evenodd" fill="#FFFFFF" fill-opacity="0.25" style="mix-blend-mode:soft-light"/></g><g><path d="M330,98L331.41421,100.58579L334,102L331.41421,103.41421L330,106L328.58579,103.41421L326,102L328.58579,100.58579L330,98Z" fill="url(#master_svg3_0_956)" fill-opacity="1" style="mix-blend-mode:overlay"/><path d="M331.41421,100.58579L330.56989,99.04201L330,98L329.43011,99.04201L328.58579,100.58579L327.04201,101.43011L326,102L327.04201,102.56989L328.58579,103.41421L329.43011,104.95799L330,106L330.56989,104.95799L331.41421,103.41421L332.95799,102.56989L334,102L332.95799,101.43011L331.41421,100.58579ZM331.91598,102L330.6774,101.3226L330,100.08402L329.3226,101.3226L328.08402,102L329.3226,102.6774L330,103.91598L330.6774,102.6774L331.91598,102Z" fill-rule="evenodd" fill="#FFFFFF" fill-opacity="0.25" style="mix-blend-mode:soft-light"/></g><g><path d="M21,98L21.70711,99.29289L23,100L21.70711,100.70711L21,102L20.29289,100.70711L19,100L20.29289,99.29289L21,98Z" fill="url(#master_svg4_0_956)" fill-opacity="1" style="mix-blend-mode:overlay"/><path d="M21.70711,99.29289L21.56989,99.04201L21,98L20.43011,99.04201L20.29289,99.29289L20.04201,99.43011L19,100L20.04201,100.56989L20.29289,100.70711L20.43011,100.95799L21,102L21.56989,100.95799L21.70711,100.70711L23,100L21.70711,99.29289Z" fill-rule="evenodd" fill="#FFFFFF" fill-opacity="0.25" style="mix-blend-mode:soft-light"/></g><g><path d="M4,93L5.41421,95.58579L8,97L5.41421,98.41421L4,101L2.58579,98.41421L1.13687e-15,97L2.58579,95.58579L4,93Z" fill="url(#master_svg5_0_956)" fill-opacity="1" style="mix-blend-mode:overlay"/><path d="M5.41421,95.58579L4.56989,94.04201L4,93L3.43011,94.04201L2.58579,95.58579L1.04201,96.43011L0,97L1.04201,97.56989L2.58579,98.41421L3.43011,99.95799L4,101L4.56989,99.95799L5.41421,98.41421L6.95799,97.56989L8,97L6.95799,96.43011L5.41421,95.58579ZM5.91598,97L4.6774,96.3226L4,95.08402L3.3226,96.3226L2.08402,97L3.3226,97.6774L4,98.91598L4.6774,97.6774L5.91598,97Z" fill-rule="evenodd" fill="#FFFFFF" fill-opacity="0.25" style="mix-blend-mode:soft-light"/></g><g><path d="M97,15L98.06066,16.93934L100,18L98.06066,19.06066L97,21L95.93934,19.06066L94,18L95.93934,16.93934L97,15Z" fill="url(#master_svg6_0_956)" fill-opacity="1" style="mix-blend-mode:overlay"/><path d="M98.06066,16.93934L97.56989,16.04201L97,15L96.43011,16.04201L95.93934,16.93934L95.04201,17.43011L94,18L95.04201,18.56989L95.93934,19.06066L96.43011,19.95799L97,21L97.56989,19.95799L98.06066,19.06066L98.95799,18.56989L100,18L98.95799,17.43011L98.06066,16.93934ZM97.91598,18L97.32385,17.67615L97,17.08402L96.67615,17.67615L96.08402,18L96.67615,18.32385L97,18.91598L97.32385,18.32385L97.91598,18Z" fill-rule="evenodd" fill="#FFFFFF" fill-opacity="0.25" style="mix-blend-mode:soft-light"/></g><g><path d="M48,15L49.41421,17.58579L52,19L49.41421,20.41421L48,23L46.58579,20.41421L44,19L46.58579,17.58579L48,15Z" fill="url(#master_svg7_0_956)" fill-opacity="1" style="mix-blend-mode:overlay"/><path d="M49.41421,17.58579L48.56989,16.04201L48,15L47.43011,16.04201L46.58579,17.58579L45.04201,18.43011L44,19L45.04201,19.56989L46.58579,20.41421L47.43011,21.95799L48,23L48.56989,21.95799L49.41421,20.41421L50.95799,19.56989L52,19L50.95799,18.43011L49.41421,17.58579ZM49.91598,19L48.6774,18.3226L48,17.08402L47.3226,18.3226L46.08402,19L47.3226,19.6774L48,20.91598L48.6774,19.6774L49.91598,19Z" fill-rule="evenodd" fill="#FFFFFF" fill-opacity="0.25" style="mix-blend-mode:soft-light"/></g><g><path d="M258,9L259.06066,10.93934L261,12L259.06066,13.06066L258,15L256.93934,13.06066L255,12L256.93934,10.93934L258,9Z" fill="url(#master_svg8_0_956)" fill-opacity="1" style="mix-blend-mode:overlay"/><path d="M259.06066,10.93934L258.56989,10.04201L258,9L257.43011,10.04201L256.93934,10.93934L256.04201,11.430109999999999L255,12L256.04201,12.569890000000001L256.93934,13.06066L257.43011,13.957989999999999L258,15L258.56989,13.957989999999999L259.06066,13.06066L259.95799,12.569890000000001L261,12L259.95799,11.430109999999999L259.06066,10.93934ZM258.91598,12L258.32385,11.67615L258,11.08402L257.67615,11.67615L257.08402,12L257.67615,12.32385L258,12.91598L258.32385,12.32385L258.91598,12Z" fill-rule="evenodd" fill="#FFFFFF" fill-opacity="0.25" style="mix-blend-mode:soft-light"/></g><g><path d="M228,2.84217e-16L228.70711,1.29289L230,2L228.70711,2.70711L228,4L227.29289,2.70711L226,2L227.29289,1.29289L228,2.84217e-16Z" fill="url(#master_svg9_0_956)" fill-opacity="1" style="mix-blend-mode:overlay"/><path d="M228.70711,1.29289L228.56989,1.04201L228,0L227.43011,1.04201L227.29289,1.29289L227.04201,1.43011L226,2L227.04201,2.56989L227.29289,2.70711L227.43011,2.95799L228,4L228.56989,2.95799L228.70711,2.70711L230,2L228.70711,1.29289Z" fill-rule="evenodd" fill="#FFFFFF" fill-opacity="0.25" style="mix-blend-mode:soft-light"/></g></g></svg>