<svg xmlns="http://www.w3.org/2000/svg" xmlns:xlink="http://www.w3.org/1999/xlink" fill="none" version="1.1" width="30" height="30" viewBox="0 0 30 30"><g><g><g><path d="M24.5459,5.45406Q20.5919,1.5,15,1.5Q9.40812,1.5,5.45406,5.45406Q1.5,9.40812,1.5,15Q1.5,20.5919,5.45406,24.5459Q9.40811,28.5,15,28.5Q20.5919,28.5,24.5459,24.5459Q28.5,20.5919,28.5,15Q28.5,9.40811,24.5459,5.45406ZM6.86827,6.86827Q10.23654,3.5,15,3.5Q19.7635,3.5,23.1317,6.86827Q26.5,10.236550000000001,26.5,15Q26.5,19.7635,23.1317,23.1317Q19.7635,26.5,15,26.5Q10.236550000000001,26.5,6.86827,23.1317Q3.5,19.7635,3.5,15Q3.5,10.236550000000001,6.86827,6.86827Z" fill-rule="evenodd" fill="#91AAF2" fill-opacity="1"/></g><g><path d="M9.890533,25.256Q8.421875,20.2485,8.421875,15Q8.421875,9.75152,9.890531,4.74399Q9.799507,4.733966,9.711818,4.7075759999999995Q9.624129,4.681186,9.542692,4.639308Q9.4612546,4.597431,9.3887777,4.541459Q9.316301,4.485487,9.255195,4.417282Q9.19409,4.349077,9.146388,4.270909Q9.098686,4.19274,9.065975,4.107208Q9.033264,4.021675,9.016632,3.931625Q9,3.8415739,9,3.75Q9,3.6515086,9.019214999999999,3.55491Q9.03843,3.458311,9.076121,3.367317Q9.113812,3.276322,9.168531,3.19443Q9.22325,3.112537,9.292894,3.042893Q9.3625375,2.973249,9.4444301,2.91853Q9.526323,2.8638120000000002,9.617317,2.826121Q9.708311,2.78843,9.80491,2.769215Q9.901509,2.75,10,2.75L11.250005,2.75Q11.412545,2.75,11.566715,2.801479Q11.755385,2.864478,11.905595,2.9948829999999997Q12.055795,3.125288,12.144655,3.303247Q12.233525,3.481205,12.247525,3.679623Q12.261524999999999,3.878041,12.198525,4.066713Q10.421875,9.387540000000001,10.421875,15Q10.421875,20.6125,12.198525,25.9333Q12.250005,26.0875,12.250005,26.25Q12.250005,26.3485,12.230785000000001,26.4451Q12.211575,26.5417,12.173885,26.6327Q12.136185,26.7237,12.081475000000001,26.8056Q12.026755,26.8875,11.957105,26.9571Q11.887465,27.0267,11.805575000000001,27.0815Q11.723675,27.1362,11.632685,27.1739Q11.541685000000001,27.2116,11.445095,27.2308Q11.348495,27.25,11.250005,27.25L10,27.25Q9.901509,27.25,9.80491,27.2308Q9.708311,27.2116,9.617317,27.1739Q9.526323,27.1362,9.4444301,27.0815Q9.3625375,27.0267,9.292894,26.9571Q9.22325,26.8875,9.168531,26.8056Q9.113812,26.7237,9.076121,26.6327Q9.03843,26.5417,9.019214999999999,26.4451Q9,26.3485,9,26.25Q9,26.1584,9.016632,26.0684Q9.033265,25.9783,9.065976,25.8928Q9.098686,25.8073,9.146388,25.7291Q9.19409,25.6509,9.255196,25.5827Q9.316302,25.5145,9.3887786,25.4585Q9.4612557,25.4026,9.542693,25.3607Q9.624131,25.3188,9.71182,25.2924Q9.799509,25.266,9.890533,25.256Z" fill-rule="evenodd" fill="#91AAF2" fill-opacity="1"/></g><g><path d="M17.801479,4.066715Q17.75,3.912541,17.75,3.75Q17.75,3.6515086,17.769215,3.55491Q17.788429999999998,3.458311,17.826121,3.367317Q17.863812,3.276322,17.91853,3.19443Q17.973249,3.112537,18.042893,3.042893Q18.112537,2.973249,18.19443,2.91853Q18.276322,2.8638120000000002,18.367317,2.826121Q18.458311,2.78843,18.55491,2.769215Q18.6515086,2.75,18.75,2.75Q18.828192,2.75,18.905434,2.7621539999999998Q18.982675,2.774307,19.057089,2.7983190000000002Q19.131503,2.822331,19.20128,2.857618Q19.271057,2.892904,19.334502,2.938608Q19.397946,2.984311,19.453516,3.03932Q19.509085,3.0943300000000002,19.555429,3.157308Q19.601773,3.2202859999999998,19.637765,3.289702Q19.673756,3.359118,19.698521,3.433285Q21.57812,9.06245,21.57812,15Q21.57813,20.9375,19.698521,26.5667Q19.673756,26.6409,19.637764,26.7103Q19.601773,26.7797,19.555429,26.8427Q19.509085,26.9057,19.453516,26.9607Q19.397946,27.0157,19.334502,27.0614Q19.271057,27.1071,19.20128,27.1424Q19.131503,27.1777,19.057089,27.2017Q18.982675,27.2257,18.905434,27.2378Q18.828192,27.25,18.75,27.25Q18.6515086,27.25,18.55491,27.2308Q18.458311,27.2116,18.367317,27.1739Q18.276322,27.1362,18.19443,27.0815Q18.112537,27.0267,18.042893,26.9571Q17.973249,26.8875,17.91853,26.8056Q17.863812,26.7237,17.826121,26.6327Q17.788429999999998,26.5417,17.769215,26.4451Q17.75,26.3485,17.75,26.25Q17.75,26.0875,17.801479,25.9333Q19.578125,20.6125,19.578125,15Q19.578125,9.387540000000001,17.801479,4.066715Z" fill-rule="evenodd" fill="#91AAF2" fill-opacity="1"/></g><g><path d="M25.256,20.10947Q20.2485,21.57812,15,21.57812Q9.75152,21.57812,4.74399,20.10947Q4.733966,20.20049,4.7075759999999995,20.28818Q4.681186,20.37587,4.639308,20.45731Q4.597431,20.53875,4.541459,20.61122Q4.485487,20.6837,4.417282,20.74481Q4.349077,20.80591,4.270909,20.85361Q4.19274,20.90131,4.107208,20.93403Q4.021675,20.96674,3.931625,20.98337Q3.8415739,21,3.75,21Q3.6515086,21,3.55491,20.98079Q3.458311,20.961570000000002,3.367317,20.92388Q3.276322,20.88619,3.19443,20.83147Q3.112537,20.77675,3.042893,20.70711Q2.973249,20.63746,2.91853,20.55557Q2.8638120000000002,20.47368,2.826121,20.38268Q2.78843,20.29169,2.769215,20.19509Q2.75,20.098489999999998,2.75,20L2.75,18.75Q2.75,18.587459,2.801479,18.433285Q2.8326729999999998,18.339864,2.881493,18.254323Q2.930313,18.168783,2.9948829999999997,18.09441Q3.059453,18.020038,3.1372910000000003,17.959691Q3.2151300000000003,17.899345,3.303246,17.855343Q3.391362,17.811342,3.486369,17.785377Q3.581376,17.759411,3.6796233,17.75248Q3.7778705,17.74555,3.875582,17.757917Q3.973294,17.770286,4.066715,17.801479Q9.387540000000001,19.578125,15,19.578125Q20.6125,19.578125,25.9333,17.801479Q26.0875,17.75,26.25,17.75Q26.3485,17.75,26.4451,17.769215Q26.5417,17.788429999999998,26.6327,17.826121Q26.7237,17.863812,26.8056,17.91853Q26.8875,17.973249,26.9571,18.042893Q27.0267,18.112537,27.0815,18.19443Q27.1362,18.276322,27.1739,18.367317Q27.2116,18.458311,27.2308,18.55491Q27.25,18.6515086,27.25,18.75L27.25,20Q27.25,20.098489999999998,27.2308,20.19509Q27.2116,20.29169,27.1739,20.38268Q27.1362,20.47368,27.0815,20.55557Q27.0267,20.63746,26.9571,20.70711Q26.8875,20.77675,26.8056,20.83147Q26.7237,20.88619,26.6327,20.92388Q26.5417,20.961570000000002,26.4451,20.98079Q26.3485,21,26.25,21Q26.1584,21,26.0684,20.98337Q25.9783,20.96674,25.8928,20.93402Q25.8073,20.90131,25.7291,20.85361Q25.6509,20.80591,25.5827,20.7448Q25.5145,20.6837,25.4585,20.61122Q25.4026,20.53875,25.3607,20.45731Q25.3188,20.37587,25.2924,20.28818Q25.266,20.20049,25.256,20.10947Z" fill-rule="evenodd" fill="#91AAF2" fill-opacity="1"/></g><g><path d="M25.933,12.198415L25.9333,12.198525Q26.0875,12.250005,26.25,12.250005Q26.3485,12.250005,26.4451,12.230785000000001Q26.5417,12.211575,26.6327,12.173885Q26.7237,12.136185,26.8056,12.081475000000001Q26.8875,12.026755,26.9571,11.957105Q27.0267,11.887465,27.0815,11.805575000000001Q27.1362,11.723675,27.1739,11.632685Q27.2116,11.541685000000001,27.2308,11.445095Q27.25,11.348495,27.25,11.250005Q27.25,11.171804999999999,27.2378,11.094565Q27.2257,11.017325,27.2017,10.942915Q27.1777,10.868495,27.1424,10.798725Q27.1071,10.728945,27.0614,10.665495Q27.0157,10.602055,26.9607,10.546485Q26.9057,10.490915,26.8427,10.444575Q26.7797,10.398227,26.7103,10.362236Q26.6409,10.326243999999999,26.5667,10.30148L26.5657,10.301158000000001Q20.937,8.421875,15,8.421875Q9.06246,8.421875,3.433283,10.30148Q3.359116,10.326245,3.2897,10.362237Q3.220284,10.398229,3.157306,10.444575Q3.094328,10.490915,3.039319,10.546485Q2.98431,10.602055,2.938607,10.665495Q2.892904,10.728945,2.857617,10.798725Q2.822331,10.868495,2.7983190000000002,10.942915Q2.774307,11.017325,2.7621539999999998,11.094565Q2.75,11.171804999999999,2.75,11.250005Q2.75,11.348495,2.769215,11.445095Q2.78843,11.541685000000001,2.826121,11.632685Q2.8638120000000002,11.723675,2.91853,11.805575000000001Q2.973249,11.887465,3.042893,11.957105Q3.112537,12.026755,3.19443,12.081475000000001Q3.276322,12.136185,3.367317,12.173885Q3.458311,12.211575,3.55491,12.230785000000001Q3.6515086,12.250005,3.75,12.250005Q3.91254,12.250005,4.066713,12.198525L4.067904,12.198125000000001Q9.388169999999999,10.421875,15,10.421875Q20.6113,10.421875,25.9312,12.197815L25.933,12.198415Z" fill-rule="evenodd" fill="#91AAF2" fill-opacity="1"/></g></g></g></svg>