<svg xmlns="http://www.w3.org/2000/svg" xmlns:xlink="http://www.w3.org/1999/xlink" fill="none" version="1.1" width="20.5" height="20.5" viewBox="0 0 20.5 20.5"><g><g><path d="M11.642304609375,13.4270165625C11.642304609375,14.1957665625,11.018764609375,14.8193065625,10.250014609375,14.8193065625C9.703349609375,14.8193065625,9.233557609375,14.5032665625,9.011474609375,14.0505565625C9.011474609375,14.0505565625,10.873554609375,12.1884765625,10.873554609375,12.1884765625C11.326264609375,12.4105595625,11.642304609375,12.8803515625,11.642304609375,13.4270165625Z" fill="#FFFFFF" fill-opacity="1"/></g><g><path d="M18.595445703125,1.90397753125C18.339245703125,1.64772783125,17.920745703125,1.64772783125,17.664445703125,1.90397753125C17.664445703125,1.90397753125,15.264245703125,4.30418953125,15.264245703125,4.30418953125C14.606545703125,2.57876953125,12.923845703125,1.70751953125,10.250285703125,1.70751953125C5.441325703125,1.70751953125,4.886115703125,4.76543953125,4.886115703125,7.07168953125C4.886115703125,7.07168953125,4.886115703125,8.13938953125,4.886115703125,8.13938953125C4.894655703125,8.13938953125,4.903195703125,8.13938953125,4.911745703125,8.13938953125C2.494449703125,8.429809531250001,1.708616523125,9.63418953125,1.708616523125,12.63231953125C1.708616523125,12.63231953125,1.708616523125,14.22101953125,1.708616523125,14.22101953125C1.708616523125,15.58771953125,1.870908703125,16.578519531250002,2.280908703125,17.28751953125C2.280908703125,17.28751953125,1.896533703125,17.671919531249998,1.896533703125,17.671919531249998C1.640283203125,17.92811953125,1.640283203125,18.34671953125,1.896533703125,18.60291953125C2.0331997031249998,18.72251953125,2.195491703125,18.79081953125,2.366324703125,18.79081953125C2.537157703125,18.79081953125,2.699449703125,18.72251953125,2.827575703125,18.59441953125C2.827575703125,18.59441953125,18.595445703125,2.82647953125,18.595445703125,2.82647953125C18.860245703125,2.57022753125,18.860245703125,2.16022753125,18.595445703125,1.90397753125ZM6.278405703125,8.06251953125C6.210075703125,8.06251953125,6.150285703125,8.06251953125,6.081945703125,8.06251953125C6.081945703125,8.06251953125,6.081945703125,7.07168953125,6.081945703125,7.07168953125C6.081945703125,4.56897953125,6.790905703125,2.90334953125,10.250285703125,2.90334953125C13.154445703125,2.90334953125,14.068445703125,4.01376953125,14.324645703125,5.25230953125C14.324645703125,5.25230953125,11.514445703125,8.06251953125,11.514445703125,8.06251953125C11.514445703125,8.06251953125,6.278405703125,8.06251953125,6.278405703125,8.06251953125C6.278405703125,8.06251953125,6.278405703125,8.06251953125,6.278405703125,8.06251953125Z" fill="#FFFFFF" fill-opacity="1"/></g><g><path d="M18.791671484375,12.632347187499999C18.791671484375,12.632347187499999,18.791671484375,14.2210971875,18.791671484375,14.2210971875C18.791671484375,17.723187187500002,17.723971484375,18.790867187499998,14.221931484375,18.790867187499998C14.221931484375,18.790867187499998,6.329428484375,18.790867187499998,6.329428484375,18.790867187499998C5.569220684375,18.790867187499998,5.193387484375,17.8683971875,5.731512484375,17.3302671875C5.731512484375,17.3302671875,8.140261484375,14.921517187500001,8.140261484375,14.921517187500001C8.200051484374999,15.0069371875,8.268391484375,15.0838071875,8.336721484375,15.160687187499999C8.934641484375,15.8098471875,9.822971484375,16.151517187499998,10.805261484375,15.9465171875C10.882141484375001,15.9294371875,10.959011484375,15.9123471875,11.035891484375,15.8781871875C11.112761484375,15.8610971875,11.181091484375,15.8354771875,11.249431484375,15.8013071875C11.420261484375,15.741517187500001,11.582551484375,15.6475571875,11.736301484375,15.5365171875C11.796091484375001,15.5023571875,11.847341484375,15.4596471875,11.890051484375,15.4169371875C12.018181484374999,15.314437187500001,12.137761484375,15.194847187499999,12.240261484375,15.0667271875C12.282971484375,15.0240171875,12.325681484375,14.9727671875,12.359841484375,14.912977187500001C12.470891484374999,14.759227187499999,12.564841484375,14.5969371875,12.624641484375001,14.4260971875C12.658801484375001,14.3577671875,12.684431484375,14.289437187499999,12.701511484375,14.2125571875C12.735681484375,14.1356871875,12.752761484375,14.058807187500001,12.769841484375,13.9819371875C12.974841484375,12.999647187499999,12.633181484375001,12.1113071875,11.984011484375,11.5133971875C11.915681484375,11.4450571875,11.830261484375,11.3767271875,11.744841484375,11.3169371875C11.744841484375,11.3169371875,14.409851484375,8.6519351875,14.409851484375,8.6519351875C14.452551484375,8.6092261875,14.486721484375,8.5750591875,14.529431484375,8.5408931875C14.871101484375,8.2590181875,15.306721484375,8.1223514875,15.742371484375,8.1565181075C15.819271484375,8.1650597875,15.904671484375,8.1736013875,15.981471484375,8.1906847875C16.126671484375002,8.2163097875,16.271971484375,8.2504760875,16.408571484375003,8.2846431875C16.545271484375,8.3188091875,16.673371484375,8.3615181875,16.801471484375,8.4042261875C17.049171484375,8.4981851875,17.262771484375,8.6092261875,17.459271484375,8.7373511875C17.655671484375,8.8654761875,17.817971484375,9.0192261875,17.971771484374997,9.1985971875C18.048571484375,9.2925571875,18.125471484374998,9.3950571875,18.185271484375,9.5060971875C18.245071484375,9.6000571875,18.296271484374998,9.7025571875,18.347571484375003,9.813597187500001C18.398771484375,9.9246471875,18.441471484375,10.0442271875,18.484171484375,10.1638071875C18.535471484375,10.3090171875,18.578171484374998,10.471307187499999,18.612371484375,10.6421471875C18.646471484375,10.7617271875,18.663571484374998,10.8898471875,18.689171484375002,11.0265171875C18.706271484375,11.1546471875,18.723371484375,11.2913071875,18.740471484375,11.4365171875C18.774671484375,11.7952671875,18.791671484375,12.196727187499999,18.791671484375,12.632347187499999Z" fill="#FFFFFF" fill-opacity="1"/></g></g></svg>