<svg xmlns="http://www.w3.org/2000/svg" xmlns:xlink="http://www.w3.org/1999/xlink" fill="none" version="1.1" width="53.5" height="53.5" viewBox="0 0 53.5 53.5"><g><g><path d="M0,19.25L0,34.25Q0,44.3499,4.575060000000001,48.9249Q9.150120000000001,53.5,19.25,53.5L34.25,53.5Q44.3499,53.5,48.9249,48.9249Q53.5,44.3499,53.5,34.25L53.5,19.25Q53.5,9.150120000000001,48.9249,4.575060000000001Q44.3499,0,34.25,0L19.25,0Q9.150120000000001,0,4.575060000000001,4.575060000000001Q0,9.15013,0,19.25ZM7.04994,46.4501Q3.5,42.9001,3.5,34.25L3.5,19.25Q3.5,10.59987,7.04994,7.04994Q10.59988,3.5,19.25,3.5L34.25,3.5Q42.9001,3.5,46.4501,7.04994Q50,10.59987,50,19.25L50,34.25Q50,42.9001,46.4501,46.4501Q42.9001,50,34.25,50L19.25,50Q10.59987,50,7.04994,46.4501Z" fill-rule="evenodd" fill="#333C66" fill-opacity="1"/></g><g><path d="M42.35,30.97477149963379L51.7,30.97477149963379Q51.786,30.97477149963379,51.8715,30.96634149963379Q51.9571,30.957921499633787,52.0414,30.94114149963379Q52.1257,30.92437149963379,52.208,30.89942149963379Q52.2903,30.87446149963379,52.3697,30.84156149963379Q52.4491,30.80866149963379,52.5249,30.76813149963379Q52.6008,30.727611499633788,52.6722,30.67984149963379Q52.7437,30.632081499633788,52.8102,30.57754149963379Q52.8766,30.52300149963379,52.9374,30.46221149963379Q52.9982,30.401421499633788,53.0528,30.33496149963379Q53.1073,30.26850149963379,53.1551,30.19701949963379Q53.2028,30.12553649963379,53.2434,30.049715499633788Q53.2839,29.973895499633787,53.3168,29.894467499633787Q53.3497,29.81503949963379,53.3746,29.73276949963379Q53.3996,29.65049949963379,53.4164,29.56617949963379Q53.4331,29.48185949963379,53.4416,29.39630149963379Q53.45,29.31074349963379,53.45,29.22477149963379Q53.45,29.138799499633787,53.4416,29.05324149963379Q53.4331,28.96768349963379,53.4164,28.883363499633788Q53.3996,28.79904349963379,53.3746,28.71677349963379Q53.3497,28.634503499633787,53.3168,28.55507549963379Q53.2839,28.47564749963379,53.2434,28.39982749963379Q53.2028,28.32400649963379,53.1551,28.25252349963379Q53.1073,28.18104149963379,53.0528,28.11458149963379Q52.9982,28.04812149963379,52.9374,27.98733149963379Q52.8766,27.92654149963379,52.8102,27.87200149963379Q52.7437,27.81746149963379,52.6722,27.76970149963379Q52.6008,27.72193149963379,52.5249,27.68141149963379Q52.4491,27.64088149963379,52.3697,27.607981499633787Q52.2903,27.57508149963379,52.208,27.55012149963379Q52.1257,27.52517149963379,52.0414,27.508401499633788Q51.9571,27.49162149963379,51.8715,27.48320149963379Q51.786,27.47477149963379,51.7,27.47477149963379L42.35,27.47477149963379Q40.4274,27.47477149963379,38.7956,28.48808749963379Q37.1694,29.497898499633788,36.3098,31.21715149963379L34.083,35.69565149963379Q33.668,36.52567149963379,32.8831,37.01308149963379Q32.0993,37.49977149963379,31.175,37.49977149963379L22.35,37.49977149963379Q20.3228,37.49977149963379,19.4095,35.705821499633785L17.192,31.245651499633787Q16.3306,29.522896499633788,14.7044,28.51308649963379Q13.0726,27.499771499633788,11.15,27.499771499633788L1.75,27.499771499633788Q1.664028,27.499771499633788,1.57847,27.50820149963379Q1.492912,27.51662149963379,1.408592,27.53340149963379Q1.3242720000000001,27.550171499633787,1.242002,27.575121499633788Q1.159732,27.600081499633788,1.080304,27.63298149963379Q1.0008759999999999,27.665881499633787,0.925056,27.706411499633788Q0.849235,27.746941499633788,0.777752,27.79470149963379Q0.70627,27.84246149963379,0.63981,27.897001499633788Q0.57335,27.951541499633787,0.5125599999999999,28.012331499633788Q0.45177,28.07313149963379,0.39722999999999997,28.13958149963379Q0.34268999999999994,28.206041499633788,0.2949299999999999,28.27752449963379Q0.24716000000000005,28.34900749963379,0.20663999999999993,28.42482749963379Q0.16610999999999998,28.50064849963379,0.13321000000000005,28.58007649963379Q0.1003099999999999,28.65950349963379,0.07535000000000003,28.74177349963379Q0.0504,28.824043499633788,0.03363000000000005,28.908364499633787Q0.01685000000000003,28.99268449963379,0.008429999999999938,29.078242499633788Q0,29.16380009963379,0,29.249772099633788Q0,29.33574449963379,0.008429999999999938,29.42130249963379Q0.01685000000000003,29.506860499633788,0.03363000000000005,29.59118049963379Q0.0504,29.675500499633788,0.07535000000000003,29.75777049963379Q0.1003099999999999,29.84004049963379,0.13321000000000005,29.91946849963379Q0.16610999999999998,29.99889549963379,0.20663999999999993,30.074716499633787Q0.24716000000000005,30.150536499633787,0.2949299999999999,30.222019499633788Q0.34268999999999994,30.293501499633788,0.39722999999999997,30.35996149963379Q0.45177,30.42642149963379,0.5125599999999999,30.48721149963379Q0.57335,30.548001499633788,0.63981,30.602541499633787Q0.70627,30.65708149963379,0.777752,30.70484149963379Q0.849235,30.75261149963379,0.925056,30.793131499633787Q1.0008759999999999,30.833661499633788,1.080304,30.86656149963379Q1.159732,30.899461499633787,1.242002,30.924421499633787Q1.3242720000000001,30.949371499633788,1.408592,30.96614149963379Q1.492912,30.98292149963379,1.57847,30.99134149963379Q1.664028,30.999771499633788,1.75,30.999771499633788L11.15,30.999771499633788Q12.0743,30.999771499633788,12.8581,31.48646149963379Q13.643,31.973871499633788,14.058,32.80389149963379L16.2905,37.29372149963379Q17.485599999999998,39.64127149963379,19.7601,40.53487149963379Q20.9436,40.99977149963379,22.35,40.99977149963379L31.175,40.99977149963379Q33.0976,40.99977149963379,34.7294,39.98647149963379Q36.3556,38.976641499633786,37.217,37.25389149963379L39.4403,32.78239149963379Q39.857,31.94886149963379,40.6419,31.46146149963379Q41.4257,30.97477149963379,42.35,30.97477149963379Z" fill-rule="evenodd" fill="#333C66" fill-opacity="1"/></g></g></svg>