<svg xmlns="http://www.w3.org/2000/svg" xmlns:xlink="http://www.w3.org/1999/xlink" fill="none" version="1.1" width="44" height="44" viewBox="0 0 44 44"><g><g><g><path d="M4.45061,12.60473L4.01044,21.7748L4.0102,21.7801Q3.8084499999999997,26.3194,7.01473,29.5257L15.31973,37.8307Q18.3166,40.8275,22.561,40.8275Q26.8031,40.8275,29.8132,37.8335L37.8644,29.7823Q40.8612,26.7855,40.8612,22.541Q40.8612,18.299,37.8672,15.28886L29.5387,6.9970099999999995Q26.3194,3.77774,21.8021,4.01372L12.6418,4.4534Q9.31925,4.602906,6.96632,6.94692Q4.617328,9.28702,4.45061,12.60473ZM7.00701,21.9186L7.0072399999999995,21.9133L7.44683,12.755289999999999Q7.555400000000001,10.59469,9.08361,9.07226Q10.613990000000001,7.54768,12.78564,7.44995L21.9586,7.00963Q25.1424,6.84332,27.4221,9.12301L35.7402,17.4045Q37.8612,19.5369,37.8612,22.541Q37.8612,25.5429,35.7431,27.661L27.6976,35.7065Q25.5652,37.8275,22.561,37.8275Q19.5592,37.8275,17.441000000000003,35.7093L9.136050000000001,27.4043Q6.86604,25.1343,7.00701,21.9186Z" fill-rule="evenodd" fill="#FFFFFF" fill-opacity="1"/></g><g><path d="M22.147920038604738,13.53046428088379Q20.366150038604736,11.748697280883789,17.846350038604736,11.748697280883789Q15.326550038604736,11.748697280883789,13.544787038604737,13.53046428088379Q11.763020038604736,15.31222728088379,11.763020038604736,17.83202728088379Q11.763020038604736,20.35182728088379,13.544787038604737,22.13359728088379Q15.326550038604736,23.915397280883788,17.846350038604736,23.915397280883788Q20.366150038604736,23.915397280883788,22.147920038604738,22.13359728088379Q23.929720038604735,20.35182728088379,23.929720038604735,17.83202728088379Q23.929720038604735,15.31222728088379,22.147920038604738,13.53046428088379ZM15.666110038604737,15.65178728088379Q16.569190038604738,14.748697280883789,17.846350038604736,14.748697280883789Q19.123510038604735,14.748697280883789,20.026600038604737,15.65178728088379Q20.929690038604736,16.55486728088379,20.929690038604736,17.83202728088379Q20.929690038604736,19.109187280883788,20.026600038604737,20.01227728088379Q19.123510038604735,20.91536728088379,17.846350038604736,20.91536728088379Q16.569190038604738,20.91536728088379,15.666110038604737,20.01227728088379Q14.763020038604736,19.109187280883788,14.763020038604736,17.83202728088379Q14.763020038604736,16.55486728088379,15.666110038604737,15.65178728088379Z" fill-rule="evenodd" fill="#FEDC33" fill-opacity="1"/></g><g><path d="M32.65700956176758,25.309357280883788Q32.76147956176758,25.20489228088379,32.84355956176758,25.082053280883787Q32.92562956176758,24.95921428088379,32.98216956176758,24.822722280883788Q33.038709561767575,24.68623128088379,33.06752956176758,24.54133328088379Q33.09634956176758,24.39643428088379,33.09634956176758,24.24869728088379Q33.09634956176758,24.17500698088379,33.08912956176758,24.10167128088379Q33.081909561767574,24.02833628088379,33.06752956176758,23.95606228088379Q33.053149561767576,23.88378728088379,33.03175956176758,23.81327028088379Q33.010369561767575,23.74275328088379,32.98216956176758,23.67467228088379Q32.95396956176758,23.60659128088379,32.91922956176758,23.54160228088379Q32.884499561767576,23.47661328088379,32.84355956176758,23.415342280883788Q32.80261956176758,23.35407028088379,32.75586956176758,23.29710728088379Q32.70911956176758,23.24014728088379,32.65700956176758,23.18803728088379Q32.60490956176758,23.135927280883788,32.54793956176758,23.08917728088379Q32.490979561767574,23.04243728088379,32.42970956176758,23.00149728088379Q32.36843956176758,22.96055728088379,32.30344956176758,22.925817280883788Q32.23845956176758,22.89107728088379,32.170379561767575,22.86287728088379Q32.10229956176758,22.83467728088379,32.03177956176758,22.813287280883788Q31.961259561767577,22.791897280883788,31.888989561767577,22.77751728088379Q31.816709561767578,22.76314728088379,31.74337956176758,22.75591728088379Q31.670039561767577,22.74869728088379,31.59634956176758,22.74869728088379Q31.44861956176758,22.74869728088379,31.30371956176758,22.77751728088379Q31.15881956176758,22.80633728088379,31.022329561767577,22.86287728088379Q30.88583956176758,22.91941728088379,30.76299956176758,23.00149728088379Q30.64015956176758,23.083567280883788,30.535689561767576,23.18803728088379L23.20235956176758,30.521367280883787Q23.097889561767577,30.62583728088379,23.01581956176758,30.74867728088379Q22.933739561767577,30.87151728088379,22.87719956176758,31.00800728088379Q22.820659561767577,31.14449728088379,22.791839561767578,31.28939728088379Q22.763019561767578,31.43429728088379,22.763019561767578,31.58202728088379Q22.763019561767578,31.65571728088379,22.77023956176758,31.72905728088379Q22.777469561767578,31.80238728088379,22.791839561767578,31.874667280883788Q22.806219561767577,31.946937280883787,22.827609561767577,32.01745728088379Q22.848999561767577,32.08797728088379,22.87719956176758,32.156057280883786Q22.905399561767577,32.22413728088379,22.940139561767577,32.28912728088379Q22.97487956176758,32.35411728088379,23.01581956176758,32.41538728088379Q23.056759561767578,32.476657280883785,23.103499561767578,32.53361728088379Q23.150249561767577,32.59058728088379,23.20235956176758,32.64268728088379Q23.25446956176758,32.69479728088379,23.31142956176758,32.74154728088379Q23.36839256176758,32.78829728088379,23.429664561767577,32.82923728088379Q23.49093556176758,32.87017728088379,23.55592456176758,32.90490728088379Q23.62091356176758,32.93964728088379,23.68899456176758,32.96784728088379Q23.75707556176758,32.996047280883786,23.827592561767577,33.01743728088379Q23.89810956176758,33.03882728088379,23.970384561767577,33.05320728088379Q24.042658561767578,33.067587280883785,24.115993561767578,33.07480728088379Q24.18932926176758,33.08202728088379,24.263019561767578,33.08202728088379Q24.410756561767577,33.08202728088379,24.55565556176758,33.05320728088379Q24.700553561767578,33.024387280883786,24.837044561767577,32.96784728088379Q24.973536561767578,32.91130728088379,25.096375561767577,32.82923728088379Q25.21921456176758,32.74715728088379,25.323679561767577,32.64268728088379L25.324599561767577,32.64176728088379L32.65608956176758,25.31027728088379L32.65700956176758,25.309357280883788L32.65700956176758,25.309357280883788Z" fill-rule="evenodd" fill="#FFFFFF" fill-opacity="1"/></g></g></g></svg>