<svg xmlns="http://www.w3.org/2000/svg" xmlns:xlink="http://www.w3.org/1999/xlink" fill="none" version="1.1" width="24" height="24" viewBox="0 0 24 24"><defs><radialGradient cx="0" cy="0" r="1" gradientUnits="userSpaceOnUse" id="master_svg0_0_6488" gradientTransform="translate(-3.6750014424324036 -1.2000049501657486) rotate(42.21484095837504) scale(36.01660823114667 790.0460590196826)"><stop offset="0%" stop-color="#C3FB31" stop-opacity="1"/><stop offset="100%" stop-color="#09F4E6" stop-opacity="1"/></radialGradient></defs><g><g><path d="M1,12Q1,7.46079,4.23039,4.23039Q7.46079,1,12,1Q16.5392,1,19.7696,4.23039Q23,7.46079,23,12Q23,16.5392,19.7696,19.7696Q16.5392,23,12,23Q7.46079,23,4.23039,19.7696Q1,16.5392,1,12ZM3,12Q3,15.7108,5.64461,18.3554Q8.28922,21,12,21Q15.7108,21,18.3554,18.3554Q21,15.7108,21,12Q21,8.28922,18.3554,5.64461Q15.7108,3,12,3Q8.28921,3,5.64461,5.64461Q3,8.28921,3,12ZM11,8Q11,7.90151,11.0192,7.80491Q11.0384,7.70831,11.0761,7.61732Q11.1138,7.52632,11.1685,7.44443Q11.2232,7.36254,11.2929,7.29289Q11.3625,7.22325,11.4444,7.16853Q11.5263,7.11381,11.6173,7.07612Q11.7083,7.03843,11.8049,7.01921Q11.9015,7,12,7Q12.0985,7,12.1951,7.01921Q12.2917,7.03843,12.3827,7.07612Q12.4737,7.11381,12.5556,7.16853Q12.6375,7.22325,12.7071,7.29289Q12.7767,7.36254,12.8315,7.44443Q12.8862,7.52632,12.9239,7.61732Q12.9616,7.70831,12.9808,7.80491Q13,7.90151,13,8L13,11L16,11Q16.0985,11,16.1951,11.0192Q16.2917,11.0384,16.3827,11.0761Q16.4737,11.1138,16.5556,11.1685Q16.6375,11.2232,16.7071,11.2929Q16.776699999999998,11.3625,16.8315,11.4444Q16.886200000000002,11.5263,16.9239,11.6173Q16.9616,11.7083,16.980800000000002,11.8049Q17,11.9015,17,12Q17,12.0985,16.980800000000002,12.1951Q16.9616,12.2917,16.9239,12.3827Q16.886200000000002,12.4737,16.8315,12.5556Q16.776699999999998,12.6375,16.7071,12.7071Q16.6375,12.7767,16.5556,12.8315Q16.4737,12.8862,16.3827,12.9239Q16.2917,12.9616,16.1951,12.9808Q16.0985,13,16,13L13,13L13,16Q13,16.0985,12.9808,16.1951Q12.9616,16.2917,12.9239,16.3827Q12.8862,16.4737,12.8315,16.5556Q12.7767,16.6375,12.7071,16.7071Q12.6375,16.776699999999998,12.5556,16.8315Q12.4737,16.886200000000002,12.3827,16.9239Q12.2917,16.9616,12.1951,16.980800000000002Q12.0985,17,12,17Q11.9015,17,11.8049,16.980800000000002Q11.7083,16.9616,11.6173,16.9239Q11.5263,16.886200000000002,11.4444,16.8315Q11.3625,16.776699999999998,11.2929,16.7071Q11.2232,16.6375,11.1685,16.5556Q11.1138,16.4737,11.0761,16.3827Q11.0384,16.2917,11.0192,16.1951Q11,16.0985,11,16L11,13L8,13Q7.90151,13,7.80491,12.9808Q7.70831,12.9616,7.61732,12.9239Q7.52632,12.8862,7.44443,12.8315Q7.36254,12.7767,7.29289,12.7071Q7.22325,12.6375,7.16853,12.5556Q7.11381,12.4737,7.07612,12.3827Q7.03843,12.2917,7.01921,12.1951Q7,12.0985,7,12Q7,11.9015,7.01921,11.8049Q7.03843,11.7083,7.07612,11.6173Q7.11381,11.5263,7.16853,11.4444Q7.22325,11.3625,7.29289,11.2929Q7.36254,11.2232,7.44443,11.1685Q7.52632,11.1138,7.61732,11.0761Q7.70831,11.0384,7.80491,11.0192Q7.90151,11,8,11L11,11L11,8Z" fill-rule="evenodd" fill="#FED519" fill-opacity="1"/><path d="M1,12Q1,7.46079,4.23039,4.23039Q7.46079,1,12,1Q16.5392,1,19.7696,4.23039Q23,7.46079,23,12Q23,16.5392,19.7696,19.7696Q16.5392,23,12,23Q7.46079,23,4.23039,19.7696Q1,16.5392,1,12ZM3,12Q3,15.7108,5.64461,18.3554Q8.28922,21,12,21Q15.7108,21,18.3554,18.3554Q21,15.7108,21,12Q21,8.28922,18.3554,5.64461Q15.7108,3,12,3Q8.28921,3,5.64461,5.64461Q3,8.28921,3,12ZM11,8Q11,7.90151,11.0192,7.80491Q11.0384,7.70831,11.0761,7.61732Q11.1138,7.52632,11.1685,7.44443Q11.2232,7.36254,11.2929,7.29289Q11.3625,7.22325,11.4444,7.16853Q11.5263,7.11381,11.6173,7.07612Q11.7083,7.03843,11.8049,7.01921Q11.9015,7,12,7Q12.0985,7,12.1951,7.01921Q12.2917,7.03843,12.3827,7.07612Q12.4737,7.11381,12.5556,7.16853Q12.6375,7.22325,12.7071,7.29289Q12.7767,7.36254,12.8315,7.44443Q12.8862,7.52632,12.9239,7.61732Q12.9616,7.70831,12.9808,7.80491Q13,7.90151,13,8L13,11L16,11Q16.0985,11,16.1951,11.0192Q16.2917,11.0384,16.3827,11.0761Q16.4737,11.1138,16.5556,11.1685Q16.6375,11.2232,16.7071,11.2929Q16.776699999999998,11.3625,16.8315,11.4444Q16.886200000000002,11.5263,16.9239,11.6173Q16.9616,11.7083,16.980800000000002,11.8049Q17,11.9015,17,12Q17,12.0985,16.980800000000002,12.1951Q16.9616,12.2917,16.9239,12.3827Q16.886200000000002,12.4737,16.8315,12.5556Q16.776699999999998,12.6375,16.7071,12.7071Q16.6375,12.7767,16.5556,12.8315Q16.4737,12.8862,16.3827,12.9239Q16.2917,12.9616,16.1951,12.9808Q16.0985,13,16,13L13,13L13,16Q13,16.0985,12.9808,16.1951Q12.9616,16.2917,12.9239,16.3827Q12.8862,16.4737,12.8315,16.5556Q12.7767,16.6375,12.7071,16.7071Q12.6375,16.776699999999998,12.5556,16.8315Q12.4737,16.886200000000002,12.3827,16.9239Q12.2917,16.9616,12.1951,16.980800000000002Q12.0985,17,12,17Q11.9015,17,11.8049,16.980800000000002Q11.7083,16.9616,11.6173,16.9239Q11.5263,16.886200000000002,11.4444,16.8315Q11.3625,16.776699999999998,11.2929,16.7071Q11.2232,16.6375,11.1685,16.5556Q11.1138,16.4737,11.0761,16.3827Q11.0384,16.2917,11.0192,16.1951Q11,16.0985,11,16L11,13L8,13Q7.90151,13,7.80491,12.9808Q7.70831,12.9616,7.61732,12.9239Q7.52632,12.8862,7.44443,12.8315Q7.36254,12.7767,7.29289,12.7071Q7.22325,12.6375,7.16853,12.5556Q7.11381,12.4737,7.07612,12.3827Q7.03843,12.2917,7.01921,12.1951Q7,12.0985,7,12Q7,11.9015,7.01921,11.8049Q7.03843,11.7083,7.07612,11.6173Q7.11381,11.5263,7.16853,11.4444Q7.22325,11.3625,7.29289,11.2929Q7.36254,11.2232,7.44443,11.1685Q7.52632,11.1138,7.61732,11.0761Q7.70831,11.0384,7.80491,11.0192Q7.90151,11,8,11L11,11L11,8Z" fill-rule="evenodd" fill="url(#master_svg0_0_6488)" fill-opacity="1"/></g></g></svg>