<svg xmlns="http://www.w3.org/2000/svg" xmlns:xlink="http://www.w3.org/1999/xlink" fill="none" version="1.1" width="30" height="30" viewBox="0 0 30 30"><g><g><g><path d="M13.78813,10.21143Q14,10.43204,14,10.75Q14,10.84849,14.019210000000001,10.94509Q14.03843,11.04169,14.07612,11.13268Q14.11381,11.22368,14.16853,11.30557Q14.22325,11.38746,14.29289,11.45711Q14.36254,11.52675,14.44443,11.58147Q14.52632,11.63619,14.61732,11.67388Q14.70831,11.71157,14.80491,11.730789999999999Q14.90151,11.75,15,11.75Q15.09849,11.75,15.19509,11.730789999999999Q15.29169,11.71157,15.38268,11.67388Q15.47368,11.63619,15.55557,11.58147Q15.63746,11.52675,15.70711,11.45711Q15.77675,11.38746,15.83147,11.30557Q15.88619,11.22368,15.92388,11.13268Q15.96157,11.04169,15.98078,10.94509Q16,10.84849,16,10.75Q16,9.627177,15.23062,8.82607Q14.4518,8.015136,13.33851,8.000091L11.45,8Q10.42106,8,9.699693,8.760011Q9,9.497189,9,10.525Q9,12.32753,10.666153,12.917629999999999L13.66965,13.96886Q13.88082,14.045300000000001,13.926210000000001,14.10336Q13.9875,14.18177,13.9875,14.475Q13.9875,14.70478,13.83719,14.86314Q13.70729,15,13.5375,15L11.6625,15Q11.40688,15,11.21379,14.79691Q11,14.57203,11,14.25Q11,14.15151,10.980785000000001,14.05491Q10.96157,13.95831,10.923879,13.86732Q10.886188,13.77632,10.83147,13.69443Q10.776751,13.61254,10.707107,13.54289Q10.637463,13.47325,10.55557,13.41853Q10.473678,13.36381,10.382683,13.32612Q10.291689,13.28843,10.19509,13.269210000000001Q10.0984914,13.25,10,13.25Q9.9015086,13.25,9.80491,13.269210000000001Q9.708311,13.28843,9.617317,13.32612Q9.526322,13.36381,9.44443,13.41853Q9.362537,13.47325,9.292893,13.54289Q9.223249,13.61254,9.16853,13.69443Q9.113812,13.77632,9.076121,13.86732Q9.03843,13.95831,9.019214999999999,14.05491Q9,14.15151,9,14.25Q9,15.371030000000001,9.76433,16.174970000000002Q10.54872,17,11.6625,17L13.5375,17Q14.56644,17,15.28781,16.23999Q15.9875,15.50281,15.9875,14.475Q15.9875,12.68048,14.33035,12.08114L11.33385,11.03237Q11.10638,10.95181,11.06017,10.89321Q11,10.81693,11,10.525Q11,10.29522,11.15031,10.13686Q11.28021,10,11.45,10L13.31149,9.999909Q13.58858,10.00365,13.78813,10.21143Z" fill-rule="evenodd" fill="#91AAF2" fill-opacity="1"/></g><g><path d="M13.5,16.0625L13.5,16.987499Q13.5,17.08599,13.480785000000001,17.18259Q13.46157,17.27919,13.423879,17.37018Q13.386188,17.46118,13.33147,17.54307Q13.276751,17.62496,13.207107,17.69461Q13.137463,17.76425,13.05557,17.81897Q12.973678,17.87369,12.882683,17.91138Q12.791689,17.94907,12.69509,17.96828Q12.5984914,17.9875,12.5,17.9875Q12.4015086,17.9875,12.30491,17.96828Q12.208311,17.94907,12.117317,17.91138Q12.026322,17.87369,11.94443,17.81897Q11.862537,17.76425,11.792893,17.69461Q11.723249,17.62496,11.66853,17.54307Q11.613812,17.46118,11.576121,17.37018Q11.53843,17.27919,11.519214999999999,17.18259Q11.5,17.08599,11.5,16.987499L11.5,16.0625Q11.5,15.9640086,11.519214999999999,15.86741Q11.53843,15.770811,11.576121,15.679817Q11.613812,15.588822,11.66853,15.50693Q11.723249,15.425037,11.792893,15.355393Q11.862537,15.285749,11.94443,15.23103Q12.026322,15.176312,12.117317,15.138621Q12.208311,15.10093,12.30491,15.081714999999999Q12.4015086,15.0625,12.5,15.0625Q12.5984914,15.0625,12.69509,15.081714999999999Q12.791689,15.10093,12.882683,15.138621Q12.973678,15.176312,13.05557,15.23103Q13.137463,15.285749,13.207107,15.355393Q13.276751,15.425037,13.33147,15.50693Q13.386188,15.588822,13.423879,15.679817Q13.46157,15.770811,13.480785000000001,15.86741Q13.5,15.9640086,13.5,16.0625Z" fill-rule="evenodd" fill="#91AAF2" fill-opacity="1"/></g><g><path d="M13.5,8.012499809265137L13.5,8.987499809265136Q13.5,9.085989809265136,13.480785000000001,9.182589809265137Q13.46157,9.279189809265137,13.423879,9.370179809265137Q13.386188,9.461179809265136,13.33147,9.543069809265138Q13.276751,9.624959809265137,13.207107,9.694609809265136Q13.137463,9.764249809265136,13.05557,9.818969809265138Q12.973678,9.873689809265137,12.882683,9.911379809265137Q12.791689,9.949069809265136,12.69509,9.968289809265137Q12.5984914,9.987499809265136,12.5,9.987499809265136Q12.4015086,9.987499809265136,12.30491,9.968289809265137Q12.208311,9.949069809265136,12.117317,9.911379809265137Q12.026322,9.873689809265137,11.94443,9.818969809265138Q11.862537,9.764249809265136,11.792893,9.694609809265136Q11.723249,9.624959809265137,11.66853,9.543069809265138Q11.613812,9.461179809265136,11.576121,9.370179809265137Q11.53843,9.279189809265137,11.519214999999999,9.182589809265137Q11.5,9.085989809265136,11.5,8.987499809265136L11.5,8.012499809265137Q11.5,7.914008409265136,11.519214999999999,7.817409809265136Q11.53843,7.720810809265137,11.576121,7.629816809265137Q11.613812,7.538821809265137,11.66853,7.456929809265136Q11.723249,7.375036809265136,11.792893,7.305392809265137Q11.862537,7.235748809265137,11.94443,7.181029809265136Q12.026322,7.126311809265137,12.117317,7.088620809265136Q12.208311,7.050929809265137,12.30491,7.031714809265137Q12.4015086,7.012499809265137,12.5,7.012499809265137Q12.5984914,7.012499809265137,12.69509,7.031714809265137Q12.791689,7.050929809265137,12.882683,7.088620809265136Q12.973678,7.126311809265137,13.05557,7.181029809265136Q13.137463,7.235748809265137,13.207107,7.305392809265137Q13.276751,7.375036809265136,13.33147,7.456929809265136Q13.386188,7.538821809265137,13.423879,7.629816809265137Q13.46157,7.720810809265137,13.480785000000001,7.817409809265136Q13.5,7.914008409265136,13.5,8.012499809265137Z" fill-rule="evenodd" fill="#91AAF2" fill-opacity="1"/></g><g><path d="M20.2568,4.71816Q17.0387,1.5,12.4875,1.5Q7.93633,1.5,4.71816,4.71816Q1.5,7.93633,1.5,12.4875Q1.5,17.0387,4.71816,20.2568Q7.93633,23.475,12.4875,23.475Q17.0387,23.475,20.2568,20.2568Q23.475,17.0387,23.475,12.4875Q23.475,7.93633,20.2568,4.71816ZM6.1323799999999995,6.1323799999999995Q8.764759999999999,3.5,12.4875,3.5Q16.2102,3.5,18.8426,6.1323799999999995Q21.475,8.764759999999999,21.475,12.4875Q21.475,16.2102,18.8426,18.8426Q16.2102,21.475,12.4875,21.475Q8.764759999999999,21.475,6.1323799999999995,18.8426Q3.5,16.2103,3.5,12.4875Q3.5,8.764759999999999,6.1323799999999995,6.1323799999999995Z" fill-rule="evenodd" fill="#91AAF2" fill-opacity="1"/></g><g><path d="M25.471808474121094,15.438466Q26.858898474121094,16.437163,27.652398474121092,17.94735Q28.474998474121094,19.51281,28.474998474121094,21.2875Q28.474998474121094,24.26109,26.367998474121094,26.368000000000002Q24.261088474121095,28.475,21.287498474121094,28.475Q19.492828474121094,28.475,17.921778474121094,27.6411Q16.408003474121095,26.837600000000002,15.409361474121093,25.428559999999997L15.409100474121093,25.42819Q15.319271474121093,25.30143,15.272134474121094,25.153399999999998Q15.224998474121094,25.00536,15.224998474121094,24.85Q15.224998474121094,24.75151,15.244213474121093,24.65491Q15.263428474121094,24.55831,15.301119474121094,24.467309999999998Q15.338810474121093,24.37632,15.393528474121094,24.29443Q15.448247474121093,24.21253,15.517891474121093,24.14289Q15.587535474121093,24.07325,15.669428474121094,24.01853Q15.751320474121094,23.96381,15.842315474121094,23.92612Q15.933309474121094,23.88843,16.029908474121093,23.86921Q16.126507074121093,23.85,16.224998474121094,23.85Q16.344852474121094,23.85,16.461312474121094,23.878320000000002Q16.577771474121093,23.90665,16.684239474121092,23.96169Q16.790707474121092,24.01673,16.881152474121095,24.09537Q16.971598474121095,24.17402,17.040897474121095,24.2718Q18.602218474121095,26.475,21.287498474121094,26.475Q23.432658474121094,26.475,24.953828474121096,24.95383Q26.474998474121094,23.43266,26.474998474121094,21.2875Q26.474998474121094,18.62565,24.303878474121092,17.062025L24.303198474121096,17.061534Q24.206698474121094,16.992059,24.129188474121094,16.901895Q24.051678474121093,16.81173,23.997468474121092,16.705903Q23.943258474121095,16.600077,23.915378474121095,16.48449Q23.887498474121095,16.368902,23.887498474121095,16.25Q23.887498474121095,16.1515086,23.906718474121092,16.05491Q23.925928474121093,15.958311,23.963618474121095,15.867317Q24.001308474121092,15.776322,24.056028474121092,15.69443Q24.110748474121095,15.612537,24.180388474121095,15.542893Q24.250038474121094,15.473249,24.331928474121092,15.41853Q24.413818474121094,15.363812,24.504818474121095,15.326121Q24.595808474121093,15.28843,24.692408474121095,15.269214999999999Q24.789008474121093,15.25,24.887498474121095,15.25Q25.044778474121095,15.25,25.194468474121095,15.298282Q25.344158474121095,15.346564,25.471808474121094,15.438466Z" fill-rule="evenodd" fill="#91AAF2" fill-opacity="1"/></g></g></g></svg>