<svg xmlns="http://www.w3.org/2000/svg" xmlns:xlink="http://www.w3.org/1999/xlink" fill="none" version="1.1" width="30" height="30" viewBox="0 0 30 30"><g><g><g><path d="M18.8445985546875,15.601265585937501Q20.3380385546875,14.0553155859375,20.3502485546875,11.8945355859375L20.3502685546875,11.8874755859375Q20.3502685546875,9.6728355859375,18.7825885546875,8.1051545859375Q17.2149085546875,6.5374755859375,15.0002685546875,6.5374755859375Q12.777638554687499,6.5374755859375,11.2123285546875,8.1060865859375Q9.6502685546875,9.6714455859375,9.6502685546875,11.8874755859375Q9.6502685546875,14.0509155859375,11.1522005546875,15.602255585937499Q12.651368554687501,17.1507355859375,14.8076785546875,17.2242455859375Q14.9042985546875,17.2275455859375,15.0002685546875,17.2159455859375Q15.096238554687499,17.2275455859375,15.1928585546875,17.2242455859375Q17.3477185546875,17.1507855859375,18.8445985546875,15.601265585937501ZM17.8502685546875,11.8839655859375Q17.8490185546875,10.7071255859375,17.0148185546875,9.8729255859375Q16.1793785546875,9.0374755859375,15.0002685546875,9.0374755859375Q13.8147185546875,9.0374755859375,12.9819585546875,9.8719855859375Q12.1502685546875,10.7054355859375,12.1502685546875,11.8874755859375Q12.1502685546875,13.0389955859375,12.9483385546875,13.863325585937499Q13.7190485546875,14.6593855859375,14.817428554687499,14.7222655859375Q15.0056485546875,14.7077455859375,15.186898554687499,14.722035585937501Q16.2797585546875,14.6580755859375,17.0465585546875,13.864305585937501Q17.8425185546875,13.040355585937501,17.8502685546875,11.8839655859375Z" fill-rule="evenodd" fill="#91AAF2" fill-opacity="1"/></g><g><path d="M24.66770703125,24.0928432421875Q24.40710703125,21.6432632421875,21.91000703125,19.9630022421875L21.90730703125,19.9611872421875Q19.041807031250002,18.0438232421875,15.00907703125,18.0438232421875Q10.978637031249999,18.0438232421875,8.08936703125,19.9630022421875Q5.59231503125,21.6432632421875,5.33171703125,24.0928432421875Q5.31618703125,24.2388332421875,5.33490703125,24.3844532421875Q5.35362703125,24.5300732421875,5.40557703125,24.6673932421875Q5.45752703125,24.8047032421875,5.53988703125,24.9262532421875Q5.62224303125,25.0477932421875,5.73052003125,25.1469432421875Q9.66522703125,28.7500732421875,14.99970703125,28.7500732421875Q20.33420703125,28.7500732421875,24.26890703125,25.1469432421875Q24.37720703125,25.0477932421875,24.45950703125,24.9262532421875Q24.54190703125,24.8047032421875,24.59380703125,24.6673832421875Q24.64580703125,24.5300732421875,24.66450703125,24.3844532421875Q24.68320703125,24.2388332421875,24.66770703125,24.0928432421875ZM20.514407031250002,22.0371532421875Q20.515707031250003,22.0380532421875,20.51710703125,22.0389632421875Q21.68780703125,22.8275932421875,22.041807031250002,23.7693032421875Q19.00260703125,26.2500732421875,14.99970703125,26.2500732421875Q10.99681703125,26.2500732421875,7.95756703125,23.7693032421875Q8.31196703125,22.8265132421875,9.48504703125,22.0371432421875Q11.733277031250001,20.5438232421875,15.00907703125,20.5438232421875Q18.28060703125,20.5438232421875,20.514407031250002,22.0371532421875Z" fill-rule="evenodd" fill="#91AAF2" fill-opacity="1"/></g><g><path d="M24.7227,5.27728Q20.6954,1.25,15,1.25Q9.30456,1.25,5.27728,5.27728Q1.25,9.30456,1.25,15Q1.25,20.6954,5.27728,24.7227Q9.30457,28.75,15,28.75Q20.6954,28.75,24.7227,24.7227Q28.75,20.6954,28.75,15Q28.75,9.30457,24.7227,5.27728ZM7.04505,7.04505Q10.3401,3.75,15,3.75Q19.6599,3.75,22.955,7.04505Q26.25,10.3401,26.25,15Q26.25,19.6599,22.955,22.955Q19.6599,26.25,15,26.25Q10.3401,26.25,7.04505,22.955Q3.75,19.6599,3.75,15Q3.75,10.3401,7.04505,7.04505Z" fill-rule="evenodd" fill="#91AAF2" fill-opacity="1"/></g></g></g></svg>